# Blender 5.2.2 LTS
# www.blender.org
o export_bin
v -0.049000 -0.049000 0.000000
v -0.049000 -0.050000 0.001000
v -0.050000 -0.049000 0.001000
v -0.049000 -0.049707 0.000293
v -0.049577 -0.049577 0.000423
v -0.049707 -0.049707 0.001000
v -0.049707 -0.049000 0.000293
v -0.049000 -0.050000 0.003000
v -0.049000 -0.049000 0.004000
v -0.050000 -0.049000 0.003000
v -0.049000 -0.049707 0.003707
v -0.049577 -0.049577 0.003577
v -0.049707 -0.049000 0.003707
v -0.049707 -0.049707 0.003000
v -0.049000 0.049000 0.000000
v -0.050000 0.049000 0.001000
v -0.049000 0.050000 0.001000
v -0.049707 0.049000 0.000293
v -0.049577 0.049577 0.000423
v -0.049707 0.049707 0.001000
v -0.049000 0.049707 0.000293
v -0.049000 0.049000 0.004000
v -0.049000 0.050000 0.003000
v -0.050000 0.049000 0.003000
v -0.049000 0.049707 0.003707
v -0.049577 0.049577 0.003577
v -0.049707 0.049707 0.003000
v -0.049707 0.049000 0.003707
v 0.049000 -0.049000 0.000000
v 0.050000 -0.049000 0.001000
v 0.049000 -0.050000 0.001000
v 0.049707 -0.049000 0.000293
v 0.049577 -0.049577 0.000423
v 0.049707 -0.049707 0.001000
v 0.049000 -0.049707 0.000293
v 0.049000 -0.049000 0.004000
v 0.049000 -0.050000 0.003000
v 0.050000 -0.049000 0.003000
v 0.049000 -0.049707 0.003707
v 0.049577 -0.049577 0.003577
v 0.049707 -0.049707 0.003000
v 0.049707 -0.049000 0.003707
v 0.049000 0.049000 0.000000
v 0.049000 0.050000 0.001000
v 0.050000 0.049000 0.001000
v 0.049000 0.049707 0.000293
v 0.049577 0.049577 0.000423
v 0.049707 0.049707 0.001000
v 0.049707 0.049000 0.000293
v 0.049000 0.049000 0.004000
v 0.050000 0.049000 0.003000
v 0.049000 0.050000 0.003000
v 0.049707 0.049000 0.003707
v 0.049577 0.049577 0.003577
v 0.049707 0.049707 0.003000
v 0.049000 0.049707 0.003707
v 0.047200 -0.048800 0.000000
v 0.047200 -0.050000 0.001200
v 0.046000 -0.048800 0.001200
v 0.047200 -0.049649 0.000351
v 0.046507 -0.049493 0.000507
v 0.046351 -0.049649 0.001200
v 0.046351 -0.048800 0.000351
v 0.047200 -0.050000 0.043800
v 0.047200 -0.048800 0.045000
v 0.046000 -0.048800 0.043800
v 0.047200 -0.049649 0.044649
v 0.046507 -0.049493 0.044493
v 0.046351 -0.048800 0.044649
v 0.046351 -0.049649 0.043800
v 0.047200 0.048800 0.000000
v 0.046000 0.048800 0.001200
v 0.047200 0.050000 0.001200
v 0.046351 0.048800 0.000351
v 0.046507 0.049493 0.000507
v 0.046351 0.049649 0.001200
v 0.047200 0.049649 0.000351
v 0.047200 0.048800 0.045000
v 0.047200 0.050000 0.043800
v 0.046000 0.048800 0.043800
v 0.047200 0.049649 0.044649
v 0.046507 0.049493 0.044493
v 0.046351 0.049649 0.043800
v 0.046351 0.048800 0.044649
v 0.048800 -0.048800 0.000000
v 0.050000 -0.048800 0.001200
v 0.048800 -0.050000 0.001200
v 0.049649 -0.048800 0.000351
v 0.049493 -0.049493 0.000507
v 0.049649 -0.049649 0.001200
v 0.048800 -0.049649 0.000351
v 0.048800 -0.048800 0.045000
v 0.048800 -0.050000 0.043800
v 0.050000 -0.048800 0.043800
v 0.048800 -0.049649 0.044649
v 0.049493 -0.049493 0.044493
v 0.049649 -0.049649 0.043800
v 0.049649 -0.048800 0.044649
v 0.048800 0.048800 0.000000
v 0.048800 0.050000 0.001200
v 0.050000 0.048800 0.001200
v 0.048800 0.049649 0.000351
v 0.049493 0.049493 0.000507
v 0.049649 0.049649 0.001200
v 0.049649 0.048800 0.000351
v 0.048800 0.048800 0.045000
v 0.050000 0.048800 0.043800
v 0.048800 0.050000 0.043800
v 0.049649 0.048800 0.044649
v 0.049493 0.049493 0.044493
v 0.049649 0.049649 0.043800
v 0.048800 0.049649 0.044649
v 0.046000 -0.050000 0.043000
v 0.046000 -0.051500 0.044500
v 0.044500 -0.050000 0.044500
v 0.046000 -0.051061 0.043439
v 0.045134 -0.050866 0.043634
v 0.044939 -0.051061 0.044500
v 0.044939 -0.050000 0.043439
v 0.046000 -0.051500 0.045500
v 0.046000 -0.050000 0.047000
v 0.044500 -0.050000 0.045500
v 0.046000 -0.051061 0.046561
v 0.045134 -0.050866 0.046366
v 0.044939 -0.050000 0.046561
v 0.044939 -0.051061 0.045500
v 0.046000 0.050000 0.043000
v 0.044500 0.050000 0.044500
v 0.046000 0.051500 0.044500
v 0.044939 0.050000 0.043439
v 0.045134 0.050866 0.043634
v 0.044939 0.051061 0.044500
v 0.046000 0.051061 0.043439
v 0.046000 0.050000 0.047000
v 0.046000 0.051500 0.045500
v 0.044500 0.050000 0.045500
v 0.046000 0.051061 0.046561
v 0.045134 0.050866 0.046366
v 0.044939 0.051061 0.045500
v 0.044939 0.050000 0.046561
v 0.050000 -0.050000 0.043000
v 0.051500 -0.050000 0.044500
v 0.050000 -0.051500 0.044500
v 0.051061 -0.050000 0.043439
v 0.050866 -0.050866 0.043634
v 0.051061 -0.051061 0.044500
v 0.050000 -0.051061 0.043439
v 0.050000 -0.050000 0.047000
v 0.050000 -0.051500 0.045500
v 0.051500 -0.050000 0.045500
v 0.050000 -0.051061 0.046561
v 0.050866 -0.050866 0.046366
v 0.051061 -0.051061 0.045500
v 0.051061 -0.050000 0.046561
v 0.050000 0.050000 0.043000
v 0.050000 0.051500 0.044500
v 0.051500 0.050000 0.044500
v 0.050000 0.051061 0.043439
v 0.050866 0.050866 0.043634
v 0.051061 0.051061 0.044500
v 0.051061 0.050000 0.043439
v 0.050000 0.050000 0.047000
v 0.051500 0.050000 0.045500
v 0.050000 0.051500 0.045500
v 0.051061 0.050000 0.046561
v 0.050866 0.050866 0.046366
v 0.051061 0.051061 0.045500
v 0.050000 0.051061 0.046561
v -0.048800 -0.048800 0.000000
v -0.048800 -0.050000 0.001200
v -0.050000 -0.048800 0.001200
v -0.048800 -0.049649 0.000351
v -0.049493 -0.049493 0.000507
v -0.049649 -0.049649 0.001200
v -0.049649 -0.048800 0.000351
v -0.048800 -0.050000 0.043800
v -0.048800 -0.048800 0.045000
v -0.050000 -0.048800 0.043800
v -0.048800 -0.049649 0.044649
v -0.049493 -0.049493 0.044493
v -0.049649 -0.048800 0.044649
v -0.049649 -0.049649 0.043800
v -0.048800 0.048800 0.000000
v -0.050000 0.048800 0.001200
v -0.048800 0.050000 0.001200
v -0.049649 0.048800 0.000351
v -0.049493 0.049493 0.000507
v -0.049649 0.049649 0.001200
v -0.048800 0.049649 0.000351
v -0.048800 0.048800 0.045000
v -0.048800 0.050000 0.043800
v -0.050000 0.048800 0.043800
v -0.048800 0.049649 0.044649
v -0.049493 0.049493 0.044493
v -0.049649 0.049649 0.043800
v -0.049649 0.048800 0.044649
v -0.047200 -0.048800 0.000000
v -0.046000 -0.048800 0.001200
v -0.047200 -0.050000 0.001200
v -0.046351 -0.048800 0.000351
v -0.046507 -0.049493 0.000507
v -0.046351 -0.049649 0.001200
v -0.047200 -0.049649 0.000351
v -0.047200 -0.048800 0.045000
v -0.047200 -0.050000 0.043800
v -0.046000 -0.048800 0.043800
v -0.047200 -0.049649 0.044649
v -0.046507 -0.049493 0.044493
v -0.046351 -0.049649 0.043800
v -0.046351 -0.048800 0.044649
v -0.047200 0.048800 0.000000
v -0.047200 0.050000 0.001200
v -0.046000 0.048800 0.001200
v -0.047200 0.049649 0.000351
v -0.046507 0.049493 0.000507
v -0.046351 0.049649 0.001200
v -0.046351 0.048800 0.000351
v -0.047200 0.048800 0.045000
v -0.046000 0.048800 0.043800
v -0.047200 0.050000 0.043800
v -0.046351 0.048800 0.044649
v -0.046507 0.049493 0.044493
v -0.046351 0.049649 0.043800
v -0.047200 0.049649 0.044649
v -0.050000 -0.050000 0.043000
v -0.050000 -0.051500 0.044500
v -0.051500 -0.050000 0.044500
v -0.050000 -0.051061 0.043439
v -0.050866 -0.050866 0.043634
v -0.051061 -0.051061 0.044500
v -0.051061 -0.050000 0.043439
v -0.050000 -0.051500 0.045500
v -0.050000 -0.050000 0.047000
v -0.051500 -0.050000 0.045500
v -0.050000 -0.051061 0.046561
v -0.050866 -0.050866 0.046366
v -0.051061 -0.050000 0.046561
v -0.051061 -0.051061 0.045500
v -0.050000 0.050000 0.043000
v -0.051500 0.050000 0.044500
v -0.050000 0.051500 0.044500
v -0.051061 0.050000 0.043439
v -0.050866 0.050866 0.043634
v -0.051061 0.051061 0.044500
v -0.050000 0.051061 0.043439
v -0.050000 0.050000 0.047000
v -0.050000 0.051500 0.045500
v -0.051500 0.050000 0.045500
v -0.050000 0.051061 0.046561
v -0.050866 0.050866 0.046366
v -0.051061 0.051061 0.045500
v -0.051061 0.050000 0.046561
v -0.046000 -0.050000 0.043000
v -0.044500 -0.050000 0.044500
v -0.046000 -0.051500 0.044500
v -0.044939 -0.050000 0.043439
v -0.045134 -0.050866 0.043634
v -0.044939 -0.051061 0.044500
v -0.046000 -0.051061 0.043439
v -0.046000 -0.050000 0.047000
v -0.046000 -0.051500 0.045500
v -0.044500 -0.050000 0.045500
v -0.046000 -0.051061 0.046561
v -0.045134 -0.050866 0.046366
v -0.044939 -0.051061 0.045500
v -0.044939 -0.050000 0.046561
v -0.046000 0.050000 0.043000
v -0.046000 0.051500 0.044500
v -0.044500 0.050000 0.044500
v -0.046000 0.051061 0.043439
v -0.045134 0.050866 0.043634
v -0.044939 0.051061 0.044500
v -0.044939 0.050000 0.043439
v -0.046000 0.050000 0.047000
v -0.044500 0.050000 0.045500
v -0.046000 0.051500 0.045500
v -0.044939 0.050000 0.046561
v -0.045134 0.050866 0.046366
v -0.044939 0.051061 0.045500
v -0.046000 0.051061 0.046561
v -0.048800 0.047200 0.000000
v -0.048800 0.046000 0.001200
v -0.050000 0.047200 0.001200
v -0.048800 0.046351 0.000351
v -0.049493 0.046507 0.000507
v -0.049649 0.046351 0.001200
v -0.049649 0.047200 0.000351
v -0.048800 0.046000 0.043800
v -0.048800 0.047200 0.045000
v -0.050000 0.047200 0.043800
v -0.048800 0.046351 0.044649
v -0.049493 0.046507 0.044493
v -0.049649 0.047200 0.044649
v -0.049649 0.046351 0.043800
v -0.048800 0.048800 0.000000
v -0.050000 0.048800 0.001200
v -0.048800 0.050000 0.001200
v -0.049649 0.048800 0.000351
v -0.049493 0.049493 0.000507
v -0.049649 0.049649 0.001200
v -0.048800 0.049649 0.000351
v -0.048800 0.048800 0.045000
v -0.048800 0.050000 0.043800
v -0.050000 0.048800 0.043800
v -0.048800 0.049649 0.044649
v -0.049493 0.049493 0.044493
v -0.049649 0.049649 0.043800
v -0.049649 0.048800 0.044649
v 0.048800 0.047200 0.000000
v 0.050000 0.047200 0.001200
v 0.048800 0.046000 0.001200
v 0.049649 0.047200 0.000351
v 0.049493 0.046507 0.000507
v 0.049649 0.046351 0.001200
v 0.048800 0.046351 0.000351
v 0.048800 0.047200 0.045000
v 0.048800 0.046000 0.043800
v 0.050000 0.047200 0.043800
v 0.048800 0.046351 0.044649
v 0.049493 0.046507 0.044493
v 0.049649 0.046351 0.043800
v 0.049649 0.047200 0.044649
v 0.048800 0.048800 0.000000
v 0.048800 0.050000 0.001200
v 0.050000 0.048800 0.001200
v 0.048800 0.049649 0.000351
v 0.049493 0.049493 0.000507
v 0.049649 0.049649 0.001200
v 0.049649 0.048800 0.000351
v 0.048800 0.048800 0.045000
v 0.050000 0.048800 0.043800
v 0.048800 0.050000 0.043800
v 0.049649 0.048800 0.044649
v 0.049493 0.049493 0.044493
v 0.049649 0.049649 0.043800
v 0.048800 0.049649 0.044649
v -0.050000 0.046000 0.043000
v -0.050000 0.044500 0.044500
v -0.051500 0.046000 0.044500
v -0.050000 0.044939 0.043439
v -0.050866 0.045134 0.043634
v -0.051061 0.044939 0.044500
v -0.051061 0.046000 0.043439
v -0.050000 0.044500 0.045500
v -0.050000 0.046000 0.047000
v -0.051500 0.046000 0.045500
v -0.050000 0.044939 0.046561
v -0.050866 0.045134 0.046366
v -0.051061 0.046000 0.046561
v -0.051061 0.044939 0.045500
v -0.050000 0.050000 0.043000
v -0.051500 0.050000 0.044500
v -0.050000 0.051500 0.044500
v -0.051061 0.050000 0.043439
v -0.050866 0.050866 0.043634
v -0.051061 0.051061 0.044500
v -0.050000 0.051061 0.043439
v -0.050000 0.050000 0.047000
v -0.050000 0.051500 0.045500
v -0.051500 0.050000 0.045500
v -0.050000 0.051061 0.046561
v -0.050866 0.050866 0.046366
v -0.051061 0.051061 0.045500
v -0.051061 0.050000 0.046561
v 0.050000 0.046000 0.043000
v 0.051500 0.046000 0.044500
v 0.050000 0.044500 0.044500
v 0.051061 0.046000 0.043439
v 0.050866 0.045134 0.043634
v 0.051061 0.044939 0.044500
v 0.050000 0.044939 0.043439
v 0.050000 0.046000 0.047000
v 0.050000 0.044500 0.045500
v 0.051500 0.046000 0.045500
v 0.050000 0.044939 0.046561
v 0.050866 0.045134 0.046366
v 0.051061 0.044939 0.045500
v 0.051061 0.046000 0.046561
v 0.050000 0.050000 0.043000
v 0.050000 0.051500 0.044500
v 0.051500 0.050000 0.044500
v 0.050000 0.051061 0.043439
v 0.050866 0.050866 0.043634
v 0.051061 0.051061 0.044500
v 0.051061 0.050000 0.043439
v 0.050000 0.050000 0.047000
v 0.051500 0.050000 0.045500
v 0.050000 0.051500 0.045500
v 0.051061 0.050000 0.046561
v 0.050866 0.050866 0.046366
v 0.051061 0.051061 0.045500
v 0.050000 0.051061 0.046561
v -0.048800 -0.048800 0.000000
v -0.048800 -0.050000 0.001200
v -0.050000 -0.048800 0.001200
v -0.048800 -0.049649 0.000351
v -0.049493 -0.049493 0.000507
v -0.049649 -0.049649 0.001200
v -0.049649 -0.048800 0.000351
v -0.048800 -0.050000 0.043800
v -0.048800 -0.048800 0.045000
v -0.050000 -0.048800 0.043800
v -0.048800 -0.049649 0.044649
v -0.049493 -0.049493 0.044493
v -0.049649 -0.048800 0.044649
v -0.049649 -0.049649 0.043800
v -0.048800 -0.047200 0.000000
v -0.050000 -0.047200 0.001200
v -0.048800 -0.046000 0.001200
v -0.049649 -0.047200 0.000351
v -0.049493 -0.046507 0.000507
v -0.049649 -0.046351 0.001200
v -0.048800 -0.046351 0.000351
v -0.048800 -0.047200 0.045000
v -0.048800 -0.046000 0.043800
v -0.050000 -0.047200 0.043800
v -0.048800 -0.046351 0.044649
v -0.049493 -0.046507 0.044493
v -0.049649 -0.046351 0.043800
v -0.049649 -0.047200 0.044649
v 0.048800 -0.048800 0.000000
v 0.050000 -0.048800 0.001200
v 0.048800 -0.050000 0.001200
v 0.049649 -0.048800 0.000351
v 0.049493 -0.049493 0.000507
v 0.049649 -0.049649 0.001200
v 0.048800 -0.049649 0.000351
v 0.048800 -0.048800 0.045000
v 0.048800 -0.050000 0.043800
v 0.050000 -0.048800 0.043800
v 0.048800 -0.049649 0.044649
v 0.049493 -0.049493 0.044493
v 0.049649 -0.049649 0.043800
v 0.049649 -0.048800 0.044649
v 0.048800 -0.047200 0.000000
v 0.048800 -0.046000 0.001200
v 0.050000 -0.047200 0.001200
v 0.048800 -0.046351 0.000351
v 0.049493 -0.046507 0.000507
v 0.049649 -0.046351 0.001200
v 0.049649 -0.047200 0.000351
v 0.048800 -0.047200 0.045000
v 0.050000 -0.047200 0.043800
v 0.048800 -0.046000 0.043800
v 0.049649 -0.047200 0.044649
v 0.049493 -0.046507 0.044493
v 0.049649 -0.046351 0.043800
v 0.048800 -0.046351 0.044649
v -0.050000 -0.050000 0.043000
v -0.050000 -0.051500 0.044500
v -0.051500 -0.050000 0.044500
v -0.050000 -0.051061 0.043439
v -0.050866 -0.050866 0.043634
v -0.051061 -0.051061 0.044500
v -0.051061 -0.050000 0.043439
v -0.050000 -0.051500 0.045500
v -0.050000 -0.050000 0.047000
v -0.051500 -0.050000 0.045500
v -0.050000 -0.051061 0.046561
v -0.050866 -0.050866 0.046366
v -0.051061 -0.050000 0.046561
v -0.051061 -0.051061 0.045500
v -0.050000 -0.046000 0.043000
v -0.051500 -0.046000 0.044500
v -0.050000 -0.044500 0.044500
v -0.051061 -0.046000 0.043439
v -0.050866 -0.045134 0.043634
v -0.051061 -0.044939 0.044500
v -0.050000 -0.044939 0.043439
v -0.050000 -0.046000 0.047000
v -0.050000 -0.044500 0.045500
v -0.051500 -0.046000 0.045500
v -0.050000 -0.044939 0.046561
v -0.050866 -0.045134 0.046366
v -0.051061 -0.044939 0.045500
v -0.051061 -0.046000 0.046561
v 0.050000 -0.050000 0.043000
v 0.051500 -0.050000 0.044500
v 0.050000 -0.051500 0.044500
v 0.051061 -0.050000 0.043439
v 0.050866 -0.050866 0.043634
v 0.051061 -0.051061 0.044500
v 0.050000 -0.051061 0.043439
v 0.050000 -0.050000 0.047000
v 0.050000 -0.051500 0.045500
v 0.051500 -0.050000 0.045500
v 0.050000 -0.051061 0.046561
v 0.050866 -0.050866 0.046366
v 0.051061 -0.051061 0.045500
v 0.051061 -0.050000 0.046561
v 0.050000 -0.046000 0.043000
v 0.050000 -0.044500 0.044500
v 0.051500 -0.046000 0.044500
v 0.050000 -0.044939 0.043439
v 0.050866 -0.045134 0.043634
v 0.051061 -0.044939 0.044500
v 0.051061 -0.046000 0.043439
v 0.050000 -0.046000 0.047000
v 0.051500 -0.046000 0.045500
v 0.050000 -0.044500 0.045500
v 0.051061 -0.046000 0.046561
v 0.050866 -0.045134 0.046366
v 0.051061 -0.044939 0.045500
v 0.050000 -0.044939 0.046561
vn -0.3672 -0.2818 -0.8864
vn -0.2818 -0.8864 -0.3672
vn -0.8864 -0.3672 -0.2817
vn -0.3672 -0.8864 0.2818
vn -0.2818 -0.3672 0.8864
vn -0.8864 -0.2818 0.3672
vn -0.2818 0.3672 -0.8864
vn -0.8864 0.2818 -0.3672
vn -0.3672 0.8864 -0.2818
vn -0.3672 0.2818 0.8864
vn -0.2818 0.8864 0.3672
vn -0.8864 0.3672 0.2817
vn 0.2818 -0.3672 -0.8864
vn 0.8864 -0.2818 -0.3672
vn 0.3672 -0.8864 -0.2818
vn 0.3672 -0.2818 0.8864
vn 0.2818 -0.8864 0.3672
vn 0.8864 -0.3672 0.2817
vn 0.3672 0.2818 -0.8864
vn 0.2818 0.8864 -0.3672
vn 0.8864 0.3672 -0.2817
vn 0.2818 0.3672 0.8864
vn 0.8864 0.2818 0.3672
vn 0.3672 0.8864 0.2818
vn -0.3827 -0.0000 -0.9239
vn -0.9239 -0.0000 -0.3827
vn -0.3827 -0.9239 -0.0000
vn -0.9239 -0.3827 -0.0000
vn -0.3827 -0.0000 0.9239
vn -0.9239 -0.0000 0.3827
vn -0.3827 0.9239 -0.0000
vn -0.9239 0.3827 -0.0000
vn -0.0000 0.3827 -0.9239
vn -0.0000 0.9239 -0.3827
vn -0.0000 0.3827 0.9239
vn -0.0000 0.9239 0.3827
vn 0.9239 0.3827 -0.0000
vn 0.3827 0.9239 -0.0000
vn 0.3827 -0.0000 -0.9239
vn 0.9239 -0.0000 -0.3827
vn 0.3827 -0.0000 0.9239
vn 0.9239 -0.0000 0.3827
vn 0.3827 -0.9239 -0.0000
vn 0.9239 -0.3827 -0.0000
vn -0.0000 -0.3827 -0.9239
vn -0.0000 -0.9239 -0.3827
vn -0.0000 -0.3827 0.9239
vn -0.0000 -0.9239 0.3827
vn -0.0000 -0.0000 -1.0000
vn -1.0000 -0.0000 -0.0000
vn -0.0000 -1.0000 -0.0000
vn -0.0000 -0.0000 1.0000
vn -0.0000 1.0000 -0.0000
vn 1.0000 -0.0000 -0.0000
vn -0.3672 -0.2817 -0.8865
vn -0.2817 -0.8865 -0.3672
vn -0.8865 -0.3672 -0.2817
vn -0.3672 -0.8865 0.2817
vn -0.2817 -0.3672 0.8865
vn -0.8865 -0.2817 0.3672
vn -0.2817 0.3672 -0.8865
vn -0.8865 0.2817 -0.3672
vn -0.3672 0.8865 -0.2817
vn -0.3672 0.2817 0.8865
vn -0.2817 0.8865 0.3672
vn -0.8865 0.3672 0.2817
vn 0.2817 -0.3672 -0.8865
vn 0.8865 -0.2817 -0.3672
vn 0.3672 -0.8864 -0.2817
vn 0.3672 -0.2817 0.8865
vn 0.2817 -0.8865 0.3672
vn 0.8865 -0.3672 0.2817
vn 0.3672 0.2817 -0.8865
vn 0.2817 0.8865 -0.3672
vn 0.8865 0.3672 -0.2817
vn 0.2817 0.3672 0.8865
vn 0.8865 0.2817 0.3672
vn 0.3672 0.8865 0.2817
vn -0.3672 -0.2818 -0.8865
vn -0.8864 -0.3672 -0.2818
vn -0.8865 -0.2818 0.3672
vn -0.8865 0.2818 -0.3672
vn -0.3672 0.2818 0.8865
vn -0.8864 0.3672 0.2818
vn 0.8865 -0.2818 -0.3672
vn 0.3672 -0.2818 0.8865
vn 0.8864 -0.3672 0.2818
vn 0.3672 0.2818 -0.8865
vn 0.8864 0.3672 -0.2818
vn 0.8865 0.2818 0.3672
vn -0.3672 0.8864 -0.2817
vn 0.3672 -0.8865 -0.2817
vn -0.2818 -0.8865 -0.3671
vn -0.8865 -0.3672 -0.2818
vn -0.3671 -0.8865 0.2818
vn -0.2818 -0.3672 0.8865
vn -0.3671 0.8865 -0.2818
vn -0.2818 0.8865 0.3671
vn 0.3671 -0.8865 -0.2818
vn 0.2818 -0.8865 0.3671
vn 0.2818 0.8865 -0.3671
vn 0.2818 0.3672 0.8865
vn 0.3671 0.8865 0.2818
vn -0.3826 -0.9239 -0.0000
vn -0.3826 0.9239 -0.0000
vn -0.0000 0.9239 -0.3826
vn -0.0000 0.9239 0.3826
vn 0.3826 0.9239 -0.0000
vn 0.3826 -0.9239 -0.0000
vn -0.0000 -0.9239 -0.3826
vn -0.0000 -0.9239 0.3826
vn 0.8865 0.3672 -0.2818
vn -0.2818 -0.3672 -0.8864
vn -0.3672 -0.8864 -0.2818
vn -0.8864 -0.2818 -0.3672
vn -0.2818 -0.8864 0.3672
vn -0.3672 -0.2818 0.8864
vn -0.8864 -0.3672 0.2817
vn -0.3672 0.2818 -0.8864
vn -0.8864 0.3672 -0.2817
vn -0.2818 0.8864 -0.3672
vn -0.2818 0.3672 0.8864
vn -0.3672 0.8864 0.2818
vn -0.8864 0.2818 0.3672
vn 0.3672 -0.2818 -0.8864
vn 0.8864 -0.3672 -0.2817
vn 0.2818 -0.8864 -0.3672
vn 0.2818 -0.3672 0.8864
vn 0.3672 -0.8864 0.2818
vn 0.8864 -0.2818 0.3672
vn 0.2818 0.3672 -0.8864
vn 0.3672 0.8864 -0.2818
vn 0.8864 0.2818 -0.3672
vn 0.3672 0.2818 0.8864
vn 0.8864 0.3672 0.2817
vn 0.2818 0.8864 0.3672
vn -0.2817 -0.3672 -0.8865
vn -0.3672 -0.8865 -0.2817
vn -0.8865 -0.2817 -0.3672
vn -0.2817 -0.8865 0.3672
vn -0.3672 -0.2817 0.8865
vn -0.8865 -0.3672 0.2817
vn -0.3672 0.2817 -0.8865
vn -0.8865 0.3672 -0.2817
vn -0.2817 0.8865 -0.3672
vn -0.2817 0.3672 0.8865
vn -0.3672 0.8865 0.2817
vn -0.8865 0.2817 0.3672
vn 0.3672 -0.2817 -0.8865
vn 0.8865 -0.3672 -0.2817
vn 0.2817 -0.8865 -0.3672
vn 0.2817 -0.3672 0.8865
vn 0.3672 -0.8865 0.2817
vn 0.8865 -0.2817 0.3672
vn 0.2817 0.3672 -0.8865
vn 0.3672 0.8864 -0.2817
vn 0.8865 0.2817 -0.3672
vn 0.3672 0.2817 0.8865
vn 0.8865 0.3672 0.2817
vn 0.2817 0.8865 0.3672
vn -0.8865 -0.2818 -0.3672
vn -0.3672 -0.2818 0.8865
vn -0.8864 -0.3672 0.2818
vn -0.3672 0.2818 -0.8865
vn -0.8864 0.3672 -0.2818
vn -0.8865 0.2818 0.3672
vn 0.3672 -0.2818 -0.8865
vn 0.8864 -0.3672 -0.2818
vn 0.8865 -0.2818 0.3672
vn 0.2818 0.3672 -0.8865
vn 0.8865 0.2818 -0.3672
vn 0.3672 0.2818 0.8865
vn 0.8864 0.3672 0.2818
vn -0.3672 -0.8864 -0.2817
vn 0.3672 0.8865 -0.2817
vn -0.2818 -0.3672 -0.8865
vn -0.3671 -0.8865 -0.2818
vn -0.2818 -0.8865 0.3671
vn -0.2818 0.8865 -0.3671
vn -0.2818 0.3672 0.8865
vn -0.3671 0.8865 0.2818
vn 0.8865 -0.3672 -0.2818
vn 0.2818 -0.8865 -0.3671
vn 0.2818 -0.3672 0.8865
vn 0.3671 -0.8865 0.2818
vn 0.3671 0.8865 -0.2818
vn 0.2818 0.8865 0.3671
vn -0.8865 0.3672 -0.2818
vt 0.127500 0.747500
vt 0.126057 0.750000
vt 0.125000 0.747500
vt 0.437500 0.997500
vt 0.401416 1.000000
vt 0.375000 0.997500
vt 0.437500 0.002500
vt 0.375000 0.001057
vt 0.437500 0.000000
vt 0.562500 0.997500
vt 0.625000 0.998943
vt 0.562500 1.000000
vt 0.872500 0.747500
vt 0.875000 0.748943
vt 0.872500 0.750000
vt 0.562500 0.002500
vt 0.598584 0.000000
vt 0.625000 0.002500
vt 0.127500 0.502500
vt 0.125000 0.501057
vt 0.127500 0.500000
vt 0.437500 0.247500
vt 0.388208 0.250528
vt 0.375000 0.247500
vt 0.437500 0.252500
vt 0.437500 0.250000
vt 0.872500 0.502500
vt 0.873943 0.500000
vt 0.875000 0.502500
vt 0.562500 0.252500
vt 0.611792 0.249472
vt 0.625000 0.252500
vt 0.562500 0.247500
vt 0.562500 0.250000
vt 0.372500 0.747500
vt 0.383805 0.750000
vt 0.373750 0.751250
vt 0.437500 0.747500
vt 0.375000 0.747500
vt 0.437500 0.752500
vt 0.437500 0.750000
vt 0.627500 0.747500
vt 0.616547 0.749648
vt 0.625000 0.747500
vt 0.562500 0.752500
vt 0.626250 0.751250
vt 0.562500 0.747500
vt 0.562500 0.750000
vt 0.372500 0.502500
vt 0.383453 0.500352
vt 0.375000 0.502500
vt 0.437500 0.497500
vt 0.373750 0.498750
vt 0.437500 0.502500
vt 0.437500 0.500000
vt 0.627500 0.502500
vt 0.616195 0.500000
vt 0.626250 0.498750
vt 0.562500 0.502500
vt 0.625000 0.502500
vt 0.562500 0.497500
vt 0.562500 0.500000
vt 0.125000 0.502500
vt 0.375000 0.002500
vt 0.437500 1.000000
vt 0.562500 0.000000
vt 0.875000 0.747500
vt 0.625000 0.247500
vt 0.375000 0.252500
vt 0.872500 0.500000
vt 0.127500 0.750000
vt 0.625000 0.997500
vt 0.200000 0.747000
vt 0.156699 0.750000
vt 0.125000 0.747000
vt 0.381667 0.925000
vt 0.377818 1.000000
vt 0.375000 0.925000
vt 0.381667 0.003000
vt 0.375000 0.001268
vt 0.381667 0.000000
vt 0.618333 0.925000
vt 0.625000 0.968301
vt 0.618333 1.000000
vt 0.800000 0.747000
vt 0.875000 0.748732
vt 0.800000 0.750000
vt 0.618333 0.003000
vt 0.622182 0.000000
vt 0.625000 0.003000
vt 0.200000 0.503000
vt 0.125000 0.501268
vt 0.200000 0.500000
vt 0.381667 0.247000
vt 0.376409 0.265849
vt 0.375000 0.247000
vt 0.381667 0.325000
vt 0.381667 0.250000
vt 0.800000 0.503000
vt 0.843301 0.500000
vt 0.875000 0.503000
vt 0.618333 0.325000
vt 0.623591 0.249366
vt 0.625000 0.325000
vt 0.618333 0.247000
vt 0.618333 0.250000
vt 0.300000 0.747000
vt 0.375939 0.760144
vt 0.337500 0.787500
vt 0.381667 0.747000
vt 0.375000 0.747000
vt 0.381667 0.825000
vt 0.381667 0.750000
vt 0.700000 0.747000
vt 0.634627 0.749577
vt 0.625000 0.747000
vt 0.618333 0.825000
vt 0.662500 0.787500
vt 0.618333 0.747000
vt 0.618333 0.750000
vt 0.300000 0.503000
vt 0.365373 0.500423
vt 0.375000 0.503000
vt 0.381667 0.425000
vt 0.337500 0.462500
vt 0.381667 0.503000
vt 0.381667 0.500000
vt 0.700000 0.503000
vt 0.624061 0.489856
vt 0.662500 0.462500
vt 0.618333 0.503000
vt 0.625000 0.503000
vt 0.618333 0.425000
vt 0.618333 0.500000
vt 0.125000 0.503000
vt 0.375000 0.003000
vt 0.381667 1.000000
vt 0.618333 0.000000
vt 0.875000 0.747000
vt 0.625000 0.247000
vt 0.375000 0.325000
vt 0.800000 0.500000
vt 0.200000 0.750000
vt 0.625000 0.925000
vt 0.178571 0.746359
vt 0.147642 0.750000
vt 0.125000 0.746359
vt 0.468750 0.946429
vt 0.414623 1.000000
vt 0.375000 0.946429
vt 0.468750 0.003641
vt 0.375000 0.001539
vt 0.468750 0.000000
vt 0.531250 0.946429
vt 0.625000 0.977358
vt 0.531250 1.000000
vt 0.821429 0.746359
vt 0.875000 0.748461
vt 0.821429 0.750000
vt 0.531250 0.003641
vt 0.585377 0.000000
vt 0.625000 0.003641
vt 0.178571 0.503641
vt 0.125000 0.501539
vt 0.178571 0.500000
vt 0.468750 0.246359
vt 0.394812 0.261321
vt 0.375000 0.246359
vt 0.468750 0.303571
vt 0.468750 0.250000
vt 0.821428 0.503641
vt 0.852358 0.500000
vt 0.875000 0.503641
vt 0.531250 0.303571
vt 0.605188 0.249231
vt 0.625000 0.303571
vt 0.531250 0.246359
vt 0.531250 0.250000
vt 0.321429 0.746359
vt 0.388208 0.757034
vt 0.348214 0.776786
vt 0.468750 0.746359
vt 0.375000 0.746359
vt 0.468750 0.803571
vt 0.468750 0.750000
vt 0.678571 0.746359
vt 0.619339 0.749487
vt 0.625000 0.746359
vt 0.531250 0.803571
vt 0.651786 0.776786
vt 0.531250 0.746359
vt 0.531250 0.750000
vt 0.321429 0.503641
vt 0.380661 0.500513
vt 0.375000 0.503641
vt 0.468750 0.446429
vt 0.348214 0.473214
vt 0.468750 0.503641
vt 0.468750 0.500000
vt 0.678571 0.503641
vt 0.611792 0.492966
vt 0.651786 0.473214
vt 0.531250 0.503641
vt 0.625000 0.503641
vt 0.531250 0.446429
vt 0.531250 0.500000
vt 0.125000 0.503641
vt 0.375000 0.003641
vt 0.468750 1.000000
vt 0.531250 0.000000
vt 0.875000 0.746359
vt 0.625000 0.246359
vt 0.375000 0.303571
vt 0.821429 0.500000
vt 0.178571 0.750000
vt 0.625000 0.946429
vt 0.128000 0.675000
vt 0.126268 0.750000
vt 0.125000 0.675000
vt 0.381667 0.997000
vt 0.375000 0.997000
vt 0.381667 0.075000
vt 0.375000 0.031699
vt 0.618333 0.997000
vt 0.625000 0.998732
vt 0.872000 0.675000
vt 0.875000 0.718301
vt 0.872000 0.750000
vt 0.618333 0.075000
vt 0.625000 0.075000
vt 0.128000 0.575000
vt 0.125000 0.531699
vt 0.128000 0.500000
vt 0.381667 0.175000
vt 0.376409 0.250634
vt 0.375000 0.175000
vt 0.381667 0.253000
vt 0.872000 0.575000
vt 0.873732 0.500000
vt 0.875000 0.575000
vt 0.618333 0.253000
vt 0.623591 0.234151
vt 0.625000 0.253000
vt 0.618333 0.175000
vt 0.372000 0.675000
vt 0.375939 0.739856
vt 0.373500 0.751500
vt 0.381667 0.675000
vt 0.375000 0.675000
vt 0.381667 0.753000
vt 0.628000 0.675000
vt 0.624483 0.739434
vt 0.625000 0.675000
vt 0.618333 0.753000
vt 0.626500 0.751500
vt 0.618333 0.675000
vt 0.372000 0.575000
vt 0.375517 0.510566
vt 0.375000 0.575000
vt 0.381667 0.497000
vt 0.373500 0.498500
vt 0.381667 0.575000
vt 0.628000 0.575000
vt 0.624061 0.510144
vt 0.626500 0.498500
vt 0.618333 0.575000
vt 0.625000 0.575000
vt 0.618333 0.497000
vt 0.125000 0.575000
vt 0.375000 0.075000
vt 0.875000 0.675000
vt 0.625000 0.175000
vt 0.375000 0.253000
vt 0.872000 0.500000
vt 0.128000 0.750000
vt 0.625000 0.997000
vt 0.128641 0.696429
vt 0.126539 0.750000
vt 0.125000 0.696429
vt 0.468750 0.996359
vt 0.414623 1.000000
vt 0.375000 0.996359
vt 0.468750 0.053571
vt 0.375000 0.022642
vt 0.531250 0.996359
vt 0.625000 0.998461
vt 0.871359 0.696429
vt 0.875000 0.727358
vt 0.871359 0.750000
vt 0.531250 0.053571
vt 0.585377 0.000000
vt 0.625000 0.053571
vt 0.128641 0.553571
vt 0.125000 0.522642
vt 0.128641 0.500000
vt 0.468750 0.196429
vt 0.394812 0.250769
vt 0.375000 0.196429
vt 0.468750 0.253641
vt 0.871359 0.553571
vt 0.873461 0.500000
vt 0.875000 0.553571
vt 0.531250 0.253641
vt 0.605188 0.238679
vt 0.625000 0.253641
vt 0.531250 0.196429
vt 0.371359 0.696429
vt 0.388208 0.742966
vt 0.373180 0.751820
vt 0.468750 0.696429
vt 0.375000 0.696429
vt 0.468750 0.753641
vt 0.628641 0.696429
vt 0.612305 0.742453
vt 0.625000 0.696429
vt 0.531250 0.753641
vt 0.626820 0.751820
vt 0.531250 0.696429
vt 0.371359 0.553571
vt 0.387695 0.507547
vt 0.375000 0.553571
vt 0.468750 0.496359
vt 0.373180 0.498180
vt 0.468750 0.553571
vt 0.628641 0.553571
vt 0.611792 0.507034
vt 0.626820 0.498180
vt 0.531250 0.553571
vt 0.625000 0.553571
vt 0.531250 0.496359
vt 0.125000 0.553571
vt 0.375000 0.053571
vt 0.875000 0.696429
vt 0.625000 0.196429
vt 0.375000 0.253641
vt 0.871359 0.500000
vt 0.128641 0.750000
vt 0.625000 0.996359
s 0
f 1/1/1 5/2/1 7/3/1
f 2/4/2 5/5/2 4/6/2
f 3/7/3 5/8/3 6/9/3
f 8/10/4 12/11/4 14/12/4
f 9/13/5 12/14/5 11/15/5
f 10/16/6 12/17/6 13/18/6
f 15/19/7 19/20/7 21/21/7
f 16/22/8 19/23/8 18/24/8
f 17/25/9 19/23/9 20/26/9
f 22/27/10 26/28/10 28/29/10
f 23/30/11 26/31/11 25/32/11
f 24/33/12 26/31/12 27/34/12
f 29/35/13 33/36/13 35/37/13
f 30/38/14 33/36/14 32/39/14
f 31/40/15 33/36/15 34/41/15
f 36/42/16 40/43/16 42/44/16
f 37/45/17 40/43/17 39/46/17
f 38/47/18 40/43/18 41/48/18
f 43/49/19 47/50/19 49/51/19
f 44/52/20 47/50/20 46/53/20
f 45/54/21 47/50/21 48/55/21
f 50/56/22 54/57/22 56/58/22
f 51/59/23 54/57/23 53/60/23
f 52/61/24 54/57/24 55/62/24
f 1/1/25 18/63/25 15/19/25
f 7/64/26 16/22/26 18/24/26
f 8/10/27 6/65/27 2/4/27
f 14/66/28 3/7/28 6/9/28
f 22/27/29 13/67/29 9/13/29
f 28/68/30 10/16/30 13/18/30
f 17/25/31 27/34/31 23/30/31
f 20/26/32 24/33/32 27/34/32
f 15/19/33 46/53/33 43/49/33
f 21/69/34 44/52/34 46/53/34
f 50/56/35 25/70/35 22/27/35
f 56/58/36 23/30/36 25/32/36
f 45/54/37 55/62/37 51/59/37
f 48/55/38 52/61/38 55/62/38
f 43/49/39 32/39/39 29/35/39
f 49/51/40 30/38/40 32/39/40
f 36/42/41 53/60/41 50/56/41
f 42/44/42 51/59/42 53/60/42
f 31/40/43 41/48/43 37/45/43
f 34/41/44 38/47/44 41/48/44
f 29/35/45 4/71/45 1/1/45
f 35/37/46 2/4/46 4/6/46
f 9/13/47 39/46/47 36/42/47
f 11/72/48 37/45/48 39/46/48
f 43/49/49 1/1/49 15/19/49
f 10/16/50 16/22/50 3/7/50
f 37/45/51 2/4/51 31/40/51
f 22/27/52 36/42/52 50/56/52
f 23/30/53 44/52/53 17/25/53
f 51/59/54 30/38/54 45/54/54
f 57/73/55 61/74/55 63/75/55
f 58/76/56 61/77/56 60/78/56
f 59/79/57 61/80/57 62/81/57
f 64/82/58 68/83/58 70/84/58
f 65/85/59 68/86/59 67/87/59
f 66/88/60 68/89/60 69/90/60
f 71/91/61 75/92/61 77/93/61
f 72/94/62 75/95/62 74/96/62
f 73/97/63 75/95/63 76/98/63
f 78/99/64 82/100/64 84/101/64
f 79/102/65 82/103/65 81/104/65
f 80/105/66 82/103/66 83/106/66
f 85/107/67 89/108/67 91/109/67
f 86/110/68 89/108/68 88/111/68
f 87/112/69 89/108/69 90/113/69
f 92/114/70 96/115/70 98/116/70
f 93/117/71 96/115/71 95/118/71
f 94/119/72 96/115/72 97/120/72
f 99/121/73 103/122/73 105/123/73
f 100/124/74 103/122/74 102/125/74
f 101/126/75 103/122/75 104/127/75
f 106/128/76 110/129/76 112/130/76
f 107/131/77 110/129/77 109/132/77
f 108/133/78 110/129/78 111/134/78
f 57/73/25 74/135/25 71/91/25
f 63/136/26 72/94/26 74/96/26
f 64/82/27 62/137/27 58/76/27
f 70/138/28 59/79/28 62/81/28
f 78/99/29 69/139/29 65/85/29
f 84/140/30 66/88/30 69/90/30
f 73/97/31 83/106/31 79/102/31
f 76/98/32 80/105/32 83/106/32
f 71/91/33 102/125/33 99/121/33
f 77/141/34 100/124/34 102/125/34
f 106/128/35 81/142/35 78/99/35
f 112/130/36 79/102/36 81/104/36
f 101/126/37 111/134/37 107/131/37
f 104/127/38 108/133/38 111/134/38
f 99/121/39 88/111/39 85/107/39
f 105/123/40 86/110/40 88/111/40
f 92/114/41 109/132/41 106/128/41
f 98/116/42 107/131/42 109/132/42
f 87/112/43 97/120/43 93/117/43
f 90/113/44 94/119/44 97/120/44
f 85/107/45 60/143/45 57/73/45
f 91/109/46 58/76/46 60/78/46
f 65/85/47 95/118/47 92/114/47
f 67/144/48 93/117/48 95/118/48
f 99/121/49 57/73/49 71/91/49
f 66/88/50 72/94/50 59/79/50
f 93/117/51 58/76/51 87/112/51
f 78/99/52 92/114/52 106/128/52
f 79/102/53 100/124/53 73/97/53
f 107/131/54 86/110/54 101/126/54
f 113/145/79 117/146/79 119/147/79
f 114/148/2 117/149/2 116/150/2
f 115/151/80 117/152/80 118/153/80
f 120/154/4 124/155/4 126/156/4
f 121/157/5 124/158/5 123/159/5
f 122/160/81 124/161/81 125/162/81
f 127/163/7 131/164/7 133/165/7
f 128/166/82 131/167/82 130/168/82
f 129/169/9 131/167/9 132/170/9
f 134/171/83 138/172/83 140/173/83
f 135/174/11 138/175/11 137/176/11
f 136/177/84 138/175/84 139/178/84
f 141/179/13 145/180/13 147/181/13
f 142/182/85 145/180/85 144/183/85
f 143/184/15 145/180/15 146/185/15
f 148/186/86 152/187/86 154/188/86
f 149/189/17 152/187/17 151/190/17
f 150/191/87 152/187/87 153/192/87
f 155/193/88 159/194/88 161/195/88
f 156/196/20 159/194/20 158/197/20
f 157/198/89 159/194/89 160/199/89
f 162/200/22 166/201/22 168/202/22
f 163/203/90 166/201/90 165/204/90
f 164/205/24 166/201/24 167/206/24
f 113/145/25 130/207/25 127/163/25
f 119/208/26 128/166/26 130/168/26
f 120/154/27 118/209/27 114/148/27
f 126/210/28 115/151/28 118/153/28
f 134/171/29 125/211/29 121/157/29
f 140/212/30 122/160/30 125/162/30
f 129/169/31 139/178/31 135/174/31
f 132/170/32 136/177/32 139/178/32
f 127/163/33 158/197/33 155/193/33
f 133/213/34 156/196/34 158/197/34
f 162/200/35 137/214/35 134/171/35
f 168/202/36 135/174/36 137/176/36
f 157/198/37 167/206/37 163/203/37
f 160/199/38 164/205/38 167/206/38
f 155/193/39 144/183/39 141/179/39
f 161/195/40 142/182/40 144/183/40
f 148/186/41 165/204/41 162/200/41
f 154/188/42 163/203/42 165/204/42
f 143/184/43 153/192/43 149/189/43
f 146/185/44 150/191/44 153/192/44
f 141/179/45 116/215/45 113/145/45
f 147/181/46 114/148/46 116/150/46
f 121/157/47 151/190/47 148/186/47
f 123/216/48 149/189/48 151/190/48
f 155/193/49 113/145/49 127/163/49
f 122/160/50 128/166/50 115/151/50
f 149/189/51 114/148/51 143/184/51
f 134/171/52 148/186/52 162/200/52
f 135/174/53 156/196/53 129/169/53
f 163/203/54 142/182/54 157/198/54
f 169/73/55 173/74/55 175/75/55
f 170/76/56 173/77/56 172/78/56
f 171/79/57 173/80/57 174/81/57
f 176/82/58 180/83/58 182/84/58
f 177/85/59 180/86/59 179/87/59
f 178/88/60 180/89/60 181/90/60
f 183/91/61 187/92/61 189/93/61
f 184/94/62 187/95/62 186/96/62
f 185/97/91 187/95/91 188/98/91
f 190/99/64 194/100/64 196/101/64
f 191/102/65 194/103/65 193/104/65
f 192/105/66 194/103/66 195/106/66
f 197/107/67 201/108/67 203/109/67
f 198/110/68 201/108/68 200/111/68
f 199/112/92 201/108/92 202/113/92
f 204/114/70 208/115/70 210/116/70
f 205/117/71 208/115/71 207/118/71
f 206/119/72 208/115/72 209/120/72
f 211/121/73 215/122/73 217/123/73
f 212/124/74 215/122/74 214/125/74
f 213/126/75 215/122/75 216/127/75
f 218/128/76 222/129/76 224/130/76
f 219/131/77 222/129/77 221/132/77
f 220/133/78 222/129/78 223/134/78
f 169/73/25 186/135/25 183/91/25
f 175/136/26 184/94/26 186/96/26
f 176/82/27 174/137/27 170/76/27
f 182/138/28 171/79/28 174/81/28
f 190/99/29 181/139/29 177/85/29
f 196/140/30 178/88/30 181/90/30
f 185/97/31 195/106/31 191/102/31
f 188/98/32 192/105/32 195/106/32
f 183/91/33 214/125/33 211/121/33
f 189/141/34 212/124/34 214/125/34
f 218/128/35 193/142/35 190/99/35
f 224/130/36 191/102/36 193/104/36
f 213/126/37 223/134/37 219/131/37
f 216/127/38 220/133/38 223/134/38
f 211/121/39 200/111/39 197/107/39
f 217/123/40 198/110/40 200/111/40
f 204/114/41 221/132/41 218/128/41
f 210/116/42 219/131/42 221/132/42
f 199/112/43 209/120/43 205/117/43
f 202/113/44 206/119/44 209/120/44
f 197/107/45 172/143/45 169/73/45
f 203/109/46 170/76/46 172/78/46
f 177/85/47 207/118/47 204/114/47
f 179/144/48 205/117/48 207/118/48
f 211/121/49 169/73/49 183/91/49
f 178/88/50 184/94/50 171/79/50
f 205/117/51 170/76/51 199/112/51
f 190/99/52 204/114/52 218/128/52
f 191/102/53 212/124/53 185/97/53
f 219/131/54 198/110/54 213/126/54
f 225/145/79 229/146/79 231/147/79
f 226/148/2 229/149/2 228/150/2
f 227/151/80 229/152/80 230/153/80
f 232/154/4 236/155/4 238/156/4
f 233/157/5 236/158/5 235/159/5
f 234/160/81 236/161/81 237/162/81
f 239/163/7 243/164/7 245/165/7
f 240/166/82 243/167/82 242/168/82
f 241/169/9 243/167/9 244/170/9
f 246/171/83 250/172/83 252/173/83
f 247/174/11 250/175/11 249/176/11
f 248/177/84 250/175/84 251/178/84
f 253/179/13 257/180/13 259/181/13
f 254/182/85 257/180/85 256/183/85
f 255/184/15 257/180/15 258/185/15
f 260/186/86 264/187/86 266/188/86
f 261/189/17 264/187/17 263/190/17
f 262/191/87 264/187/87 265/192/87
f 267/193/88 271/194/88 273/195/88
f 268/196/20 271/194/20 270/197/20
f 269/198/89 271/194/89 272/199/89
f 274/200/22 278/201/22 280/202/22
f 275/203/90 278/201/90 277/204/90
f 276/205/24 278/201/24 279/206/24
f 225/145/25 242/207/25 239/163/25
f 231/208/26 240/166/26 242/168/26
f 232/154/27 230/209/27 226/148/27
f 238/210/28 227/151/28 230/153/28
f 246/171/29 237/211/29 233/157/29
f 252/212/30 234/160/30 237/162/30
f 241/169/31 251/178/31 247/174/31
f 244/170/32 248/177/32 251/178/32
f 239/163/33 270/197/33 267/193/33
f 245/213/34 268/196/34 270/197/34
f 274/200/35 249/214/35 246/171/35
f 280/202/36 247/174/36 249/176/36
f 269/198/37 279/206/37 275/203/37
f 272/199/38 276/205/38 279/206/38
f 267/193/39 256/183/39 253/179/39
f 273/195/40 254/182/40 256/183/40
f 260/186/41 277/204/41 274/200/41
f 266/188/42 275/203/42 277/204/42
f 255/184/43 265/192/43 261/189/43
f 258/185/44 262/191/44 265/192/44
f 253/179/45 228/215/45 225/145/45
f 259/181/46 226/148/46 228/150/46
f 233/157/47 263/190/47 260/186/47
f 235/216/48 261/189/48 263/190/48
f 267/193/49 225/145/49 239/163/49
f 234/160/50 240/166/50 227/151/50
f 261/189/51 226/148/51 255/184/51
f 246/171/52 260/186/52 274/200/52
f 247/174/53 268/196/53 241/169/53
f 275/203/54 254/182/54 269/198/54
f 281/217/1 285/218/1 287/219/1
f 282/220/93 285/77/93 284/221/93
f 283/222/94 285/223/94 286/81/94
f 288/224/95 292/225/95 294/84/95
f 289/226/96 292/227/96 291/228/96
f 290/229/6 292/89/6 293/230/6
f 295/231/7 299/232/7 301/233/7
f 296/234/8 299/235/8 298/236/8
f 297/237/97 299/235/97 300/98/97
f 302/238/10 306/239/10 308/240/10
f 303/241/98 306/242/98 305/243/98
f 304/244/84 306/242/84 307/106/84
f 309/245/13 313/246/13 315/247/13
f 310/248/14 313/246/14 312/249/14
f 311/250/99 313/246/99 314/113/99
f 316/251/16 320/252/16 322/253/16
f 317/254/100 320/252/100 319/255/100
f 318/256/87 320/252/87 321/120/87
f 323/257/19 327/258/19 329/259/19
f 324/260/101 327/258/101 326/261/101
f 325/262/89 327/258/89 328/127/89
f 330/263/102 334/264/102 336/265/102
f 331/266/23 334/264/23 333/267/23
f 332/268/103 334/264/103 335/134/103
f 281/217/25 298/269/25 295/231/25
f 287/270/26 296/234/26 298/236/26
f 288/224/104 286/137/104 282/220/104
f 294/138/28 283/222/28 286/81/28
f 302/238/29 293/271/29 289/226/29
f 308/272/30 290/229/30 293/230/30
f 297/237/105 307/106/105 303/241/105
f 300/98/32 304/244/32 307/106/32
f 295/231/33 326/261/33 323/257/33
f 301/273/106 324/260/106 326/261/106
f 330/263/35 305/274/35 302/238/35
f 336/265/107 303/241/107 305/243/107
f 325/262/37 335/134/37 331/266/37
f 328/127/108 332/268/108 335/134/108
f 323/257/39 312/249/39 309/245/39
f 329/259/40 310/248/40 312/249/40
f 316/251/41 333/267/41 330/263/41
f 322/253/42 331/266/42 333/267/42
f 311/250/109 321/120/109 317/254/109
f 314/113/44 318/256/44 321/120/44
f 309/245/45 284/275/45 281/217/45
f 315/247/110 282/220/110 284/221/110
f 289/226/47 319/255/47 316/251/47
f 291/276/111 317/254/111 319/255/111
f 323/257/49 281/217/49 295/231/49
f 290/229/50 296/234/50 283/222/50
f 317/254/51 282/220/51 311/250/51
f 302/238/52 316/251/52 330/263/52
f 303/241/53 324/260/53 297/237/53
f 331/266/54 310/248/54 325/262/54
f 337/277/55 341/278/55 343/279/55
f 338/280/56 341/281/56 340/282/56
f 339/283/57 341/284/57 342/153/57
f 344/285/58 348/286/58 350/156/58
f 345/287/59 348/288/59 347/289/59
f 346/290/60 348/291/60 349/292/60
f 351/293/61 355/294/61 357/295/61
f 352/296/62 355/297/62 354/298/62
f 353/299/63 355/297/63 356/170/63
f 358/300/64 362/301/64 364/302/64
f 359/303/65 362/304/65 361/305/65
f 360/306/66 362/304/66 363/178/66
f 365/307/67 369/308/67 371/309/67
f 366/310/68 369/308/68 368/311/68
f 367/312/92 369/308/92 370/185/92
f 372/313/70 376/314/70 378/315/70
f 373/316/71 376/314/71 375/317/71
f 374/318/72 376/314/72 377/192/72
f 379/319/73 383/320/73 385/321/73
f 380/322/74 383/320/74 382/323/74
f 381/324/75 383/320/75 384/199/75
f 386/325/76 390/326/76 392/327/76
f 387/328/77 390/326/77 389/329/77
f 388/330/78 390/326/78 391/206/78
f 337/277/25 354/331/25 351/293/25
f 343/332/26 352/296/26 354/298/26
f 344/285/27 342/209/27 338/280/27
f 350/210/28 339/283/28 342/153/28
f 358/300/29 349/333/29 345/287/29
f 364/334/30 346/290/30 349/292/30
f 353/299/31 363/178/31 359/303/31
f 356/170/32 360/306/32 363/178/32
f 351/293/33 382/323/33 379/319/33
f 357/335/34 380/322/34 382/323/34
f 386/325/35 361/336/35 358/300/35
f 392/327/36 359/303/36 361/305/36
f 381/324/37 391/206/37 387/328/37
f 384/199/38 388/330/38 391/206/38
f 379/319/39 368/311/39 365/307/39
f 385/321/40 366/310/40 368/311/40
f 372/313/41 389/329/41 386/325/41
f 378/315/42 387/328/42 389/329/42
f 367/312/43 377/192/43 373/316/43
f 370/185/44 374/318/44 377/192/44
f 365/307/45 340/337/45 337/277/45
f 371/309/46 338/280/46 340/282/46
f 345/287/47 375/317/47 372/313/47
f 347/338/48 373/316/48 375/317/48
f 379/319/49 337/277/49 351/293/49
f 346/290/50 352/296/50 339/283/50
f 373/316/51 338/280/51 367/312/51
f 358/300/52 372/313/52 386/325/52
f 359/303/53 380/322/53 353/299/53
f 387/328/54 366/310/54 381/324/54
f 393/217/1 397/218/1 399/219/1
f 394/220/93 397/77/93 396/221/93
f 395/222/80 397/223/80 398/81/80
f 400/224/95 404/225/95 406/84/95
f 401/226/96 404/227/96 403/228/96
f 402/229/6 404/89/6 405/230/6
f 407/231/7 411/232/7 413/233/7
f 408/234/8 411/235/8 410/236/8
f 409/237/97 411/235/97 412/98/97
f 414/238/10 418/239/10 420/240/10
f 415/241/98 418/242/98 417/243/98
f 416/244/84 418/242/84 419/106/84
f 421/245/13 425/246/13 427/247/13
f 422/248/14 425/246/14 424/249/14
f 423/250/99 425/246/99 426/113/99
f 428/251/16 432/252/16 434/253/16
f 429/254/100 432/252/100 431/255/100
f 430/256/87 432/252/87 433/120/87
f 435/257/19 439/258/19 441/259/19
f 436/260/101 439/258/101 438/261/101
f 437/262/112 439/258/112 440/127/112
f 442/263/102 446/264/102 448/265/102
f 443/266/23 446/264/23 445/267/23
f 444/268/103 446/264/103 447/134/103
f 393/217/25 410/269/25 407/231/25
f 399/270/26 408/234/26 410/236/26
f 400/224/104 398/137/104 394/220/104
f 406/138/28 395/222/28 398/81/28
f 414/238/29 405/271/29 401/226/29
f 420/272/30 402/229/30 405/230/30
f 409/237/105 419/106/105 415/241/105
f 412/98/32 416/244/32 419/106/32
f 407/231/33 438/261/33 435/257/33
f 413/273/106 436/260/106 438/261/106
f 442/263/35 417/274/35 414/238/35
f 448/265/107 415/241/107 417/243/107
f 437/262/37 447/134/37 443/266/37
f 440/127/108 444/268/108 447/134/108
f 435/257/39 424/249/39 421/245/39
f 441/259/40 422/248/40 424/249/40
f 428/251/41 445/267/41 442/263/41
f 434/253/42 443/266/42 445/267/42
f 423/250/109 433/120/109 429/254/109
f 426/113/44 430/256/44 433/120/44
f 421/245/45 396/275/45 393/217/45
f 427/247/110 394/220/110 396/221/110
f 401/226/47 431/255/47 428/251/47
f 403/276/111 429/254/111 431/255/111
f 435/257/49 393/217/49 407/231/49
f 402/229/50 408/234/50 395/222/50
f 429/254/51 394/220/51 423/250/51
f 414/238/52 428/251/52 442/263/52
f 415/241/53 436/260/53 409/237/53
f 443/266/54 422/248/54 437/262/54
f 449/277/55 453/278/55 455/279/55
f 450/280/56 453/281/56 452/282/56
f 451/283/57 453/284/57 454/153/57
f 456/285/58 460/286/58 462/156/58
f 457/287/59 460/288/59 459/289/59
f 458/290/60 460/291/60 461/292/60
f 463/293/61 467/294/61 469/295/61
f 464/296/62 467/297/62 466/298/62
f 465/299/63 467/297/63 468/170/63
f 470/300/64 474/301/64 476/302/64
f 471/303/65 474/304/65 473/305/65
f 472/306/66 474/304/66 475/178/66
f 477/307/67 481/308/67 483/309/67
f 478/310/68 481/308/68 480/311/68
f 479/312/92 481/308/92 482/185/92
f 484/313/70 488/314/70 490/315/70
f 485/316/71 488/314/71 487/317/71
f 486/318/72 488/314/72 489/192/72
f 491/319/73 495/320/73 497/321/73
f 492/322/74 495/320/74 494/323/74
f 493/324/75 495/320/75 496/199/75
f 498/325/76 502/326/76 504/327/76
f 499/328/77 502/326/77 501/329/77
f 500/330/78 502/326/78 503/206/78
f 449/277/25 466/331/25 463/293/25
f 455/332/26 464/296/26 466/298/26
f 456/285/27 454/209/27 450/280/27
f 462/210/28 451/283/28 454/153/28
f 470/300/29 461/333/29 457/287/29
f 476/334/30 458/290/30 461/292/30
f 465/299/31 475/178/31 471/303/31
f 468/170/32 472/306/32 475/178/32
f 463/293/33 494/323/33 491/319/33
f 469/335/34 492/322/34 494/323/34
f 498/325/35 473/336/35 470/300/35
f 504/327/36 471/303/36 473/305/36
f 493/324/37 503/206/37 499/328/37
f 496/199/38 500/330/38 503/206/38
f 491/319/39 480/311/39 477/307/39
f 497/321/40 478/310/40 480/311/40
f 484/313/41 501/329/41 498/325/41
f 490/315/42 499/328/42 501/329/42
f 479/312/43 489/192/43 485/316/43
f 482/185/44 486/318/44 489/192/44
f 477/307/45 452/337/45 449/277/45
f 483/309/46 450/280/46 452/282/46
f 457/287/47 487/317/47 484/313/47
f 459/338/48 485/316/48 487/317/48
f 491/319/49 449/277/49 463/293/49
f 458/290/50 464/296/50 451/283/50
f 485/316/51 450/280/51 479/312/51
f 470/300/52 484/313/52 498/325/52
f 471/303/53 492/322/53 465/299/53
f 499/328/54 478/310/54 493/324/54
f 1/1/113 4/71/113 5/2/113
f 2/4/114 6/65/114 5/5/114
f 3/7/115 7/64/115 5/8/115
f 8/10/116 11/72/116 12/11/116
f 9/13/117 13/67/117 12/14/117
f 10/16/118 14/66/118 12/17/118
f 15/19/119 18/63/119 19/20/119
f 16/22/120 20/26/120 19/23/120
f 17/25/121 21/69/121 19/23/121
f 22/27/122 25/70/122 26/28/122
f 23/30/123 27/34/123 26/31/123
f 24/33/124 28/68/124 26/31/124
f 29/35/125 32/39/125 33/36/125
f 30/38/126 34/41/126 33/36/126
f 31/40/127 35/37/127 33/36/127
f 36/42/128 39/46/128 40/43/128
f 37/45/129 41/48/129 40/43/129
f 38/47/130 42/44/130 40/43/130
f 43/49/131 46/53/131 47/50/131
f 44/52/132 48/55/132 47/50/132
f 45/54/133 49/51/133 47/50/133
f 50/56/134 53/60/134 54/57/134
f 51/59/135 55/62/135 54/57/135
f 52/61/136 56/58/136 54/57/136
f 1/1/25 7/3/25 18/63/25
f 7/64/26 3/7/26 16/22/26
f 8/10/27 14/12/27 6/65/27
f 14/66/28 10/16/28 3/7/28
f 22/27/29 28/29/29 13/67/29
f 28/68/30 24/33/30 10/16/30
f 17/25/31 20/26/31 27/34/31
f 20/26/32 16/22/32 24/33/32
f 15/19/33 21/21/33 46/53/33
f 21/69/34 17/25/34 44/52/34
f 50/56/35 56/58/35 25/70/35
f 56/58/36 52/61/36 23/30/36
f 45/54/37 48/55/37 55/62/37
f 48/55/38 44/52/38 52/61/38
f 43/49/39 49/51/39 32/39/39
f 49/51/40 45/54/40 30/38/40
f 36/42/41 42/44/41 53/60/41
f 42/44/42 38/47/42 51/59/42
f 31/40/43 34/41/43 41/48/43
f 34/41/44 30/38/44 38/47/44
f 29/35/45 35/37/45 4/71/45
f 35/37/46 31/40/46 2/4/46
f 9/13/47 11/15/47 39/46/47
f 11/72/48 8/10/48 37/45/48
f 43/49/49 29/35/49 1/1/49
f 10/16/50 24/33/50 16/22/50
f 37/45/51 8/10/51 2/4/51
f 22/27/52 9/13/52 36/42/52
f 23/30/53 52/61/53 44/52/53
f 51/59/54 38/47/54 30/38/54
f 57/73/137 60/143/137 61/74/137
f 58/76/138 62/137/138 61/77/138
f 59/79/139 63/136/139 61/80/139
f 64/82/140 67/144/140 68/83/140
f 65/85/141 69/139/141 68/86/141
f 66/88/142 70/138/142 68/89/142
f 71/91/143 74/135/143 75/92/143
f 72/94/144 76/98/144 75/95/144
f 73/97/145 77/141/145 75/95/145
f 78/99/146 81/142/146 82/100/146
f 79/102/147 83/106/147 82/103/147
f 80/105/148 84/140/148 82/103/148
f 85/107/149 88/111/149 89/108/149
f 86/110/150 90/113/150 89/108/150
f 87/112/151 91/109/151 89/108/151
f 92/114/152 95/118/152 96/115/152
f 93/117/153 97/120/153 96/115/153
f 94/119/154 98/116/154 96/115/154
f 99/121/155 102/125/155 103/122/155
f 100/124/156 104/127/156 103/122/156
f 101/126/157 105/123/157 103/122/157
f 106/128/158 109/132/158 110/129/158
f 107/131/159 111/134/159 110/129/159
f 108/133/160 112/130/160 110/129/160
f 57/73/25 63/75/25 74/135/25
f 63/136/26 59/79/26 72/94/26
f 64/82/27 70/84/27 62/137/27
f 70/138/28 66/88/28 59/79/28
f 78/99/29 84/101/29 69/139/29
f 84/140/30 80/105/30 66/88/30
f 73/97/31 76/98/31 83/106/31
f 76/98/32 72/94/32 80/105/32
f 71/91/33 77/93/33 102/125/33
f 77/141/34 73/97/34 100/124/34
f 106/128/35 112/130/35 81/142/35
f 112/130/36 108/133/36 79/102/36
f 101/126/37 104/127/37 111/134/37
f 104/127/38 100/124/38 108/133/38
f 99/121/39 105/123/39 88/111/39
f 105/123/40 101/126/40 86/110/40
f 92/114/41 98/116/41 109/132/41
f 98/116/42 94/119/42 107/131/42
f 87/112/43 90/113/43 97/120/43
f 90/113/44 86/110/44 94/119/44
f 85/107/45 91/109/45 60/143/45
f 91/109/46 87/112/46 58/76/46
f 65/85/47 67/87/47 95/118/47
f 67/144/48 64/82/48 93/117/48
f 99/121/49 85/107/49 57/73/49
f 66/88/50 80/105/50 72/94/50
f 93/117/51 64/82/51 58/76/51
f 78/99/52 65/85/52 92/114/52
f 79/102/53 108/133/53 100/124/53
f 107/131/54 94/119/54 86/110/54
f 113/145/113 116/215/113 117/146/113
f 114/148/114 118/209/114 117/149/114
f 115/151/161 119/208/161 117/152/161
f 120/154/116 123/216/116 124/155/116
f 121/157/162 125/211/162 124/158/162
f 122/160/163 126/210/163 124/161/163
f 127/163/164 130/207/164 131/164/164
f 128/166/165 132/170/165 131/167/165
f 129/169/121 133/213/121 131/167/121
f 134/171/122 137/214/122 138/172/122
f 135/174/123 139/178/123 138/175/123
f 136/177/166 140/212/166 138/175/166
f 141/179/167 144/183/167 145/180/167
f 142/182/168 146/185/168 145/180/168
f 143/184/127 147/181/127 145/180/127
f 148/186/128 151/190/128 152/187/128
f 149/189/129 153/192/129 152/187/129
f 150/191/169 154/188/169 152/187/169
f 155/193/170 158/197/170 159/194/170
f 156/196/132 160/199/132 159/194/132
f 157/198/171 161/195/171 159/194/171
f 162/200/172 165/204/172 166/201/172
f 163/203/173 167/206/173 166/201/173
f 164/205/136 168/202/136 166/201/136
f 113/145/25 119/147/25 130/207/25
f 119/208/26 115/151/26 128/166/26
f 120/154/27 126/156/27 118/209/27
f 126/210/28 122/160/28 115/151/28
f 134/171/29 140/173/29 125/211/29
f 140/212/30 136/177/30 122/160/30
f 129/169/31 132/170/31 139/178/31
f 132/170/32 128/166/32 136/177/32
f 127/163/33 133/165/33 158/197/33
f 133/213/34 129/169/34 156/196/34
f 162/200/35 168/202/35 137/214/35
f 168/202/36 164/205/36 135/174/36
f 157/198/37 160/199/37 167/206/37
f 160/199/38 156/196/38 164/205/38
f 155/193/39 161/195/39 144/183/39
f 161/195/40 157/198/40 142/182/40
f 148/186/41 154/188/41 165/204/41
f 154/188/42 150/191/42 163/203/42
f 143/184/43 146/185/43 153/192/43
f 146/185/44 142/182/44 150/191/44
f 141/179/45 147/181/45 116/215/45
f 147/181/46 143/184/46 114/148/46
f 121/157/47 123/159/47 151/190/47
f 123/216/48 120/154/48 149/189/48
f 155/193/49 141/179/49 113/145/49
f 122/160/50 136/177/50 128/166/50
f 149/189/51 120/154/51 114/148/51
f 134/171/52 121/157/52 148/186/52
f 135/174/53 164/205/53 156/196/53
f 163/203/54 150/191/54 142/182/54
f 169/73/137 172/143/137 173/74/137
f 170/76/174 174/137/174 173/77/174
f 171/79/139 175/136/139 173/80/139
f 176/82/140 179/144/140 180/83/140
f 177/85/141 181/139/141 180/86/141
f 178/88/142 182/138/142 180/89/142
f 183/91/143 186/135/143 187/92/143
f 184/94/144 188/98/144 187/95/144
f 185/97/145 189/141/145 187/95/145
f 190/99/146 193/142/146 194/100/146
f 191/102/147 195/106/147 194/103/147
f 192/105/148 196/140/148 194/103/148
f 197/107/149 200/111/149 201/108/149
f 198/110/150 202/113/150 201/108/150
f 199/112/151 203/109/151 201/108/151
f 204/114/152 207/118/152 208/115/152
f 205/117/153 209/120/153 208/115/153
f 206/119/154 210/116/154 208/115/154
f 211/121/155 214/125/155 215/122/155
f 212/124/175 216/127/175 215/122/175
f 213/126/157 217/123/157 215/122/157
f 218/128/158 221/132/158 222/129/158
f 219/131/159 223/134/159 222/129/159
f 220/133/160 224/130/160 222/129/160
f 169/73/25 175/75/25 186/135/25
f 175/136/26 171/79/26 184/94/26
f 176/82/27 182/84/27 174/137/27
f 182/138/28 178/88/28 171/79/28
f 190/99/29 196/101/29 181/139/29
f 196/140/30 192/105/30 178/88/30
f 185/97/31 188/98/31 195/106/31
f 188/98/32 184/94/32 192/105/32
f 183/91/33 189/93/33 214/125/33
f 189/141/34 185/97/34 212/124/34
f 218/128/35 224/130/35 193/142/35
f 224/130/36 220/133/36 191/102/36
f 213/126/37 216/127/37 223/134/37
f 216/127/38 212/124/38 220/133/38
f 211/121/39 217/123/39 200/111/39
f 217/123/40 213/126/40 198/110/40
f 204/114/41 210/116/41 221/132/41
f 210/116/42 206/119/42 219/131/42
f 199/112/43 202/113/43 209/120/43
f 202/113/44 198/110/44 206/119/44
f 197/107/45 203/109/45 172/143/45
f 203/109/46 199/112/46 170/76/46
f 177/85/47 179/87/47 207/118/47
f 179/144/48 176/82/48 205/117/48
f 211/121/49 197/107/49 169/73/49
f 178/88/50 192/105/50 184/94/50
f 205/117/51 176/82/51 170/76/51
f 190/99/52 177/85/52 204/114/52
f 191/102/53 220/133/53 212/124/53
f 219/131/54 206/119/54 198/110/54
f 225/145/176 228/215/176 229/146/176
f 226/148/114 230/209/114 229/149/114
f 227/151/161 231/208/161 229/152/161
f 232/154/116 235/216/116 236/155/116
f 233/157/162 237/211/162 236/158/162
f 234/160/163 238/210/163 236/161/163
f 239/163/164 242/207/164 243/164/164
f 240/166/165 244/170/165 243/167/165
f 241/169/121 245/213/121 243/167/121
f 246/171/122 249/214/122 250/172/122
f 247/174/123 251/178/123 250/175/123
f 248/177/166 252/212/166 250/175/166
f 253/179/167 256/183/167 257/180/167
f 254/182/168 258/185/168 257/180/168
f 255/184/127 259/181/127 257/180/127
f 260/186/128 263/190/128 264/187/128
f 261/189/129 265/192/129 264/187/129
f 262/191/169 266/188/169 264/187/169
f 267/193/131 270/197/131 271/194/131
f 268/196/132 272/199/132 271/194/132
f 269/198/171 273/195/171 271/194/171
f 274/200/172 277/204/172 278/201/172
f 275/203/173 279/206/173 278/201/173
f 276/205/136 280/202/136 278/201/136
f 225/145/25 231/147/25 242/207/25
f 231/208/26 227/151/26 240/166/26
f 232/154/27 238/156/27 230/209/27
f 238/210/28 234/160/28 227/151/28
f 246/171/29 252/173/29 237/211/29
f 252/212/30 248/177/30 234/160/30
f 241/169/31 244/170/31 251/178/31
f 244/170/32 240/166/32 248/177/32
f 239/163/33 245/165/33 270/197/33
f 245/213/34 241/169/34 268/196/34
f 274/200/35 280/202/35 249/214/35
f 280/202/36 276/205/36 247/174/36
f 269/198/37 272/199/37 279/206/37
f 272/199/38 268/196/38 276/205/38
f 267/193/39 273/195/39 256/183/39
f 273/195/40 269/198/40 254/182/40
f 260/186/41 266/188/41 277/204/41
f 266/188/42 262/191/42 275/203/42
f 255/184/43 258/185/43 265/192/43
f 258/185/44 254/182/44 262/191/44
f 253/179/45 259/181/45 228/215/45
f 259/181/46 255/184/46 226/148/46
f 233/157/47 235/159/47 263/190/47
f 235/216/48 232/154/48 261/189/48
f 267/193/49 253/179/49 225/145/49
f 234/160/50 248/177/50 240/166/50
f 261/189/51 232/154/51 226/148/51
f 246/171/52 233/157/52 260/186/52
f 247/174/53 276/205/53 268/196/53
f 275/203/54 262/191/54 254/182/54
f 281/217/113 284/275/113 285/218/113
f 282/220/177 286/137/177 285/77/177
f 283/222/115 287/270/115 285/223/115
f 288/224/178 291/276/178 292/225/178
f 289/226/117 293/271/117 292/227/117
f 290/229/163 294/138/163 292/89/163
f 295/231/119 298/269/119 299/232/119
f 296/234/165 300/98/165 299/235/165
f 297/237/179 301/273/179 299/235/179
f 302/238/180 305/274/180 306/239/180
f 303/241/181 307/106/181 306/242/181
f 304/244/124 308/272/124 306/242/124
f 309/245/125 312/249/125 313/246/125
f 310/248/182 314/113/182 313/246/182
f 311/250/183 315/247/183 313/246/183
f 316/251/184 319/255/184 320/252/184
f 317/254/185 321/120/185 320/252/185
f 318/256/130 322/253/130 320/252/130
f 323/257/131 326/261/131 327/258/131
f 324/260/186 328/127/186 327/258/186
f 325/262/133 329/259/133 327/258/133
f 330/263/134 333/267/134 334/264/134
f 331/266/173 335/134/173 334/264/173
f 332/268/187 336/265/187 334/264/187
f 281/217/25 287/219/25 298/269/25
f 287/270/26 283/222/26 296/234/26
f 288/224/104 294/84/104 286/137/104
f 294/138/28 290/229/28 283/222/28
f 302/238/29 308/240/29 293/271/29
f 308/272/30 304/244/30 290/229/30
f 297/237/105 300/98/105 307/106/105
f 300/98/32 296/234/32 304/244/32
f 295/231/33 301/233/33 326/261/33
f 301/273/106 297/237/106 324/260/106
f 330/263/35 336/265/35 305/274/35
f 336/265/107 332/268/107 303/241/107
f 325/262/37 328/127/37 335/134/37
f 328/127/108 324/260/108 332/268/108
f 323/257/39 329/259/39 312/249/39
f 329/259/40 325/262/40 310/248/40
f 316/251/41 322/253/41 333/267/41
f 322/253/42 318/256/42 331/266/42
f 311/250/109 314/113/109 321/120/109
f 314/113/44 310/248/44 318/256/44
f 309/245/45 315/247/45 284/275/45
f 315/247/110 311/250/110 282/220/110
f 289/226/47 291/228/47 319/255/47
f 291/276/111 288/224/111 317/254/111
f 323/257/49 309/245/49 281/217/49
f 290/229/50 304/244/50 296/234/50
f 317/254/51 288/224/51 282/220/51
f 302/238/52 289/226/52 316/251/52
f 303/241/53 332/268/53 324/260/53
f 331/266/54 318/256/54 310/248/54
f 337/277/137 340/337/137 341/278/137
f 338/280/138 342/209/138 341/281/138
f 339/283/139 343/332/139 341/284/139
f 344/285/140 347/338/140 348/286/140
f 345/287/141 349/333/141 348/288/141
f 346/290/142 350/210/142 348/291/142
f 351/293/143 354/331/143 355/294/143
f 352/296/144 356/170/144 355/297/144
f 353/299/145 357/335/145 355/297/145
f 358/300/146 361/336/146 362/301/146
f 359/303/147 363/178/147 362/304/147
f 360/306/148 364/334/148 362/304/148
f 365/307/149 368/311/149 369/308/149
f 366/310/150 370/185/150 369/308/150
f 367/312/151 371/309/151 369/308/151
f 372/313/152 375/317/152 376/314/152
f 373/316/153 377/192/153 376/314/153
f 374/318/154 378/315/154 376/314/154
f 379/319/155 382/323/155 383/320/155
f 380/322/175 384/199/175 383/320/175
f 381/324/157 385/321/157 383/320/157
f 386/325/158 389/329/158 390/326/158
f 387/328/159 391/206/159 390/326/159
f 388/330/160 392/327/160 390/326/160
f 337/277/25 343/279/25 354/331/25
f 343/332/26 339/283/26 352/296/26
f 344/285/27 350/156/27 342/209/27
f 350/210/28 346/290/28 339/283/28
f 358/300/29 364/302/29 349/333/29
f 364/334/30 360/306/30 346/290/30
f 353/299/31 356/170/31 363/178/31
f 356/170/32 352/296/32 360/306/32
f 351/293/33 357/295/33 382/323/33
f 357/335/34 353/299/34 380/322/34
f 386/325/35 392/327/35 361/336/35
f 392/327/36 388/330/36 359/303/36
f 381/324/37 384/199/37 391/206/37
f 384/199/38 380/322/38 388/330/38
f 379/319/39 385/321/39 368/311/39
f 385/321/40 381/324/40 366/310/40
f 372/313/41 378/315/41 389/329/41
f 378/315/42 374/318/42 387/328/42
f 367/312/43 370/185/43 377/192/43
f 370/185/44 366/310/44 374/318/44
f 365/307/45 371/309/45 340/337/45
f 371/309/46 367/312/46 338/280/46
f 345/287/47 347/289/47 375/317/47
f 347/338/48 344/285/48 373/316/48
f 379/319/49 365/307/49 337/277/49
f 346/290/50 360/306/50 352/296/50
f 373/316/51 344/285/51 338/280/51
f 358/300/52 345/287/52 372/313/52
f 359/303/53 388/330/53 380/322/53
f 387/328/54 374/318/54 366/310/54
f 393/217/113 396/275/113 397/218/113
f 394/220/177 398/137/177 397/77/177
f 395/222/115 399/270/115 397/223/115
f 400/224/178 403/276/178 404/225/178
f 401/226/117 405/271/117 404/227/117
f 402/229/163 406/138/163 404/89/163
f 407/231/119 410/269/119 411/232/119
f 408/234/188 412/98/188 411/235/188
f 409/237/179 413/273/179 411/235/179
f 414/238/180 417/274/180 418/239/180
f 415/241/181 419/106/181 418/242/181
f 416/244/124 420/272/124 418/242/124
f 421/245/125 424/249/125 425/246/125
f 422/248/168 426/113/168 425/246/168
f 423/250/183 427/247/183 425/246/183
f 428/251/184 431/255/184 432/252/184
f 429/254/185 433/120/185 432/252/185
f 430/256/130 434/253/130 432/252/130
f 435/257/131 438/261/131 439/258/131
f 436/260/186 440/127/186 439/258/186
f 437/262/133 441/259/133 439/258/133
f 442/263/134 445/267/134 446/264/134
f 443/266/173 447/134/173 446/264/173
f 444/268/187 448/265/187 446/264/187
f 393/217/25 399/219/25 410/269/25
f 399/270/26 395/222/26 408/234/26
f 400/224/104 406/84/104 398/137/104
f 406/138/28 402/229/28 395/222/28
f 414/238/29 420/240/29 405/271/29
f 420/272/30 416/244/30 402/229/30
f 409/237/105 412/98/105 419/106/105
f 412/98/32 408/234/32 416/244/32
f 407/231/33 413/233/33 438/261/33
f 413/273/106 409/237/106 436/260/106
f 442/263/35 448/265/35 417/274/35
f 448/265/107 444/268/107 415/241/107
f 437/262/37 440/127/37 447/134/37
f 440/127/108 436/260/108 444/268/108
f 435/257/39 441/259/39 424/249/39
f 441/259/40 437/262/40 422/248/40
f 428/251/41 434/253/41 445/267/41
f 434/253/42 430/256/42 443/266/42
f 423/250/109 426/113/109 433/120/109
f 426/113/44 422/248/44 430/256/44
f 421/245/45 427/247/45 396/275/45
f 427/247/110 423/250/110 394/220/110
f 401/226/47 403/228/47 431/255/47
f 403/276/111 400/224/111 429/254/111
f 435/257/49 421/245/49 393/217/49
f 402/229/50 416/244/50 408/234/50
f 429/254/51 400/224/51 394/220/51
f 414/238/52 401/226/52 428/251/52
f 415/241/53 444/268/53 436/260/53
f 443/266/54 430/256/54 422/248/54
f 449/277/137 452/337/137 453/278/137
f 450/280/138 454/209/138 453/281/138
f 451/283/139 455/332/139 453/284/139
f 456/285/140 459/338/140 460/286/140
f 457/287/141 461/333/141 460/288/141
f 458/290/142 462/210/142 460/291/142
f 463/293/143 466/331/143 467/294/143
f 464/296/144 468/170/144 467/297/144
f 465/299/145 469/335/145 467/297/145
f 470/300/146 473/336/146 474/301/146
f 471/303/147 475/178/147 474/304/147
f 472/306/148 476/334/148 474/304/148
f 477/307/149 480/311/149 481/308/149
f 478/310/150 482/185/150 481/308/150
f 479/312/151 483/309/151 481/308/151
f 484/313/152 487/317/152 488/314/152
f 485/316/153 489/192/153 488/314/153
f 486/318/154 490/315/154 488/314/154
f 491/319/155 494/323/155 495/320/155
f 492/322/175 496/199/175 495/320/175
f 493/324/157 497/321/157 495/320/157
f 498/325/158 501/329/158 502/326/158
f 499/328/159 503/206/159 502/326/159
f 500/330/160 504/327/160 502/326/160
f 449/277/25 455/279/25 466/331/25
f 455/332/26 451/283/26 464/296/26
f 456/285/27 462/156/27 454/209/27
f 462/210/28 458/290/28 451/283/28
f 470/300/29 476/302/29 461/333/29
f 476/334/30 472/306/30 458/290/30
f 465/299/31 468/170/31 475/178/31
f 468/170/32 464/296/32 472/306/32
f 463/293/33 469/295/33 494/323/33
f 469/335/34 465/299/34 492/322/34
f 498/325/35 504/327/35 473/336/35
f 504/327/36 500/330/36 471/303/36
f 493/324/37 496/199/37 503/206/37
f 496/199/38 492/322/38 500/330/38
f 491/319/39 497/321/39 480/311/39
f 497/321/40 493/324/40 478/310/40
f 484/313/41 490/315/41 501/329/41
f 490/315/42 486/318/42 499/328/42
f 479/312/43 482/185/43 489/192/43
f 482/185/44 478/310/44 486/318/44
f 477/307/45 483/309/45 452/337/45
f 483/309/46 479/312/46 450/280/46
f 457/287/47 459/289/47 487/317/47
f 459/338/48 456/285/48 485/316/48
f 491/319/49 477/307/49 449/277/49
f 458/290/50 472/306/50 464/296/50
f 485/316/51 456/285/51 450/280/51
f 470/300/52 457/287/52 484/313/52
f 471/303/53 500/330/53 492/322/53
f 499/328/54 486/318/54 478/310/54
