# Generated by scripts/generate_conveyor_assets.py
v 0.016000 0.000000 -0.015000
v 0.008000 0.013856 -0.015000
v 0.008000 0.013856 0.015000
v 0.016000 0.000000 0.015000
v 0.008000 0.013856 -0.015000
v -0.008000 0.013856 -0.015000
v -0.008000 0.013856 0.015000
v 0.008000 0.013856 0.015000
v -0.008000 0.013856 -0.015000
v -0.016000 0.000000 -0.015000
v -0.016000 0.000000 0.015000
v -0.008000 0.013856 0.015000
v -0.016000 0.000000 -0.015000
v -0.008000 -0.013856 -0.015000
v -0.008000 -0.013856 0.015000
v -0.016000 0.000000 0.015000
v -0.008000 -0.013856 -0.015000
v 0.008000 -0.013856 -0.015000
v 0.008000 -0.013856 0.015000
v -0.008000 -0.013856 0.015000
v 0.008000 -0.013856 -0.015000
v 0.016000 -0.000000 -0.015000
v 0.016000 -0.000000 0.015000
v 0.008000 -0.013856 0.015000
v 0.000000 0.000000 0.015000
v 0.016000 0.000000 0.015000
v 0.008000 0.013856 0.015000
v 0.008000 0.013856 0.015000
v -0.008000 0.013856 0.015000
v -0.008000 0.013856 0.015000
v -0.016000 0.000000 0.015000
v -0.016000 0.000000 0.015000
v -0.008000 -0.013856 0.015000
v -0.008000 -0.013856 0.015000
v 0.008000 -0.013856 0.015000
v 0.008000 -0.013856 0.015000
v 0.016000 -0.000000 0.015000
v -0.000000 -0.000000 -0.015000
v 0.016000 0.000000 -0.015000
v 0.008000 0.013856 -0.015000
v 0.008000 0.013856 -0.015000
v -0.008000 0.013856 -0.015000
v -0.008000 0.013856 -0.015000
v -0.016000 0.000000 -0.015000
v -0.016000 0.000000 -0.015000
v -0.008000 -0.013856 -0.015000
v -0.008000 -0.013856 -0.015000
v 0.008000 -0.013856 -0.015000
v 0.008000 -0.013856 -0.015000
v 0.016000 -0.000000 -0.015000
vt 0.000000 0.000000
vt 1.000000 0.000000
vt 1.000000 1.000000
vt 0.000000 1.000000
vt 1.000000 0.000000
vt 2.000000 0.000000
vt 2.000000 1.000000
vt 1.000000 1.000000
vt 2.000000 0.000000
vt 3.000000 0.000000
vt 3.000000 1.000000
vt 2.000000 1.000000
vt 3.000000 0.000000
vt 4.000000 0.000000
vt 4.000000 1.000000
vt 3.000000 1.000000
vt 4.000000 0.000000
vt 5.000000 0.000000
vt 5.000000 1.000000
vt 4.000000 1.000000
vt 5.000000 0.000000
vt 6.000000 0.000000
vt 6.000000 1.000000
vt 5.000000 1.000000
vt 0.500000 0.500000
vt 1.000000 0.500000
vt 0.750000 0.933013
vt 0.750000 0.933013
vt 0.250000 0.933013
vt 0.250000 0.933013
vt 0.000000 0.500000
vt 0.000000 0.500000
vt 0.250000 0.066987
vt 0.250000 0.066987
vt 0.750000 0.066987
vt 0.750000 0.066987
vt 1.000000 0.500000
vt 0.500000 0.500000
vt 1.000000 0.500000
vt 0.750000 0.933013
vt 0.750000 0.933013
vt 0.250000 0.933013
vt 0.250000 0.933013
vt 0.000000 0.500000
vt 0.000000 0.500000
vt 0.250000 0.066987
vt 0.250000 0.066987
vt 0.750000 0.066987
vt 0.750000 0.066987
vt 1.000000 0.500000
f 1/1 2/2 3/3
f 1/1 3/3 4/4
f 5/5 6/6 7/7
f 5/5 7/7 8/8
f 9/9 10/10 11/11
f 9/9 11/11 12/12
f 13/13 14/14 15/15
f 13/13 15/15 16/16
f 17/17 18/18 19/19
f 17/17 19/19 20/20
f 21/21 22/22 23/23
f 21/21 23/23 24/24
f 25/25 26/26 27/27
f 25/25 28/28 29/29
f 25/25 30/30 31/31
f 25/25 32/32 33/33
f 25/25 34/34 35/35
f 25/25 36/36 37/37
f 38/38 40/40 39/39
f 38/38 42/42 41/41
f 38/38 44/44 43/43
f 38/38 46/46 45/45
f 38/38 48/48 47/47
f 38/38 50/50 49/49
