# Blender 5.2.2 LTS
# www.blender.org
o export_motor
v 0.319000 -0.386009 0.050000
v 0.320000 -0.385000 0.050000
v 0.369000 -0.386009 0.050000
v 0.368000 -0.385000 0.050000
v 0.319000 -0.386656 0.045085
v 0.320000 -0.385681 0.044824
v 0.369000 -0.386656 0.045085
v 0.368000 -0.385681 0.044824
v 0.319000 -0.388553 0.040504
v 0.320000 -0.387679 0.040000
v 0.369000 -0.388553 0.040504
v 0.368000 -0.387679 0.040000
v 0.319000 -0.391571 0.036571
v 0.320000 -0.390858 0.035858
v 0.369000 -0.391571 0.036571
v 0.368000 -0.390858 0.035858
v 0.319000 -0.395504 0.033553
v 0.320000 -0.395000 0.032679
v 0.369000 -0.395504 0.033553
v 0.368000 -0.395000 0.032679
v 0.319000 -0.400085 0.031656
v 0.320000 -0.399824 0.030681
v 0.369000 -0.400085 0.031656
v 0.368000 -0.399824 0.030681
v 0.319000 -0.405000 0.031009
v 0.320000 -0.405000 0.030000
v 0.369000 -0.405000 0.031009
v 0.368000 -0.405000 0.030000
v 0.319000 -0.409915 0.031656
v 0.320000 -0.410176 0.030681
v 0.369000 -0.409915 0.031656
v 0.368000 -0.410176 0.030681
v 0.319000 -0.414496 0.033553
v 0.320000 -0.415000 0.032679
v 0.369000 -0.414496 0.033553
v 0.368000 -0.415000 0.032679
v 0.319000 -0.418429 0.036571
v 0.320000 -0.419142 0.035858
v 0.369000 -0.418429 0.036571
v 0.368000 -0.419142 0.035858
v 0.319000 -0.421447 0.040504
v 0.320000 -0.422321 0.040000
v 0.369000 -0.421447 0.040504
v 0.368000 -0.422321 0.040000
v 0.319000 -0.423344 0.045085
v 0.320000 -0.424319 0.044824
v 0.369000 -0.423344 0.045085
v 0.368000 -0.424319 0.044824
v 0.319000 -0.423991 0.050000
v 0.320000 -0.425000 0.050000
v 0.369000 -0.423991 0.050000
v 0.368000 -0.425000 0.050000
v 0.319000 -0.423344 0.054915
v 0.320000 -0.424319 0.055176
v 0.369000 -0.423344 0.054915
v 0.368000 -0.424319 0.055176
v 0.319000 -0.421447 0.059496
v 0.320000 -0.422321 0.060000
v 0.369000 -0.421447 0.059496
v 0.368000 -0.422321 0.060000
v 0.319000 -0.418429 0.063429
v 0.320000 -0.419142 0.064142
v 0.369000 -0.418429 0.063429
v 0.368000 -0.419142 0.064142
v 0.319000 -0.414496 0.066447
v 0.320000 -0.415000 0.067321
v 0.369000 -0.414496 0.066447
v 0.368000 -0.415000 0.067321
v 0.319000 -0.409915 0.068344
v 0.320000 -0.410176 0.069319
v 0.369000 -0.409915 0.068344
v 0.368000 -0.410176 0.069319
v 0.319000 -0.405000 0.068991
v 0.320000 -0.405000 0.070000
v 0.369000 -0.405000 0.068991
v 0.368000 -0.405000 0.070000
v 0.319000 -0.400085 0.068344
v 0.320000 -0.399824 0.069319
v 0.369000 -0.400085 0.068344
v 0.368000 -0.399824 0.069319
v 0.319000 -0.395504 0.066447
v 0.320000 -0.395000 0.067321
v 0.369000 -0.395504 0.066447
v 0.368000 -0.395000 0.067321
v 0.319000 -0.391571 0.063429
v 0.320000 -0.390858 0.064142
v 0.369000 -0.391571 0.063429
v 0.368000 -0.390858 0.064142
v 0.319000 -0.388553 0.059496
v 0.320000 -0.387679 0.060000
v 0.369000 -0.388553 0.059496
v 0.368000 -0.387679 0.060000
v 0.319000 -0.386656 0.054915
v 0.320000 -0.385681 0.055176
v 0.369000 -0.386656 0.054915
v 0.368000 -0.385681 0.055176
v 0.304000 -0.422000 0.030000
v 0.304000 -0.425000 0.033000
v 0.301000 -0.422000 0.033000
v 0.304000 -0.424121 0.030879
v 0.302268 -0.423732 0.031268
v 0.301879 -0.424121 0.033000
v 0.301879 -0.422000 0.030879
v 0.304000 -0.425000 0.067000
v 0.304000 -0.422000 0.070000
v 0.301000 -0.422000 0.067000
v 0.304000 -0.424121 0.069121
v 0.302268 -0.423732 0.068732
v 0.301879 -0.422000 0.069121
v 0.301879 -0.424121 0.067000
v 0.304000 -0.388000 0.030000
v 0.301000 -0.388000 0.033000
v 0.304000 -0.385000 0.033000
v 0.301879 -0.388000 0.030879
v 0.302268 -0.386268 0.031268
v 0.301879 -0.385879 0.033000
v 0.304000 -0.385879 0.030879
v 0.304000 -0.388000 0.070000
v 0.304000 -0.385000 0.067000
v 0.301000 -0.388000 0.067000
v 0.304000 -0.385879 0.069121
v 0.302268 -0.386268 0.068732
v 0.301879 -0.385879 0.067000
v 0.301879 -0.388000 0.069121
v 0.320000 -0.422000 0.030000
v 0.323000 -0.422000 0.033000
v 0.320000 -0.425000 0.033000
v 0.322121 -0.422000 0.030879
v 0.321732 -0.423732 0.031268
v 0.322121 -0.424121 0.033000
v 0.320000 -0.424121 0.030879
v 0.320000 -0.422000 0.070000
v 0.320000 -0.425000 0.067000
v 0.323000 -0.422000 0.067000
v 0.320000 -0.424121 0.069121
v 0.321732 -0.423732 0.068732
v 0.322121 -0.424121 0.067000
v 0.322121 -0.422000 0.069121
v 0.320000 -0.388000 0.030000
v 0.320000 -0.385000 0.033000
v 0.323000 -0.388000 0.033000
v 0.320000 -0.385879 0.030879
v 0.321732 -0.386268 0.031268
v 0.322121 -0.385879 0.033000
v 0.322121 -0.388000 0.030879
v 0.320000 -0.388000 0.070000
v 0.323000 -0.388000 0.067000
v 0.320000 -0.385000 0.067000
v 0.322121 -0.388000 0.069121
v 0.321732 -0.386268 0.068732
v 0.322121 -0.385879 0.067000
v 0.320000 -0.385879 0.069121
vn -0.7071 0.7011 -0.0923
vn 0.7071 0.7011 -0.0923
vn -0.7071 0.6533 -0.2706
vn 0.7071 0.6533 -0.2706
vn -0.7071 0.5610 -0.4305
vn 0.7071 0.5610 -0.4305
vn -0.7071 0.4305 -0.5610
vn 0.7071 0.4304 -0.5610
vn -0.7071 0.2706 -0.6533
vn 0.7071 0.2706 -0.6533
vn -0.7071 0.0923 -0.7011
vn 0.7071 0.0923 -0.7011
vn -0.7071 -0.0923 -0.7011
vn 0.7071 -0.0923 -0.7011
vn -0.7071 -0.2706 -0.6533
vn 0.7071 -0.2706 -0.6533
vn -0.7071 -0.4305 -0.5610
vn 0.7071 -0.4305 -0.5610
vn -0.7071 -0.5610 -0.4305
vn 0.7071 -0.5610 -0.4305
vn -0.7071 -0.6533 -0.2706
vn 0.7071 -0.6533 -0.2706
vn -0.7071 -0.7011 -0.0923
vn 0.7071 -0.7011 -0.0923
vn -0.7071 -0.7011 0.0923
vn 0.7071 -0.7011 0.0923
vn -0.7071 -0.6533 0.2706
vn 0.7071 -0.6533 0.2706
vn -0.7071 -0.5610 0.4305
vn 0.7071 -0.5610 0.4305
vn -0.7071 -0.4305 0.5610
vn 0.7071 -0.4304 0.5610
vn -0.7071 -0.2706 0.6533
vn 0.7071 -0.2706 0.6533
vn -0.7071 -0.0923 0.7011
vn 0.7071 -0.0923 0.7011
vn -0.7071 0.0923 0.7011
vn 0.7071 0.0923 0.7011
vn -0.7071 0.2706 0.6533
vn 0.7071 0.2706 0.6533
vn -0.7071 0.4305 0.5610
vn 0.7071 0.4305 0.5610
vn -0.7071 0.5610 0.4305
vn 0.7071 0.5610 0.4305
vn -0.7071 0.6533 0.2706
vn 0.7071 0.6533 0.2706
vn -0.7071 0.7011 0.0923
vn 0.7071 0.7011 0.0923
vn -1.0000 -0.0000 -0.0000
vn -0.0000 0.9914 -0.1305
vn -0.0000 0.9914 0.1305
vn 1.0000 -0.0000 -0.0000
vn -0.0000 0.9239 -0.3827
vn -0.0000 0.7934 -0.6088
vn -0.0000 0.6088 -0.7934
vn -0.0000 0.3827 -0.9239
vn -0.0000 0.1305 -0.9914
vn -0.0000 -0.1305 -0.9914
vn -0.0000 -0.3827 -0.9239
vn -0.0000 -0.6088 -0.7934
vn -0.0000 -0.7934 -0.6088
vn -0.0000 -0.9239 -0.3827
vn -0.0000 -0.9914 -0.1305
vn -0.0000 -0.9914 0.1305
vn -0.0000 -0.9239 0.3827
vn -0.0000 -0.7933 0.6088
vn -0.0000 -0.6088 0.7934
vn -0.0000 -0.3827 0.9239
vn -0.0000 -0.1305 0.9914
vn -0.0000 0.1305 0.9914
vn -0.0000 0.3827 0.9239
vn -0.0000 0.6088 0.7933
vn -0.0000 0.7934 0.6088
vn -0.0000 0.9239 0.3827
vn -0.3672 -0.2817 -0.8865
vn -0.2818 -0.8865 -0.3672
vn -0.8864 -0.3672 -0.2817
vn -0.3672 -0.8864 0.2818
vn -0.2818 -0.3672 0.8865
vn -0.8865 -0.2817 0.3672
vn -0.2817 0.3672 -0.8865
vn -0.8865 0.2817 -0.3672
vn -0.3672 0.8864 -0.2818
vn -0.3672 0.2817 0.8865
vn -0.2817 0.8865 0.3672
vn -0.8864 0.3672 0.2817
vn 0.2817 -0.3672 -0.8865
vn 0.8865 -0.2818 -0.3672
vn 0.3672 -0.8864 -0.2818
vn 0.3672 -0.2817 0.8865
vn 0.2817 -0.8865 0.3672
vn 0.8864 -0.3672 0.2817
vn 0.3672 0.2818 -0.8864
vn 0.2817 0.8865 -0.3672
vn 0.8864 0.3672 -0.2817
vn 0.2818 0.3672 0.8865
vn 0.8864 0.2817 0.3672
vn 0.3672 0.8864 0.2818
vn -0.3827 -0.0000 -0.9239
vn -0.9239 -0.0000 -0.3827
vn -0.3827 -0.9239 -0.0000
vn -0.9239 -0.3827 -0.0000
vn -0.3827 -0.0000 0.9239
vn -0.9239 -0.0000 0.3827
vn -0.3827 0.9239 -0.0000
vn -0.9239 0.3827 -0.0000
vn 0.9239 0.3827 -0.0000
vn 0.3827 0.9239 -0.0000
vn 0.3827 -0.0000 -0.9239
vn 0.9239 -0.0000 -0.3827
vn 0.3827 -0.0000 0.9239
vn 0.9239 -0.0000 0.3827
vn 0.3827 -0.9239 -0.0000
vn 0.9239 -0.3827 -0.0000
vn -0.0000 -0.0000 -1.0000
vn -0.0000 -1.0000 -0.0000
vn -0.0000 -0.0000 1.0000
vn -0.0000 1.0000 -0.0000
vn 0.7071 0.4305 -0.5610
vn 0.7071 -0.4304 -0.5610
vn 0.7071 -0.4305 0.5610
vn 0.7071 0.4304 0.5610
vn -0.0000 0.6088 -0.7933
vn -0.0000 -0.7933 -0.6088
vn -0.0000 -0.7934 0.6088
vn -0.0000 0.6088 0.7934
vn -0.2817 -0.3672 -0.8865
vn -0.3672 -0.8864 -0.2818
vn -0.8865 -0.2817 -0.3672
vn -0.2817 -0.8865 0.3672
vn -0.3672 -0.2817 0.8865
vn -0.8864 -0.3672 0.2817
vn -0.3672 0.2817 -0.8864
vn -0.8864 0.3672 -0.2817
vn -0.2818 0.8865 -0.3672
vn -0.2818 0.3672 0.8865
vn -0.3672 0.8864 0.2818
vn -0.8865 0.2817 0.3672
vn 0.3672 -0.2817 -0.8865
vn 0.8864 -0.3672 -0.2817
vn 0.2817 -0.8865 -0.3672
vn 0.2818 -0.3672 0.8865
vn 0.3672 -0.8864 0.2818
vn 0.8865 -0.2817 0.3672
vn 0.2817 0.3672 -0.8865
vn 0.3672 0.8864 -0.2818
vn 0.8864 0.2817 -0.3672
vn 0.3672 0.2817 0.8865
vn 0.8864 0.3672 0.2817
vn 0.2817 0.8865 0.3672
s 0
f 6//1 1//1 2//1
f 8//2 3//2 7//2
f 10//3 5//3 6//3
f 8//4 11//4 12//4
f 14//5 9//5 10//5
f 12//6 15//6 16//6
f 14//7 17//7 13//7
f 16//8 19//8 20//8
f 18//9 21//9 17//9
f 24//10 19//10 23//10
f 26//11 21//11 22//11
f 28//12 23//12 27//12
f 26//13 29//13 25//13
f 28//14 31//14 32//14
f 30//15 33//15 29//15
f 32//16 35//16 36//16
f 38//17 33//17 34//17
f 40//18 35//18 39//18
f 42//19 37//19 38//19
f 44//20 39//20 43//20
f 42//21 45//21 41//21
f 48//22 43//22 47//22
f 46//23 49//23 45//23
f 48//24 51//24 52//24
f 54//25 49//25 50//25
f 56//26 51//26 55//26
f 54//27 57//27 53//27
f 56//28 59//28 60//28
f 58//29 61//29 57//29
f 60//30 63//30 64//30
f 66//31 61//31 62//31
f 64//32 67//32 68//32
f 66//33 69//33 65//33
f 68//34 71//34 72//34
f 74//35 69//35 70//35
f 76//36 71//36 75//36
f 74//37 77//37 73//37
f 80//38 75//38 79//38
f 78//39 81//39 77//39
f 84//40 79//40 83//40
f 82//41 85//41 81//41
f 88//42 83//42 87//42
f 90//43 85//43 86//43
f 92//44 87//44 91//44
f 90//45 93//45 89//45
f 96//46 91//46 95//46
f 94//47 1//47 93//47
f 96//48 3//48 4//48
f 29//49 61//49 93//49
f 4//50 6//50 2//50
f 96//51 2//51 94//51
f 75//52 43//52 11//52
f 8//53 10//53 6//53
f 12//54 14//54 10//54
f 16//55 18//55 14//55
f 18//56 24//56 22//56
f 24//57 26//57 22//57
f 26//58 32//58 30//58
f 32//59 34//59 30//59
f 36//60 38//60 34//60
f 40//61 42//61 38//61
f 44//62 46//62 42//62
f 48//63 50//63 46//63
f 52//64 54//64 50//64
f 56//65 58//65 54//65
f 60//66 62//66 58//66
f 64//67 66//67 62//67
f 68//68 70//68 66//68
f 72//69 74//69 70//69
f 76//70 78//70 74//70
f 80//71 82//71 78//71
f 84//72 86//72 82//72
f 88//73 90//73 86//73
f 92//74 94//74 90//74
f 97//75 101//75 103//75
f 98//76 101//76 100//76
f 99//77 101//77 102//77
f 104//78 108//78 110//78
f 105//79 108//79 107//79
f 106//80 108//80 109//80
f 111//81 115//81 117//81
f 112//82 115//82 114//82
f 113//83 115//83 116//83
f 118//84 122//84 124//84
f 119//85 122//85 121//85
f 120//86 122//86 123//86
f 125//87 129//87 131//87
f 126//88 129//88 128//88
f 127//89 129//89 130//89
f 132//90 136//90 138//90
f 133//91 136//91 135//91
f 134//92 136//92 137//92
f 139//93 143//93 145//93
f 140//94 143//94 142//94
f 141//95 143//95 144//95
f 146//96 150//96 152//96
f 147//97 150//97 149//97
f 148//98 150//98 151//98
f 97//99 114//99 111//99
f 103//100 112//100 114//100
f 104//101 102//101 98//101
f 110//102 99//102 102//102
f 118//103 109//103 105//103
f 124//104 106//104 109//104
f 113//105 123//105 119//105
f 116//106 120//106 123//106
f 111//56 142//56 139//56
f 117//53 140//53 142//53
f 146//71 121//71 118//71
f 152//74 119//74 121//74
f 141//107 151//107 147//107
f 144//108 148//108 151//108
f 139//109 128//109 125//109
f 145//110 126//110 128//110
f 132//111 149//111 146//111
f 138//112 147//112 149//112
f 127//113 137//113 133//113
f 130//114 134//114 137//114
f 125//59 100//59 97//59
f 131//62 98//62 100//62
f 105//68 135//68 132//68
f 107//65 133//65 135//65
f 139//115 97//115 111//115
f 106//49 112//49 99//49
f 133//116 98//116 127//116
f 118//117 132//117 146//117
f 119//118 140//118 113//118
f 147//52 126//52 141//52
f 6//1 5//1 1//1
f 8//2 4//2 3//2
f 10//3 9//3 5//3
f 8//4 7//4 11//4
f 14//5 13//5 9//5
f 12//6 11//6 15//6
f 14//7 18//7 17//7
f 16//119 15//119 19//119
f 18//9 22//9 21//9
f 24//10 20//10 19//10
f 26//11 25//11 21//11
f 28//12 24//12 23//12
f 26//13 30//13 29//13
f 28//14 27//14 31//14
f 30//15 34//15 33//15
f 32//16 31//16 35//16
f 38//17 37//17 33//17
f 40//120 36//120 35//120
f 42//19 41//19 37//19
f 44//20 40//20 39//20
f 42//21 46//21 45//21
f 48//22 44//22 43//22
f 46//23 50//23 49//23
f 48//24 47//24 51//24
f 54//25 53//25 49//25
f 56//26 52//26 51//26
f 54//27 58//27 57//27
f 56//28 55//28 59//28
f 58//29 62//29 61//29
f 60//30 59//30 63//30
f 66//31 65//31 61//31
f 64//121 63//121 67//121
f 66//33 70//33 69//33
f 68//34 67//34 71//34
f 74//35 73//35 69//35
f 76//36 72//36 71//36
f 74//37 78//37 77//37
f 80//38 76//38 75//38
f 78//39 82//39 81//39
f 84//40 80//40 79//40
f 82//41 86//41 85//41
f 88//122 84//122 83//122
f 90//43 89//43 85//43
f 92//44 88//44 87//44
f 90//45 94//45 93//45
f 96//46 92//46 91//46
f 94//47 2//47 1//47
f 96//48 95//48 3//48
f 93//49 1//49 5//49
f 5//49 9//49 13//49
f 13//49 17//49 21//49
f 21//49 25//49 29//49
f 29//49 33//49 37//49
f 37//49 41//49 45//49
f 45//49 49//49 53//49
f 53//49 57//49 61//49
f 61//49 65//49 69//49
f 69//49 73//49 77//49
f 77//49 81//49 85//49
f 85//49 89//49 93//49
f 93//49 5//49 13//49
f 13//49 21//49 29//49
f 29//49 37//49 45//49
f 45//49 53//49 61//49
f 61//49 69//49 77//49
f 77//49 85//49 93//49
f 93//49 13//49 29//49
f 29//49 45//49 61//49
f 61//49 77//49 93//49
f 4//50 8//50 6//50
f 96//51 4//51 2//51
f 11//52 7//52 3//52
f 3//52 95//52 91//52
f 91//52 87//52 83//52
f 83//52 79//52 75//52
f 75//52 71//52 67//52
f 67//52 63//52 59//52
f 59//52 55//52 51//52
f 51//52 47//52 43//52
f 43//52 39//52 35//52
f 35//52 31//52 27//52
f 27//52 23//52 19//52
f 19//52 15//52 11//52
f 11//52 3//52 91//52
f 91//52 83//52 75//52
f 75//52 67//52 59//52
f 59//52 51//52 43//52
f 43//52 35//52 27//52
f 27//52 19//52 11//52
f 11//52 91//52 75//52
f 75//52 59//52 43//52
f 43//52 27//52 11//52
f 8//53 12//53 10//53
f 12//54 16//54 14//54
f 16//123 20//123 18//123
f 18//56 20//56 24//56
f 24//57 28//57 26//57
f 26//58 28//58 32//58
f 32//59 36//59 34//59
f 36//60 40//60 38//60
f 40//124 44//124 42//124
f 44//62 48//62 46//62
f 48//63 52//63 50//63
f 52//64 56//64 54//64
f 56//65 60//65 58//65
f 60//125 64//125 62//125
f 64//67 68//67 66//67
f 68//68 72//68 70//68
f 72//69 76//69 74//69
f 76//70 80//70 78//70
f 80//71 84//71 82//71
f 84//126 88//126 86//126
f 88//73 92//73 90//73
f 92//74 96//74 94//74
f 97//127 100//127 101//127
f 98//128 102//128 101//128
f 99//129 103//129 101//129
f 104//130 107//130 108//130
f 105//131 109//131 108//131
f 106//132 110//132 108//132
f 111//133 114//133 115//133
f 112//134 116//134 115//134
f 113//135 117//135 115//135
f 118//136 121//136 122//136
f 119//137 123//137 122//137
f 120//138 124//138 122//138
f 125//139 128//139 129//139
f 126//140 130//140 129//140
f 127//141 131//141 129//141
f 132//142 135//142 136//142
f 133//143 137//143 136//143
f 134//144 138//144 136//144
f 139//145 142//145 143//145
f 140//146 144//146 143//146
f 141//147 145//147 143//147
f 146//148 149//148 150//148
f 147//149 151//149 150//149
f 148//150 152//150 150//150
f 97//99 103//99 114//99
f 103//100 99//100 112//100
f 104//101 110//101 102//101
f 110//102 106//102 99//102
f 118//103 124//103 109//103
f 124//104 120//104 106//104
f 113//105 116//105 123//105
f 116//106 112//106 120//106
f 111//56 117//56 142//56
f 117//53 113//53 140//53
f 146//71 152//71 121//71
f 152//74 148//74 119//74
f 141//107 144//107 151//107
f 144//108 140//108 148//108
f 139//109 145//109 128//109
f 145//110 141//110 126//110
f 132//111 138//111 149//111
f 138//112 134//112 147//112
f 127//113 130//113 137//113
f 130//114 126//114 134//114
f 125//59 131//59 100//59
f 131//62 127//62 98//62
f 105//68 107//68 135//68
f 107//65 104//65 133//65
f 139//115 125//115 97//115
f 106//49 120//49 112//49
f 133//116 104//116 98//116
f 118//117 105//117 132//117
f 119//118 148//118 140//118
f 147//52 134//52 126//52
