# Blender 5.2.2 LTS
# www.blender.org
o export_hood
v 0.305000 0.301000 0.035000
v 0.305000 0.300000 0.036000
v 0.304000 0.301000 0.036000
v 0.305000 0.300293 0.035293
v 0.304423 0.300423 0.035423
v 0.304293 0.300293 0.036000
v 0.304293 0.301000 0.035293
v 0.305000 0.300000 0.139000
v 0.305000 0.301000 0.140000
v 0.304000 0.301000 0.139000
v 0.305000 0.300293 0.139707
v 0.304423 0.300423 0.139577
v 0.304293 0.301000 0.139707
v 0.304293 0.300293 0.139000
v 0.305000 0.424000 0.035000
v 0.304000 0.424000 0.036000
v 0.305000 0.425000 0.036000
v 0.304293 0.424000 0.035293
v 0.304423 0.424577 0.035423
v 0.304293 0.424707 0.036000
v 0.305000 0.424707 0.035293
v 0.305000 0.424000 0.140000
v 0.305000 0.425000 0.139000
v 0.304000 0.424000 0.139000
v 0.305000 0.424707 0.139707
v 0.304423 0.424577 0.139577
v 0.304293 0.424707 0.139000
v 0.304293 0.424000 0.139707
v 0.307000 0.301000 0.035000
v 0.308000 0.301000 0.036000
v 0.307000 0.300000 0.036000
v 0.307707 0.301000 0.035293
v 0.307577 0.300423 0.035423
v 0.307707 0.300293 0.036000
v 0.307000 0.300293 0.035293
v 0.307000 0.301000 0.140000
v 0.307000 0.300000 0.139000
v 0.308000 0.301000 0.139000
v 0.307000 0.300293 0.139707
v 0.307577 0.300423 0.139577
v 0.307707 0.300293 0.139000
v 0.307707 0.301000 0.139707
v 0.307000 0.424000 0.035000
v 0.307000 0.425000 0.036000
v 0.308000 0.424000 0.036000
v 0.307000 0.424707 0.035293
v 0.307577 0.424577 0.035423
v 0.307707 0.424707 0.036000
v 0.307707 0.424000 0.035293
v 0.307000 0.424000 0.140000
v 0.308000 0.424000 0.139000
v 0.307000 0.425000 0.139000
v 0.307707 0.424000 0.139707
v 0.307577 0.424577 0.139577
v 0.307707 0.424707 0.139000
v 0.307000 0.424707 0.139707
v 0.193000 0.301000 0.035000
v 0.193000 0.300000 0.036000
v 0.192000 0.301000 0.036000
v 0.193000 0.300293 0.035293
v 0.192423 0.300423 0.035423
v 0.192293 0.300293 0.036000
v 0.192293 0.301000 0.035293
v 0.193000 0.300000 0.139000
v 0.193000 0.301000 0.140000
v 0.192000 0.301000 0.139000
v 0.193000 0.300293 0.139707
v 0.192423 0.300423 0.139577
v 0.192293 0.301000 0.139707
v 0.192293 0.300293 0.139000
v 0.193000 0.424000 0.035000
v 0.192000 0.424000 0.036000
v 0.193000 0.425000 0.036000
v 0.192293 0.424000 0.035293
v 0.192423 0.424577 0.035423
v 0.192293 0.424707 0.036000
v 0.193000 0.424707 0.035293
v 0.193000 0.424000 0.140000
v 0.193000 0.425000 0.139000
v 0.192000 0.424000 0.139000
v 0.193000 0.424707 0.139707
v 0.192423 0.424577 0.139577
v 0.192293 0.424707 0.139000
v 0.192293 0.424000 0.139707
v 0.195000 0.301000 0.035000
v 0.196000 0.301000 0.036000
v 0.195000 0.300000 0.036000
v 0.195707 0.301000 0.035293
v 0.195577 0.300423 0.035423
v 0.195707 0.300293 0.036000
v 0.195000 0.300293 0.035293
v 0.195000 0.301000 0.140000
v 0.195000 0.300000 0.139000
v 0.196000 0.301000 0.139000
v 0.195000 0.300293 0.139707
v 0.195577 0.300423 0.139577
v 0.195707 0.300293 0.139000
v 0.195707 0.301000 0.139707
v 0.195000 0.424000 0.035000
v 0.195000 0.425000 0.036000
v 0.196000 0.424000 0.036000
v 0.195000 0.424707 0.035293
v 0.195577 0.424577 0.035423
v 0.195707 0.424707 0.036000
v 0.195707 0.424000 0.035293
v 0.195000 0.424000 0.140000
v 0.196000 0.424000 0.139000
v 0.195000 0.425000 0.139000
v 0.195707 0.424000 0.139707
v 0.195577 0.424577 0.139577
v 0.195707 0.424707 0.139000
v 0.195000 0.424707 0.139707
v 0.190000 0.301000 0.140000
v 0.190000 0.300000 0.141000
v 0.189000 0.301000 0.141000
v 0.190000 0.300293 0.140293
v 0.189423 0.300423 0.140423
v 0.189293 0.300293 0.141000
v 0.189293 0.301000 0.140293
v 0.190000 0.300000 0.143000
v 0.190000 0.301000 0.144000
v 0.189000 0.301000 0.143000
v 0.190000 0.300293 0.143707
v 0.189423 0.300423 0.143577
v 0.189293 0.301000 0.143707
v 0.189293 0.300293 0.143000
v 0.190000 0.424000 0.140000
v 0.189000 0.424000 0.141000
v 0.190000 0.425000 0.141000
v 0.189293 0.424000 0.140293
v 0.189423 0.424577 0.140423
v 0.189293 0.424707 0.141000
v 0.190000 0.424707 0.140293
v 0.190000 0.424000 0.144000
v 0.190000 0.425000 0.143000
v 0.189000 0.424000 0.143000
v 0.190000 0.424707 0.143707
v 0.189423 0.424577 0.143577
v 0.189293 0.424707 0.143000
v 0.189293 0.424000 0.143707
v 0.310000 0.301000 0.140000
v 0.311000 0.301000 0.141000
v 0.310000 0.300000 0.141000
v 0.310707 0.301000 0.140293
v 0.310577 0.300423 0.140423
v 0.310707 0.300293 0.141000
v 0.310000 0.300293 0.140293
v 0.310000 0.301000 0.144000
v 0.310000 0.300000 0.143000
v 0.311000 0.301000 0.143000
v 0.310000 0.300293 0.143707
v 0.310577 0.300423 0.143577
v 0.310707 0.300293 0.143000
v 0.310707 0.301000 0.143707
v 0.310000 0.424000 0.140000
v 0.310000 0.425000 0.141000
v 0.311000 0.424000 0.141000
v 0.310000 0.424707 0.140293
v 0.310577 0.424577 0.140423
v 0.310707 0.424707 0.141000
v 0.310707 0.424000 0.140293
v 0.310000 0.424000 0.144000
v 0.311000 0.424000 0.143000
v 0.310000 0.425000 0.143000
v 0.310707 0.424000 0.143707
v 0.310577 0.424577 0.143577
v 0.310707 0.424707 0.143000
v 0.310000 0.424707 0.143707
v 0.197000 0.422000 0.070000
v 0.197000 0.421000 0.071000
v 0.196000 0.422000 0.071000
v 0.197000 0.421293 0.070293
v 0.196423 0.421423 0.070423
v 0.196293 0.421293 0.071000
v 0.196293 0.422000 0.070293
v 0.197000 0.421000 0.139000
v 0.197000 0.422000 0.140000
v 0.196000 0.422000 0.139000
v 0.197000 0.421293 0.139707
v 0.196423 0.421423 0.139577
v 0.196293 0.422000 0.139707
v 0.196293 0.421293 0.139000
v 0.197000 0.424000 0.070000
v 0.196000 0.424000 0.071000
v 0.197000 0.425000 0.071000
v 0.196293 0.424000 0.070293
v 0.196423 0.424577 0.070423
v 0.196293 0.424707 0.071000
v 0.197000 0.424707 0.070293
v 0.197000 0.424000 0.140000
v 0.197000 0.425000 0.139000
v 0.196000 0.424000 0.139000
v 0.197000 0.424707 0.139707
v 0.196423 0.424577 0.139577
v 0.196293 0.424707 0.139000
v 0.196293 0.424000 0.139707
v 0.303000 0.422000 0.070000
v 0.304000 0.422000 0.071000
v 0.303000 0.421000 0.071000
v 0.303707 0.422000 0.070293
v 0.303577 0.421423 0.070423
v 0.303707 0.421293 0.071000
v 0.303000 0.421293 0.070293
v 0.303000 0.422000 0.140000
v 0.303000 0.421000 0.139000
v 0.304000 0.422000 0.139000
v 0.303000 0.421293 0.139707
v 0.303577 0.421423 0.139577
v 0.303707 0.421293 0.139000
v 0.303707 0.422000 0.139707
v 0.303000 0.424000 0.070000
v 0.303000 0.425000 0.071000
v 0.304000 0.424000 0.071000
v 0.303000 0.424707 0.070293
v 0.303577 0.424577 0.070423
v 0.303707 0.424707 0.071000
v 0.303707 0.424000 0.070293
v 0.303000 0.424000 0.140000
v 0.304000 0.424000 0.139000
v 0.303000 0.425000 0.139000
v 0.303707 0.424000 0.139707
v 0.303577 0.424577 0.139577
v 0.303707 0.424707 0.139000
v 0.303000 0.424707 0.139707
vn -0.3672 -0.2818 -0.8865
vn -0.2818 -0.8864 -0.3672
vn -0.8864 -0.3672 -0.2817
vn -0.3672 -0.8865 0.2817
vn -0.2817 -0.3672 0.8864
vn -0.8864 -0.2818 0.3672
vn -0.2818 0.3672 -0.8864
vn -0.8865 0.2817 -0.3672
vn -0.3672 0.8865 -0.2817
vn -0.3672 0.2818 0.8864
vn -0.2818 0.8864 0.3673
vn -0.8864 0.3672 0.2818
vn 0.2818 -0.3672 -0.8865
vn 0.8864 -0.2818 -0.3672
vn 0.3672 -0.8865 -0.2817
vn 0.3672 -0.2818 0.8865
vn 0.2818 -0.8864 0.3672
vn 0.8864 -0.3672 0.2817
vn 0.3672 0.2818 -0.8864
vn 0.2817 0.8864 -0.3673
vn 0.8865 0.3672 -0.2818
vn 0.2818 0.3672 0.8864
vn 0.8865 0.2817 0.3672
vn 0.3672 0.8865 0.2817
vn -0.3827 -0.0000 -0.9239
vn -0.9239 -0.0000 -0.3827
vn -0.3827 -0.9239 -0.0000
vn -0.9239 -0.3827 -0.0000
vn -0.3827 -0.0000 0.9239
vn -0.9239 -0.0000 0.3827
vn -0.3827 0.9239 -0.0000
vn -0.9239 0.3827 -0.0000
vn -0.0000 0.3827 -0.9239
vn -0.0000 0.9239 -0.3827
vn -0.0000 0.3827 0.9239
vn -0.0000 0.9239 0.3827
vn 0.9239 0.3827 -0.0000
vn 0.3827 0.9239 -0.0000
vn 0.3827 -0.0000 -0.9239
vn 0.9239 -0.0000 -0.3827
vn 0.3827 -0.0000 0.9239
vn 0.9239 -0.0000 0.3827
vn 0.3827 -0.9239 -0.0000
vn 0.9239 -0.3827 -0.0000
vn -0.0000 -0.3827 -0.9239
vn -0.0000 -0.9239 -0.3827
vn -0.0000 -0.3827 0.9239
vn -0.0000 -0.9239 0.3827
vn -0.0000 -0.0000 -1.0000
vn -1.0000 -0.0000 -0.0000
vn -0.0000 -1.0000 -0.0000
vn -0.0000 -0.0000 1.0000
vn -0.0000 1.0000 -0.0000
vn 1.0000 -0.0000 -0.0000
vn -0.3672 -0.2818 -0.8864
vn -0.2818 -0.8865 -0.3672
vn -0.3672 -0.8864 0.2818
vn -0.8864 -0.2817 0.3672
vn -0.2817 0.3672 -0.8865
vn -0.3672 0.8864 -0.2818
vn -0.2818 0.8865 0.3672
vn 0.2817 -0.3672 -0.8864
vn 0.3672 -0.8864 -0.2818
vn 0.3672 -0.2818 0.8864
vn 0.2817 -0.8865 0.3671
vn 0.3672 0.2817 -0.8864
vn 0.2817 0.8865 -0.3671
vn 0.8864 0.3672 -0.2818
vn 0.2817 0.3672 0.8865
vn 0.3672 0.8864 0.2818
vn -0.2818 -0.3672 0.8865
vn -0.3672 0.8865 -0.2818
vn 0.2817 -0.3672 -0.8865
vn 0.8865 -0.2816 -0.3672
vn 0.2817 -0.8864 0.3672
vn 0.8865 -0.3672 0.2817
vn 0.8865 0.3672 -0.2817
vn 0.8865 0.2816 0.3672
vn 0.3672 0.8865 0.2816
vn -0.3672 -0.2817 -0.8865
vn -0.8865 -0.3672 -0.2817
vn -0.2818 -0.3672 0.8864
vn -0.8865 -0.2817 0.3672
vn -0.2818 0.3672 -0.8865
vn -0.8864 0.2817 -0.3672
vn -0.8865 0.3672 0.2817
vn 0.2818 -0.3672 -0.8864
vn 0.3671 -0.2817 0.8865
vn 0.2817 -0.8865 0.3672
vn 0.8865 -0.3671 0.2817
vn 0.3672 0.2817 -0.8865
vn 0.2817 0.8864 -0.3672
vn 0.8865 0.3671 -0.2817
vn 0.8864 0.2818 0.3672
vn 0.9239 -0.0000 0.3826
vn -0.2817 -0.3672 -0.8864
vn -0.3672 -0.8865 -0.2817
vn -0.8865 -0.2817 -0.3672
vn -0.2818 -0.8864 0.3672
vn -0.3672 -0.2818 0.8865
vn -0.8865 -0.3672 0.2817
vn -0.3672 0.2818 -0.8864
vn -0.8864 0.3672 -0.2818
vn -0.2818 0.8864 -0.3673
vn -0.2818 0.3672 0.8864
vn -0.3672 0.8865 0.2817
vn -0.8864 0.2818 0.3672
vn 0.3672 -0.2818 -0.8864
vn 0.8865 -0.3672 -0.2817
vn 0.2818 -0.8864 -0.3672
vn 0.2817 -0.3672 0.8864
vn 0.3672 -0.8865 0.2817
vn 0.8865 -0.2817 0.3672
vn 0.2818 0.3672 -0.8864
vn 0.3672 0.8865 -0.2817
vn 0.8864 0.2818 -0.3672
vn 0.3672 0.2818 0.8864
vn 0.8864 0.3672 0.2818
vn 0.2818 0.8864 0.3673
vn -0.3672 -0.8864 -0.2818
vn -0.8864 -0.2817 -0.3672
vn -0.2818 -0.8865 0.3672
vn -0.3672 -0.2818 0.8864
vn -0.8864 -0.3672 0.2817
vn -0.2818 0.8865 -0.3672
vn -0.2817 0.3672 0.8865
vn -0.3672 0.8864 0.2818
vn -0.8865 0.2817 0.3672
vn 0.3672 -0.2817 -0.8864
vn 0.8864 -0.3672 -0.2817
vn 0.2817 -0.8865 -0.3671
vn 0.3672 -0.8864 0.2818
vn 0.8864 -0.2817 0.3672
vn 0.2817 0.3672 -0.8865
vn 0.3672 0.8864 -0.2818
vn 0.3672 0.2817 0.8865
vn 0.2817 0.8865 0.3671
vn -0.2817 -0.3672 -0.8865
vn -0.3672 0.8865 0.2818
vn 0.2818 -0.3672 0.8865
vn 0.8865 -0.2816 0.3672
vn 0.3672 0.8865 -0.2816
vn 0.8865 0.2816 -0.3672
vn 0.8865 0.3672 0.2817
vn 0.2817 0.8864 0.3673
vn -0.2818 -0.3672 -0.8864
vn -0.3672 -0.2817 0.8865
vn -0.8865 0.3672 -0.2817
vn -0.8864 0.2817 0.3672
vn 0.3671 -0.2817 -0.8865
vn 0.8865 -0.3671 -0.2817
vn 0.2817 -0.8865 -0.3672
vn 0.8864 -0.2818 0.3672
vn 0.8865 0.3671 0.2817
vn 0.2817 0.8864 0.3672
vn -0.0000 -0.9238 -0.3828
vn -0.0000 -0.9238 0.3828
s 0
f 1//1 5//1 7//1
f 2//2 5//2 4//2
f 3//3 5//3 6//3
f 8//4 12//4 14//4
f 9//5 12//5 11//5
f 10//6 12//6 13//6
f 15//7 19//7 21//7
f 16//8 19//8 18//8
f 17//9 19//9 20//9
f 22//10 26//10 28//10
f 23//11 26//11 25//11
f 24//12 26//12 27//12
f 29//13 33//13 35//13
f 30//14 33//14 32//14
f 31//15 33//15 34//15
f 36//16 40//16 42//16
f 37//17 40//17 39//17
f 38//18 40//18 41//18
f 43//19 47//19 49//19
f 44//20 47//20 46//20
f 45//21 47//21 48//21
f 50//22 54//22 56//22
f 51//23 54//23 53//23
f 52//24 54//24 55//24
f 1//25 18//25 15//25
f 7//26 16//26 18//26
f 8//27 6//27 2//27
f 14//28 3//28 6//28
f 22//29 13//29 9//29
f 28//30 10//30 13//30
f 17//31 27//31 23//31
f 20//32 24//32 27//32
f 15//33 46//33 43//33
f 21//34 44//34 46//34
f 50//35 25//35 22//35
f 56//36 23//36 25//36
f 45//37 55//37 51//37
f 48//38 52//38 55//38
f 43//39 32//39 29//39
f 49//40 30//40 32//40
f 36//41 53//41 50//41
f 42//42 51//42 53//42
f 31//43 41//43 37//43
f 34//44 38//44 41//44
f 29//45 4//45 1//45
f 35//46 2//46 4//46
f 9//47 39//47 36//47
f 11//48 37//48 39//48
f 43//49 1//49 15//49
f 10//50 16//50 3//50
f 37//51 2//51 31//51
f 22//52 36//52 50//52
f 23//53 44//53 17//53
f 51//54 30//54 45//54
f 57//55 61//55 63//55
f 58//56 61//56 60//56
f 59//3 61//3 62//3
f 64//57 68//57 70//57
f 65//5 68//5 67//5
f 66//58 68//58 69//58
f 71//59 75//59 77//59
f 72//8 75//8 74//8
f 73//60 75//60 76//60
f 78//10 82//10 84//10
f 79//61 82//61 81//61
f 80//12 82//12 83//12
f 85//62 89//62 91//62
f 86//14 89//14 88//14
f 87//63 89//63 90//63
f 92//64 96//64 98//64
f 93//65 96//65 95//65
f 94//18 96//18 97//18
f 99//66 103//66 105//66
f 100//67 103//67 102//67
f 101//68 103//68 104//68
f 106//69 110//69 112//69
f 107//23 110//23 109//23
f 108//70 110//70 111//70
f 57//25 74//25 71//25
f 63//26 72//26 74//26
f 64//27 62//27 58//27
f 70//28 59//28 62//28
f 78//29 69//29 65//29
f 84//30 66//30 69//30
f 73//31 83//31 79//31
f 76//32 80//32 83//32
f 71//33 102//33 99//33
f 77//34 100//34 102//34
f 106//35 81//35 78//35
f 112//36 79//36 81//36
f 101//37 111//37 107//37
f 104//38 108//38 111//38
f 99//39 88//39 85//39
f 105//40 86//40 88//40
f 92//41 109//41 106//41
f 98//42 107//42 109//42
f 87//43 97//43 93//43
f 90//44 94//44 97//44
f 85//45 60//45 57//45
f 91//46 58//46 60//46
f 65//47 95//47 92//47
f 67//48 93//48 95//48
f 99//49 57//49 71//49
f 66//50 72//50 59//50
f 93//51 58//51 87//51
f 78//52 92//52 106//52
f 79//53 100//53 73//53
f 107//54 86//54 101//54
f 113//55 117//55 119//55
f 114//56 117//56 116//56
f 115//3 117//3 118//3
f 120//57 124//57 126//57
f 121//71 124//71 123//71
f 122//58 124//58 125//58
f 127//59 131//59 133//59
f 128//8 131//8 130//8
f 129//72 131//72 132//72
f 134//10 138//10 140//10
f 135//61 138//61 137//61
f 136//12 138//12 139//12
f 141//73 145//73 147//73
f 142//74 145//74 144//74
f 143//15 145//15 146//15
f 148//64 152//64 154//64
f 149//75 152//75 151//75
f 150//76 152//76 153//76
f 155//19 159//19 161//19
f 156//20 159//20 158//20
f 157//77 159//77 160//77
f 162//22 166//22 168//22
f 163//78 166//78 165//78
f 164//79 166//79 167//79
f 113//25 130//25 127//25
f 119//26 128//26 130//26
f 120//27 118//27 114//27
f 126//28 115//28 118//28
f 134//29 125//29 121//29
f 140//30 122//30 125//30
f 129//31 139//31 135//31
f 132//32 136//32 139//32
f 127//33 158//33 155//33
f 133//34 156//34 158//34
f 162//35 137//35 134//35
f 168//36 135//36 137//36
f 157//37 167//37 163//37
f 160//38 164//38 167//38
f 155//39 144//39 141//39
f 161//40 142//40 144//40
f 148//41 165//41 162//41
f 154//42 163//42 165//42
f 143//43 153//43 149//43
f 146//44 150//44 153//44
f 141//45 116//45 113//45
f 147//46 114//46 116//46
f 121//47 151//47 148//47
f 123//48 149//48 151//48
f 155//49 113//49 127//49
f 122//50 128//50 115//50
f 149//51 114//51 143//51
f 134//52 148//52 162//52
f 135//53 156//53 129//53
f 163//54 142//54 157//54
f 169//80 173//80 175//80
f 170//56 173//56 172//56
f 171//81 173//81 174//81
f 176//57 180//57 182//57
f 177//82 180//82 179//82
f 178//83 180//83 181//83
f 183//84 187//84 189//84
f 184//85 187//85 186//85
f 185//9 187//9 188//9
f 190//10 194//10 196//10
f 191//61 194//61 193//61
f 192//86 194//86 195//86
f 197//87 201//87 203//87
f 198//14 201//14 200//14
f 199//15 201//15 202//15
f 204//88 208//88 210//88
f 205//89 208//89 207//89
f 206//90 208//90 209//90
f 211//91 215//91 217//91
f 212//92 215//92 214//92
f 213//93 215//93 216//93
f 218//22 222//22 224//22
f 219//94 222//94 221//94
f 220//70 222//70 223//70
f 169//25 186//25 183//25
f 175//26 184//26 186//26
f 176//27 174//27 170//27
f 182//28 171//28 174//28
f 190//29 181//29 177//29
f 196//30 178//30 181//30
f 185//31 195//31 191//31
f 188//32 192//32 195//32
f 183//33 214//33 211//33
f 189//34 212//34 214//34
f 218//35 193//35 190//35
f 224//36 191//36 193//36
f 213//37 223//37 219//37
f 216//38 220//38 223//38
f 211//39 200//39 197//39
f 217//40 198//40 200//40
f 204//41 221//41 218//41
f 210//95 219//95 221//95
f 199//43 209//43 205//43
f 202//44 206//44 209//44
f 197//45 172//45 169//45
f 203//46 170//46 172//46
f 177//47 207//47 204//47
f 179//48 205//48 207//48
f 211//49 169//49 183//49
f 178//50 184//50 171//50
f 205//51 170//51 199//51
f 190//52 204//52 218//52
f 191//53 212//53 185//53
f 219//54 198//54 213//54
f 1//96 4//96 5//96
f 2//97 6//97 5//97
f 3//98 7//98 5//98
f 8//99 11//99 12//99
f 9//100 13//100 12//100
f 10//101 14//101 12//101
f 15//102 18//102 19//102
f 16//103 20//103 19//103
f 17//104 21//104 19//104
f 22//105 25//105 26//105
f 23//106 27//106 26//106
f 24//107 28//107 26//107
f 29//108 32//108 33//108
f 30//109 34//109 33//109
f 31//110 35//110 33//110
f 36//111 39//111 40//111
f 37//112 41//112 40//112
f 38//113 42//113 40//113
f 43//114 46//114 47//114
f 44//115 48//115 47//115
f 45//116 49//116 47//116
f 50//117 53//117 54//117
f 51//118 55//118 54//118
f 52//119 56//119 54//119
f 1//25 7//25 18//25
f 7//26 3//26 16//26
f 8//27 14//27 6//27
f 14//28 10//28 3//28
f 22//29 28//29 13//29
f 28//30 24//30 10//30
f 17//31 20//31 27//31
f 20//32 16//32 24//32
f 15//33 21//33 46//33
f 21//34 17//34 44//34
f 50//35 56//35 25//35
f 56//36 52//36 23//36
f 45//37 48//37 55//37
f 48//38 44//38 52//38
f 43//39 49//39 32//39
f 49//40 45//40 30//40
f 36//41 42//41 53//41
f 42//42 38//42 51//42
f 31//43 34//43 41//43
f 34//44 30//44 38//44
f 29//45 35//45 4//45
f 35//46 31//46 2//46
f 9//47 11//47 39//47
f 11//48 8//48 37//48
f 43//49 29//49 1//49
f 10//50 24//50 16//50
f 37//51 8//51 2//51
f 22//52 9//52 36//52
f 23//53 52//53 44//53
f 51//54 38//54 30//54
f 57//96 60//96 61//96
f 58//120 62//120 61//120
f 59//121 63//121 61//121
f 64//122 67//122 68//122
f 65//123 69//123 68//123
f 66//124 70//124 68//124
f 71//102 74//102 75//102
f 72//103 76//103 75//103
f 73//125 77//125 75//125
f 78//126 81//126 82//126
f 79//127 83//127 82//127
f 80//128 84//128 82//128
f 85//129 88//129 89//129
f 86//130 90//130 89//130
f 87//131 91//131 89//131
f 92//111 95//111 96//111
f 93//132 97//132 96//132
f 94//133 98//133 96//133
f 99//134 102//134 103//134
f 100//135 104//135 103//135
f 101//116 105//116 103//116
f 106//136 109//136 110//136
f 107//118 111//118 110//118
f 108//137 112//137 110//137
f 57//25 63//25 74//25
f 63//26 59//26 72//26
f 64//27 70//27 62//27
f 70//28 66//28 59//28
f 78//29 84//29 69//29
f 84//30 80//30 66//30
f 73//31 76//31 83//31
f 76//32 72//32 80//32
f 71//33 77//33 102//33
f 77//34 73//34 100//34
f 106//35 112//35 81//35
f 112//36 108//36 79//36
f 101//37 104//37 111//37
f 104//38 100//38 108//38
f 99//39 105//39 88//39
f 105//40 101//40 86//40
f 92//41 98//41 109//41
f 98//42 94//42 107//42
f 87//43 90//43 97//43
f 90//44 86//44 94//44
f 85//45 91//45 60//45
f 91//46 87//46 58//46
f 65//47 67//47 95//47
f 67//48 64//48 93//48
f 99//49 85//49 57//49
f 66//50 80//50 72//50
f 93//51 64//51 58//51
f 78//52 65//52 92//52
f 79//53 108//53 100//53
f 107//54 94//54 86//54
f 113//138 116//138 117//138
f 114//120 118//120 117//120
f 115//121 119//121 117//121
f 120//122 123//122 124//122
f 121//123 125//123 124//123
f 122//124 126//124 124//124
f 127//102 130//102 131//102
f 128//103 132//103 131//103
f 129//125 133//125 131//125
f 134//126 137//126 138//126
f 135//139 139//139 138//139
f 136//128 140//128 138//128
f 141//108 144//108 145//108
f 142//109 146//109 145//109
f 143//110 147//110 145//110
f 148//140 151//140 152//140
f 149//112 153//112 152//112
f 150//141 154//141 152//141
f 155//114 158//114 159//114
f 156//142 160//142 159//142
f 157//143 161//143 159//143
f 162//117 165//117 166//117
f 163//144 167//144 166//144
f 164//145 168//145 166//145
f 113//25 119//25 130//25
f 119//26 115//26 128//26
f 120//27 126//27 118//27
f 126//28 122//28 115//28
f 134//29 140//29 125//29
f 140//30 136//30 122//30
f 129//31 132//31 139//31
f 132//32 128//32 136//32
f 127//33 133//33 158//33
f 133//34 129//34 156//34
f 162//35 168//35 137//35
f 168//36 164//36 135//36
f 157//37 160//37 167//37
f 160//38 156//38 164//38
f 155//39 161//39 144//39
f 161//40 157//40 142//40
f 148//41 154//41 165//41
f 154//42 150//42 163//42
f 143//43 146//43 153//43
f 146//44 142//44 150//44
f 141//45 147//45 116//45
f 147//46 143//46 114//46
f 121//47 123//47 151//47
f 123//48 120//48 149//48
f 155//49 141//49 113//49
f 122//50 136//50 128//50
f 149//51 120//51 114//51
f 134//52 121//52 148//52
f 135//53 164//53 156//53
f 163//54 150//54 142//54
f 169//146 172//146 173//146
f 170//120 174//120 173//120
f 171//98 175//98 173//98
f 176//122 179//122 180//122
f 177//147 181//147 180//147
f 178//124 182//124 180//124
f 183//102 186//102 187//102
f 184//148 188//148 187//148
f 185//125 189//125 187//125
f 190//126 193//126 194//126
f 191//139 195//139 194//139
f 192//149 196//149 194//149
f 197//150 200//150 201//150
f 198//151 202//151 201//151
f 199//152 203//152 201//152
f 204//111 207//111 208//111
f 205//112 209//112 208//112
f 206//153 210//153 208//153
f 211//114 214//114 215//114
f 212//135 216//135 215//135
f 213//116 217//116 215//116
f 218//136 221//136 222//136
f 219//154 223//154 222//154
f 220//155 224//155 222//155
f 169//25 175//25 186//25
f 175//26 171//26 184//26
f 176//27 182//27 174//27
f 182//28 178//28 171//28
f 190//29 196//29 181//29
f 196//30 192//30 178//30
f 185//31 188//31 195//31
f 188//32 184//32 192//32
f 183//33 189//33 214//33
f 189//34 185//34 212//34
f 218//35 224//35 193//35
f 224//36 220//36 191//36
f 213//37 216//37 223//37
f 216//38 212//38 220//38
f 211//39 217//39 200//39
f 217//40 213//40 198//40
f 204//41 210//41 221//41
f 210//42 206//42 219//42
f 199//43 202//43 209//43
f 202//44 198//44 206//44
f 197//45 203//45 172//45
f 203//156 199//156 170//156
f 177//47 179//47 207//47
f 179//157 176//157 205//157
f 211//49 197//49 169//49
f 178//50 192//50 184//50
f 205//51 176//51 170//51
f 190//52 177//52 204//52
f 191//53 220//53 212//53
f 219//54 206//54 198//54
