# Blender 5.2.2 LTS
# www.blender.org
o export_rollers
v 0.210000 -0.394009 0.048000
v 0.211000 -0.393000 0.048000
v 0.290000 -0.394009 0.048000
v 0.289000 -0.393000 0.048000
v 0.210000 -0.394383 0.045155
v 0.211000 -0.393409 0.044894
v 0.290000 -0.394383 0.045155
v 0.289000 -0.393409 0.044894
v 0.210000 -0.395481 0.042504
v 0.211000 -0.394608 0.042000
v 0.290000 -0.395481 0.042504
v 0.289000 -0.394608 0.042000
v 0.210000 -0.397228 0.040228
v 0.211000 -0.396515 0.039515
v 0.290000 -0.397228 0.040228
v 0.289000 -0.396515 0.039515
v 0.210000 -0.399504 0.038481
v 0.211000 -0.399000 0.037608
v 0.290000 -0.399504 0.038481
v 0.289000 -0.399000 0.037608
v 0.210000 -0.402155 0.037383
v 0.211000 -0.401894 0.036409
v 0.290000 -0.402155 0.037383
v 0.289000 -0.401894 0.036409
v 0.210000 -0.405000 0.037009
v 0.211000 -0.405000 0.036000
v 0.290000 -0.405000 0.037009
v 0.289000 -0.405000 0.036000
v 0.210000 -0.407845 0.037383
v 0.211000 -0.408106 0.036409
v 0.290000 -0.407845 0.037383
v 0.289000 -0.408106 0.036409
v 0.210000 -0.410496 0.038481
v 0.211000 -0.411000 0.037608
v 0.290000 -0.410496 0.038481
v 0.289000 -0.411000 0.037608
v 0.210000 -0.412772 0.040228
v 0.211000 -0.413485 0.039515
v 0.290000 -0.412772 0.040228
v 0.289000 -0.413485 0.039515
v 0.210000 -0.414519 0.042504
v 0.211000 -0.415392 0.042000
v 0.290000 -0.414519 0.042504
v 0.289000 -0.415392 0.042000
v 0.210000 -0.415617 0.045155
v 0.211000 -0.416591 0.044894
v 0.290000 -0.415617 0.045155
v 0.289000 -0.416591 0.044894
v 0.210000 -0.415991 0.048000
v 0.211000 -0.417000 0.048000
v 0.290000 -0.415991 0.048000
v 0.289000 -0.417000 0.048000
v 0.210000 -0.415617 0.050845
v 0.211000 -0.416591 0.051106
v 0.290000 -0.415617 0.050845
v 0.289000 -0.416591 0.051106
v 0.210000 -0.414519 0.053496
v 0.211000 -0.415392 0.054000
v 0.290000 -0.414519 0.053496
v 0.289000 -0.415392 0.054000
v 0.210000 -0.412772 0.055772
v 0.211000 -0.413485 0.056485
v 0.290000 -0.412772 0.055772
v 0.289000 -0.413485 0.056485
v 0.210000 -0.410496 0.057519
v 0.211000 -0.411000 0.058392
v 0.290000 -0.410496 0.057519
v 0.289000 -0.411000 0.058392
v 0.210000 -0.407845 0.058617
v 0.211000 -0.408106 0.059591
v 0.290000 -0.407845 0.058617
v 0.289000 -0.408106 0.059591
v 0.210000 -0.405000 0.058991
v 0.211000 -0.405000 0.060000
v 0.290000 -0.405000 0.058991
v 0.289000 -0.405000 0.060000
v 0.210000 -0.402155 0.058617
v 0.211000 -0.401894 0.059591
v 0.290000 -0.402155 0.058617
v 0.289000 -0.401894 0.059591
v 0.210000 -0.399504 0.057519
v 0.211000 -0.399000 0.058392
v 0.290000 -0.399504 0.057519
v 0.289000 -0.399000 0.058392
v 0.210000 -0.397228 0.055772
v 0.211000 -0.396515 0.056485
v 0.290000 -0.397228 0.055772
v 0.289000 -0.396515 0.056485
v 0.210000 -0.395481 0.053496
v 0.211000 -0.394608 0.054000
v 0.290000 -0.395481 0.053496
v 0.289000 -0.394608 0.054000
v 0.210000 -0.394383 0.050845
v 0.211000 -0.393409 0.051106
v 0.290000 -0.394383 0.050845
v 0.289000 -0.393409 0.051106
v 0.192000 -0.402035 0.048000
v 0.193000 -0.401000 0.048000
v 0.308000 -0.402035 0.048000
v 0.307000 -0.401000 0.048000
v 0.192000 -0.402432 0.046518
v 0.193000 -0.401536 0.046000
v 0.308000 -0.402432 0.046518
v 0.307000 -0.401536 0.046000
v 0.192000 -0.403518 0.045432
v 0.193000 -0.403000 0.044536
v 0.308000 -0.403518 0.045432
v 0.307000 -0.403000 0.044536
v 0.192000 -0.405000 0.045035
v 0.193000 -0.405000 0.044000
v 0.308000 -0.405000 0.045035
v 0.307000 -0.405000 0.044000
v 0.192000 -0.406482 0.045432
v 0.193000 -0.407000 0.044536
v 0.308000 -0.406482 0.045432
v 0.307000 -0.407000 0.044536
v 0.192000 -0.407568 0.046518
v 0.193000 -0.408464 0.046000
v 0.308000 -0.407568 0.046518
v 0.307000 -0.408464 0.046000
v 0.192000 -0.407965 0.048000
v 0.193000 -0.409000 0.048000
v 0.308000 -0.407965 0.048000
v 0.307000 -0.409000 0.048000
v 0.192000 -0.407568 0.049482
v 0.193000 -0.408464 0.050000
v 0.308000 -0.407568 0.049482
v 0.307000 -0.408464 0.050000
v 0.192000 -0.406482 0.050568
v 0.193000 -0.407000 0.051464
v 0.308000 -0.406482 0.050568
v 0.307000 -0.407000 0.051464
v 0.192000 -0.405000 0.050965
v 0.193000 -0.405000 0.052000
v 0.308000 -0.405000 0.050965
v 0.307000 -0.405000 0.052000
v 0.192000 -0.403518 0.050568
v 0.193000 -0.403000 0.051464
v 0.308000 -0.403518 0.050568
v 0.307000 -0.403000 0.051464
v 0.192000 -0.402432 0.049482
v 0.193000 -0.401536 0.050000
v 0.308000 -0.402432 0.049482
v 0.307000 -0.401536 0.050000
v 0.210000 0.415991 0.048000
v 0.211000 0.417000 0.048000
v 0.290000 0.415991 0.048000
v 0.289000 0.417000 0.048000
v 0.210000 0.415617 0.045155
v 0.211000 0.416591 0.044894
v 0.290000 0.415617 0.045155
v 0.289000 0.416591 0.044894
v 0.210000 0.414519 0.042504
v 0.211000 0.415392 0.042000
v 0.290000 0.414519 0.042504
v 0.289000 0.415392 0.042000
v 0.210000 0.412772 0.040228
v 0.211000 0.413485 0.039515
v 0.290000 0.412772 0.040228
v 0.289000 0.413485 0.039515
v 0.210000 0.410496 0.038481
v 0.211000 0.411000 0.037608
v 0.290000 0.410496 0.038481
v 0.289000 0.411000 0.037608
v 0.210000 0.407845 0.037383
v 0.211000 0.408106 0.036409
v 0.290000 0.407845 0.037383
v 0.289000 0.408106 0.036409
v 0.210000 0.405000 0.037009
v 0.211000 0.405000 0.036000
v 0.290000 0.405000 0.037009
v 0.289000 0.405000 0.036000
v 0.210000 0.402155 0.037383
v 0.211000 0.401894 0.036409
v 0.290000 0.402155 0.037383
v 0.289000 0.401894 0.036409
v 0.210000 0.399504 0.038481
v 0.211000 0.399000 0.037608
v 0.290000 0.399504 0.038481
v 0.289000 0.399000 0.037608
v 0.210000 0.397228 0.040228
v 0.211000 0.396515 0.039515
v 0.290000 0.397228 0.040228
v 0.289000 0.396515 0.039515
v 0.210000 0.395481 0.042504
v 0.211000 0.394608 0.042000
v 0.290000 0.395481 0.042504
v 0.289000 0.394608 0.042000
v 0.210000 0.394383 0.045155
v 0.211000 0.393409 0.044894
v 0.290000 0.394383 0.045155
v 0.289000 0.393409 0.044894
v 0.210000 0.394009 0.048000
v 0.211000 0.393000 0.048000
v 0.290000 0.394009 0.048000
v 0.289000 0.393000 0.048000
v 0.210000 0.394383 0.050845
v 0.211000 0.393409 0.051106
v 0.290000 0.394383 0.050845
v 0.289000 0.393409 0.051106
v 0.210000 0.395481 0.053496
v 0.211000 0.394608 0.054000
v 0.290000 0.395481 0.053496
v 0.289000 0.394608 0.054000
v 0.210000 0.397228 0.055772
v 0.211000 0.396515 0.056485
v 0.290000 0.397228 0.055772
v 0.289000 0.396515 0.056485
v 0.210000 0.399504 0.057519
v 0.211000 0.399000 0.058392
v 0.290000 0.399504 0.057519
v 0.289000 0.399000 0.058392
v 0.210000 0.402155 0.058617
v 0.211000 0.401894 0.059591
v 0.290000 0.402155 0.058617
v 0.289000 0.401894 0.059591
v 0.210000 0.405000 0.058991
v 0.211000 0.405000 0.060000
v 0.290000 0.405000 0.058991
v 0.289000 0.405000 0.060000
v 0.210000 0.407845 0.058617
v 0.211000 0.408106 0.059591
v 0.290000 0.407845 0.058617
v 0.289000 0.408106 0.059591
v 0.210000 0.410496 0.057519
v 0.211000 0.411000 0.058392
v 0.290000 0.410496 0.057519
v 0.289000 0.411000 0.058392
v 0.210000 0.412772 0.055772
v 0.211000 0.413485 0.056485
v 0.290000 0.412772 0.055772
v 0.289000 0.413485 0.056485
v 0.210000 0.414519 0.053496
v 0.211000 0.415392 0.054000
v 0.290000 0.414519 0.053496
v 0.289000 0.415392 0.054000
v 0.210000 0.415617 0.050845
v 0.211000 0.416591 0.051106
v 0.290000 0.415617 0.050845
v 0.289000 0.416591 0.051106
v 0.192000 0.407965 0.048000
v 0.193000 0.409000 0.048000
v 0.308000 0.407965 0.048000
v 0.307000 0.409000 0.048000
v 0.192000 0.407568 0.046518
v 0.193000 0.408464 0.046000
v 0.308000 0.407568 0.046518
v 0.307000 0.408464 0.046000
v 0.192000 0.406482 0.045432
v 0.193000 0.407000 0.044536
v 0.308000 0.406482 0.045432
v 0.307000 0.407000 0.044536
v 0.192000 0.405000 0.045035
v 0.193000 0.405000 0.044000
v 0.308000 0.405000 0.045035
v 0.307000 0.405000 0.044000
v 0.192000 0.403518 0.045432
v 0.193000 0.403000 0.044536
v 0.308000 0.403518 0.045432
v 0.307000 0.403000 0.044536
v 0.192000 0.402432 0.046518
v 0.193000 0.401536 0.046000
v 0.308000 0.402432 0.046518
v 0.307000 0.401536 0.046000
v 0.192000 0.402035 0.048000
v 0.193000 0.401000 0.048000
v 0.308000 0.402035 0.048000
v 0.307000 0.401000 0.048000
v 0.192000 0.402432 0.049482
v 0.193000 0.401536 0.050000
v 0.308000 0.402432 0.049482
v 0.307000 0.401536 0.050000
v 0.192000 0.403518 0.050568
v 0.193000 0.403000 0.051464
v 0.308000 0.403518 0.050568
v 0.307000 0.403000 0.051464
v 0.192000 0.405000 0.050965
v 0.193000 0.405000 0.052000
v 0.308000 0.405000 0.050965
v 0.307000 0.405000 0.052000
v 0.192000 0.406482 0.050568
v 0.193000 0.407000 0.051464
v 0.308000 0.406482 0.050568
v 0.307000 0.407000 0.051464
v 0.192000 0.407568 0.049482
v 0.193000 0.408464 0.050000
v 0.308000 0.407568 0.049482
v 0.307000 0.408464 0.050000
vn -0.7071 0.7010 -0.0923
vn 0.7071 0.7011 -0.0923
vn -0.7071 0.6533 -0.2706
vn 0.7071 0.6533 -0.2706
vn -0.7071 0.5610 -0.4304
vn 0.7071 0.5610 -0.4305
vn -0.7071 0.4305 -0.5610
vn 0.7071 0.4305 -0.5610
vn -0.7071 0.2706 -0.6533
vn 0.7071 0.2706 -0.6533
vn -0.7071 0.0923 -0.7011
vn 0.7071 0.0923 -0.7011
vn -0.7071 -0.0923 -0.7011
vn 0.7071 -0.0923 -0.7011
vn -0.7071 -0.2706 -0.6533
vn 0.7071 -0.2706 -0.6533
vn -0.7071 -0.4305 -0.5610
vn 0.7071 -0.4305 -0.5610
vn -0.7071 -0.5610 -0.4305
vn 0.7071 -0.5610 -0.4305
vn -0.7071 -0.6533 -0.2706
vn 0.7071 -0.6533 -0.2706
vn -0.7071 -0.7011 -0.0923
vn 0.7071 -0.7010 -0.0923
vn -0.7071 -0.7010 0.0923
vn 0.7071 -0.7010 0.0923
vn -0.7071 -0.6533 0.2706
vn 0.7071 -0.6533 0.2706
vn -0.7071 -0.5610 0.4305
vn 0.7071 -0.5610 0.4305
vn -0.7071 -0.4305 0.5610
vn 0.7071 -0.4305 0.5610
vn -0.7071 -0.2706 0.6533
vn 0.7071 -0.2706 0.6533
vn -0.7071 -0.0923 0.7011
vn 0.7071 -0.0923 0.7011
vn -0.7071 0.0923 0.7011
vn 0.7071 0.0923 0.7011
vn -0.7071 0.2706 0.6533
vn 0.7071 0.2706 0.6533
vn -0.7071 0.4305 0.5610
vn 0.7071 0.4305 0.5610
vn -0.7071 0.5610 0.4305
vn 0.7071 0.5610 0.4304
vn -0.7071 0.6533 0.2706
vn 0.7071 0.6533 0.2706
vn -0.7071 0.7011 0.0923
vn 0.7071 0.7011 0.0923
vn -1.0000 -0.0000 -0.0000
vn -0.0000 0.9914 -0.1305
vn -0.0000 0.9914 0.1305
vn 1.0000 -0.0000 -0.0000
vn -0.0000 0.9239 -0.3827
vn -0.0000 0.7933 -0.6088
vn -0.0000 0.6088 -0.7933
vn -0.0000 0.3827 -0.9239
vn -0.0000 0.1305 -0.9914
vn -0.0000 -0.1305 -0.9914
vn -0.0000 -0.3827 -0.9239
vn -0.0000 -0.6088 -0.7933
vn -0.0000 -0.7934 -0.6087
vn -0.0000 -0.9239 -0.3827
vn -0.0000 -0.9914 -0.1305
vn -0.0000 -0.9914 0.1305
vn -0.0000 -0.9239 0.3827
vn -0.0000 -0.7933 0.6088
vn -0.0000 -0.6088 0.7934
vn -0.0000 -0.3827 0.9239
vn -0.0000 -0.1305 0.9914
vn -0.0000 0.1305 0.9914
vn -0.0000 0.3827 0.9239
vn -0.0000 0.6088 0.7934
vn -0.0000 0.7934 0.6088
vn -0.0000 0.9239 0.3827
vn -0.7071 0.6830 -0.1830
vn 0.7071 0.6830 -0.1830
vn -0.7071 0.5000 -0.5000
vn 0.7071 0.5000 -0.5000
vn -0.7071 0.1830 -0.6830
vn 0.7071 0.1830 -0.6830
vn -0.7071 -0.1830 -0.6830
vn 0.7071 -0.1830 -0.6830
vn -0.7071 -0.5000 -0.5000
vn 0.7071 -0.5000 -0.5000
vn -0.7071 -0.6830 -0.1830
vn 0.7071 -0.6830 -0.1830
vn -0.7071 -0.6830 0.1830
vn 0.7071 -0.6830 0.1830
vn -0.7071 -0.5000 0.5000
vn 0.7071 -0.5000 0.5000
vn -0.7071 -0.1830 0.6830
vn 0.7071 -0.1830 0.6830
vn -0.7071 0.1830 0.6830
vn 0.7071 0.1830 0.6830
vn -0.7071 0.5000 0.5000
vn 0.7071 0.5000 0.5000
vn -0.7071 0.6830 0.1830
vn 0.7071 0.6830 0.1830
vn -0.0000 0.9659 -0.2588
vn -0.0000 0.9659 0.2588
vn -0.0000 0.7071 -0.7071
vn -0.0000 0.2588 -0.9659
vn -0.0000 -0.2588 -0.9659
vn -0.0000 -0.7071 -0.7071
vn -0.0000 -0.9659 -0.2588
vn -0.0000 -0.9659 0.2588
vn -0.0000 -0.7071 0.7071
vn -0.0000 -0.2588 0.9659
vn -0.0000 0.2588 0.9659
vn -0.0000 0.7071 0.7071
vn -0.7071 0.7011 -0.0923
vn -0.7071 0.5610 -0.4305
vn 0.7071 -0.5610 -0.4304
vn -0.7071 -0.5610 0.4304
vn 0.7071 -0.4304 0.5610
vn 0.7071 0.5610 0.4305
vn -0.0000 0.6088 -0.7934
vn -0.0000 -0.6088 -0.7934
vn -0.0000 -0.7934 -0.6088
vn -0.0000 -0.6088 0.7933
vn -0.0000 0.6088 0.7933
vn -0.0000 0.7934 0.6087
vn 0.7071 0.7010 -0.0923
vn 0.7071 0.5610 -0.4304
vn 0.7071 -0.7011 -0.0923
vn -0.7071 -0.7011 0.0923
vn 0.7071 -0.7011 0.0923
vn 0.7071 0.4304 0.5610
vn -0.7071 0.5610 0.4304
vn -0.7071 0.7010 0.0923
vn 0.7071 0.7010 0.0923
vn -1.0000 0.0001 -0.0000
vn -1.0000 -0.0001 -0.0000
vn 1.0000 0.0001 -0.0000
vn 1.0000 -0.0001 -0.0000
vn -0.0000 0.7934 -0.6088
vn -0.0000 -0.7933 -0.6088
vn -0.0000 -0.7934 0.6087
vn -0.0000 0.7933 0.6088
vn -0.7071 -0.5610 -0.4304
vn -0.7071 -0.7010 -0.0923
vn 0.7071 -0.5610 0.4304
vn -0.0000 0.7934 -0.6087
vn -0.0000 -0.7934 0.6088
s 0
f 2//1 5//1 1//1
f 4//2 7//2 8//2
f 6//3 9//3 5//3
f 8//4 11//4 12//4
f 14//5 9//5 10//5
f 16//6 11//6 15//6
f 18//7 13//7 14//7
f 20//8 15//8 19//8
f 18//9 21//9 17//9
f 20//10 23//10 24//10
f 26//11 21//11 22//11
f 28//12 23//12 27//12
f 30//13 25//13 26//13
f 32//14 27//14 31//14
f 30//15 33//15 29//15
f 36//16 31//16 35//16
f 34//17 37//17 33//17
f 40//18 35//18 39//18
f 38//19 41//19 37//19
f 40//20 43//20 44//20
f 46//21 41//21 42//21
f 44//22 47//22 48//22
f 50//23 45//23 46//23
f 48//24 51//24 52//24
f 54//25 49//25 50//25
f 56//26 51//26 55//26
f 58//27 53//27 54//27
f 60//28 55//28 59//28
f 62//29 57//29 58//29
f 64//30 59//30 63//30
f 62//31 65//31 61//31
f 68//32 63//32 67//32
f 70//33 65//33 66//33
f 72//34 67//34 71//34
f 70//35 73//35 69//35
f 72//36 75//36 76//36
f 74//37 77//37 73//37
f 76//38 79//38 80//38
f 82//39 77//39 78//39
f 84//40 79//40 83//40
f 82//41 85//41 81//41
f 88//42 83//42 87//42
f 86//43 89//43 85//43
f 88//44 91//44 92//44
f 94//45 89//45 90//45
f 96//46 91//46 95//46
f 2//47 93//47 94//47
f 96//48 3//48 4//48
f 29//49 61//49 93//49
f 4//50 6//50 2//50
f 96//51 2//51 94//51
f 75//52 43//52 11//52
f 8//53 10//53 6//53
f 12//54 14//54 10//54
f 16//55 18//55 14//55
f 20//56 22//56 18//56
f 24//57 26//57 22//57
f 28//58 30//58 26//58
f 32//59 34//59 30//59
f 36//60 38//60 34//60
f 40//61 42//61 38//61
f 44//62 46//62 42//62
f 48//63 50//63 46//63
f 52//64 54//64 50//64
f 56//65 58//65 54//65
f 60//66 62//66 58//66
f 64//67 66//67 62//67
f 68//68 70//68 66//68
f 72//69 74//69 70//69
f 76//70 78//70 74//70
f 80//71 82//71 78//71
f 84//72 86//72 82//72
f 88//73 90//73 86//73
f 92//74 94//74 90//74
f 98//75 101//75 97//75
f 100//76 103//76 104//76
f 106//77 101//77 102//77
f 104//78 107//78 108//78
f 110//79 105//79 106//79
f 108//80 111//80 112//80
f 110//81 113//81 109//81
f 116//82 111//82 115//82
f 118//83 113//83 114//83
f 120//84 115//84 119//84
f 118//85 121//85 117//85
f 124//86 119//86 123//86
f 122//87 125//87 121//87
f 124//88 127//88 128//88
f 126//89 129//89 125//89
f 128//90 131//90 132//90
f 130//91 133//91 129//91
f 136//92 131//92 135//92
f 134//93 137//93 133//93
f 140//94 135//94 139//94
f 142//95 137//95 138//95
f 144//96 139//96 143//96
f 98//97 141//97 142//97
f 100//98 143//98 99//98
f 109//49 125//49 141//49
f 100//99 102//99 98//99
f 144//100 98//100 142//100
f 139//52 123//52 107//52
f 104//101 106//101 102//101
f 108//102 110//102 106//102
f 112//103 114//103 110//103
f 116//104 118//104 114//104
f 120//105 122//105 118//105
f 124//106 126//106 122//106
f 128//107 130//107 126//107
f 132//108 134//108 130//108
f 136//109 138//109 134//109
f 140//110 142//110 138//110
f 146//111 149//111 145//111
f 152//2 147//2 151//2
f 154//3 149//3 150//3
f 156//4 151//4 155//4
f 158//112 153//112 154//112
f 160//6 155//6 159//6
f 162//7 157//7 158//7
f 160//8 163//8 164//8
f 166//9 161//9 162//9
f 164//10 167//10 168//10
f 166//11 169//11 165//11
f 168//12 171//12 172//12
f 170//13 173//13 169//13
f 172//14 175//14 176//14
f 178//15 173//15 174//15
f 180//16 175//16 179//16
f 178//17 181//17 177//17
f 180//18 183//18 184//18
f 182//19 185//19 181//19
f 184//113 187//113 188//113
f 190//21 185//21 186//21
f 192//22 187//22 191//22
f 194//23 189//23 190//23
f 196//24 191//24 195//24
f 194//25 197//25 193//25
f 200//26 195//26 199//26
f 198//27 201//27 197//27
f 200//28 203//28 204//28
f 206//114 201//114 202//114
f 208//30 203//30 207//30
f 210//31 205//31 206//31
f 208//115 211//115 212//115
f 210//33 213//33 209//33
f 212//34 215//34 216//34
f 218//35 213//35 214//35
f 220//36 215//36 219//36
f 222//37 217//37 218//37
f 224//38 219//38 223//38
f 222//39 225//39 221//39
f 224//40 227//40 228//40
f 230//41 225//41 226//41
f 228//42 231//42 232//42
f 230//43 233//43 229//43
f 232//116 235//116 236//116
f 238//45 233//45 234//45
f 236//46 239//46 240//46
f 238//47 145//47 237//47
f 240//48 147//48 148//48
f 173//49 205//49 237//49
f 148//50 150//50 146//50
f 240//51 146//51 238//51
f 219//52 187//52 155//52
f 152//53 154//53 150//53
f 156//54 158//54 154//54
f 160//117 162//117 158//117
f 164//56 166//56 162//56
f 168//57 170//57 166//57
f 172//58 174//58 170//58
f 176//59 178//59 174//59
f 180//118 182//118 178//118
f 184//119 186//119 182//119
f 188//62 190//62 186//62
f 192//63 194//63 190//63
f 196//64 198//64 194//64
f 200//65 202//65 198//65
f 204//66 206//66 202//66
f 208//120 210//120 206//120
f 212//68 214//68 210//68
f 216//69 218//69 214//69
f 220//70 222//70 218//70
f 224//71 226//71 222//71
f 228//121 230//121 226//121
f 232//122 234//122 230//122
f 236//74 238//74 234//74
f 246//75 241//75 242//75
f 244//76 247//76 248//76
f 246//77 249//77 245//77
f 248//78 251//78 252//78
f 254//79 249//79 250//79
f 256//80 251//80 255//80
f 254//81 257//81 253//81
f 260//82 255//82 259//82
f 262//83 257//83 258//83
f 264//84 259//84 263//84
f 266//85 261//85 262//85
f 268//86 263//86 267//86
f 266//87 269//87 265//87
f 268//88 271//88 272//88
f 270//89 273//89 269//89
f 276//90 271//90 275//90
f 274//91 277//91 273//91
f 280//92 275//92 279//92
f 278//93 281//93 277//93
f 284//94 279//94 283//94
f 286//95 281//95 282//95
f 288//96 283//96 287//96
f 242//97 285//97 286//97
f 244//98 287//98 243//98
f 253//49 269//49 285//49
f 244//99 246//99 242//99
f 288//100 242//100 286//100
f 283//52 267//52 251//52
f 248//101 250//101 246//101
f 252//102 254//102 250//102
f 256//103 258//103 254//103
f 260//104 262//104 258//104
f 264//105 266//105 262//105
f 268//106 270//106 266//106
f 272//107 274//107 270//107
f 276//108 278//108 274//108
f 280//109 282//109 278//109
f 284//110 286//110 282//110
f 2//111 6//111 5//111
f 4//123 3//123 7//123
f 6//3 10//3 9//3
f 8//4 7//4 11//4
f 14//112 13//112 9//112
f 16//124 12//124 11//124
f 18//7 17//7 13//7
f 20//8 16//8 15//8
f 18//9 22//9 21//9
f 20//10 19//10 23//10
f 26//11 25//11 21//11
f 28//12 24//12 23//12
f 30//13 29//13 25//13
f 32//14 28//14 27//14
f 30//15 34//15 33//15
f 36//16 32//16 31//16
f 34//17 38//17 37//17
f 40//18 36//18 35//18
f 38//19 42//19 41//19
f 40//20 39//20 43//20
f 46//21 45//21 41//21
f 44//22 43//22 47//22
f 50//23 49//23 45//23
f 48//125 47//125 51//125
f 54//126 53//126 49//126
f 56//127 52//127 51//127
f 58//27 57//27 53//27
f 60//28 56//28 55//28
f 62//29 61//29 57//29
f 64//30 60//30 59//30
f 62//31 66//31 65//31
f 68//32 64//32 63//32
f 70//33 69//33 65//33
f 72//34 68//34 67//34
f 70//35 74//35 73//35
f 72//36 71//36 75//36
f 74//37 78//37 77//37
f 76//38 75//38 79//38
f 82//39 81//39 77//39
f 84//40 80//40 79//40
f 82//41 86//41 85//41
f 88//128 84//128 83//128
f 86//129 90//129 89//129
f 88//116 87//116 91//116
f 94//45 93//45 89//45
f 96//46 92//46 91//46
f 2//130 1//130 93//130
f 96//131 95//131 3//131
f 93//132 1//132 5//132
f 5//133 9//133 13//133
f 13//49 17//49 21//49
f 21//49 25//49 29//49
f 29//49 33//49 37//49
f 37//132 41//132 45//132
f 45//133 49//133 53//133
f 53//132 57//132 61//132
f 61//49 65//49 69//49
f 69//49 73//49 77//49
f 77//49 81//49 85//49
f 85//133 89//133 93//133
f 93//49 5//49 13//49
f 13//49 21//49 29//49
f 29//49 37//49 45//49
f 45//49 53//49 61//49
f 61//49 69//49 77//49
f 77//49 85//49 93//49
f 93//49 13//49 29//49
f 29//49 45//49 61//49
f 61//49 77//49 93//49
f 4//50 8//50 6//50
f 96//51 4//51 2//51
f 11//52 7//52 3//52
f 3//134 95//134 91//134
f 91//135 87//135 83//135
f 83//52 79//52 75//52
f 75//52 71//52 67//52
f 67//134 63//134 59//134
f 59//135 55//135 51//135
f 51//52 47//52 43//52
f 43//134 39//134 35//134
f 35//52 31//52 27//52
f 27//52 23//52 19//52
f 19//135 15//135 11//135
f 11//52 3//52 91//52
f 91//52 83//52 75//52
f 75//52 67//52 59//52
f 59//52 51//52 43//52
f 43//52 35//52 27//52
f 27//52 19//52 11//52
f 11//52 91//52 75//52
f 75//52 59//52 43//52
f 43//52 27//52 11//52
f 8//53 12//53 10//53
f 12//136 16//136 14//136
f 16//117 20//117 18//117
f 20//56 24//56 22//56
f 24//57 28//57 26//57
f 28//58 32//58 30//58
f 32//59 36//59 34//59
f 36//118 40//118 38//118
f 40//137 44//137 42//137
f 44//62 48//62 46//62
f 48//63 52//63 50//63
f 52//64 56//64 54//64
f 56//65 60//65 58//65
f 60//138 64//138 62//138
f 64//120 68//120 66//120
f 68//68 72//68 70//68
f 72//69 76//69 74//69
f 76//70 80//70 78//70
f 80//71 84//71 82//71
f 84//121 88//121 86//121
f 88//139 92//139 90//139
f 92//74 96//74 94//74
f 98//75 102//75 101//75
f 100//76 99//76 103//76
f 106//77 105//77 101//77
f 104//78 103//78 107//78
f 110//79 109//79 105//79
f 108//80 107//80 111//80
f 110//81 114//81 113//81
f 116//82 112//82 111//82
f 118//83 117//83 113//83
f 120//84 116//84 115//84
f 118//85 122//85 121//85
f 124//86 120//86 119//86
f 122//87 126//87 125//87
f 124//88 123//88 127//88
f 126//89 130//89 129//89
f 128//90 127//90 131//90
f 130//91 134//91 133//91
f 136//92 132//92 131//92
f 134//93 138//93 137//93
f 140//94 136//94 135//94
f 142//95 141//95 137//95
f 144//96 140//96 139//96
f 98//97 97//97 141//97
f 100//98 144//98 143//98
f 141//49 97//49 101//49
f 101//49 105//49 109//49
f 109//49 113//49 117//49
f 117//49 121//49 125//49
f 125//49 129//49 133//49
f 133//49 137//49 141//49
f 141//49 101//49 109//49
f 109//49 117//49 125//49
f 125//49 133//49 141//49
f 100//99 104//99 102//99
f 144//100 100//100 98//100
f 107//52 103//52 99//52
f 99//52 143//52 139//52
f 139//52 135//52 131//52
f 131//52 127//52 123//52
f 123//52 119//52 115//52
f 115//52 111//52 107//52
f 107//52 99//52 139//52
f 139//52 131//52 123//52
f 123//52 115//52 107//52
f 104//101 108//101 106//101
f 108//102 112//102 110//102
f 112//103 116//103 114//103
f 116//104 120//104 118//104
f 120//105 124//105 122//105
f 124//106 128//106 126//106
f 128//107 132//107 130//107
f 132//108 136//108 134//108
f 136//109 140//109 138//109
f 140//110 144//110 142//110
f 146//111 150//111 149//111
f 152//123 148//123 147//123
f 154//3 153//3 149//3
f 156//4 152//4 151//4
f 158//112 157//112 153//112
f 160//6 156//6 155//6
f 162//7 161//7 157//7
f 160//8 159//8 163//8
f 166//9 165//9 161//9
f 164//10 163//10 167//10
f 166//11 170//11 169//11
f 168//12 167//12 171//12
f 170//13 174//13 173//13
f 172//14 171//14 175//14
f 178//15 177//15 173//15
f 180//16 176//16 175//16
f 178//17 182//17 181//17
f 180//18 179//18 183//18
f 182//140 186//140 185//140
f 184//20 183//20 187//20
f 190//21 189//21 185//21
f 192//22 188//22 187//22
f 194//141 193//141 189//141
f 196//125 192//125 191//125
f 194//126 198//126 197//126
f 200//127 196//127 195//127
f 198//27 202//27 201//27
f 200//28 199//28 203//28
f 206//29 205//29 201//29
f 208//142 204//142 203//142
f 210//31 209//31 205//31
f 208//32 207//32 211//32
f 210//33 214//33 213//33
f 212//34 211//34 215//34
f 218//35 217//35 213//35
f 220//36 216//36 215//36
f 222//37 221//37 217//37
f 224//38 220//38 219//38
f 222//39 226//39 225//39
f 224//40 223//40 227//40
f 230//41 229//41 225//41
f 228//42 227//42 231//42
f 230//43 234//43 233//43
f 232//116 231//116 235//116
f 238//45 237//45 233//45
f 236//46 235//46 239//46
f 238//130 146//130 145//130
f 240//131 239//131 147//131
f 237//132 145//132 149//132
f 149//133 153//133 157//133
f 157//49 161//49 165//49
f 165//49 169//49 173//49
f 173//49 177//49 181//49
f 181//132 185//132 189//132
f 189//133 193//133 197//133
f 197//132 201//132 205//132
f 205//49 209//49 213//49
f 213//49 217//49 221//49
f 221//49 225//49 229//49
f 229//133 233//133 237//133
f 237//49 149//49 157//49
f 157//49 165//49 173//49
f 173//49 181//49 189//49
f 189//49 197//49 205//49
f 205//49 213//49 221//49
f 221//49 229//49 237//49
f 237//49 157//49 173//49
f 173//49 189//49 205//49
f 205//49 221//49 237//49
f 148//50 152//50 150//50
f 240//51 148//51 146//51
f 155//52 151//52 147//52
f 147//134 239//134 235//134
f 235//135 231//135 227//135
f 227//52 223//52 219//52
f 219//52 215//52 211//52
f 211//134 207//134 203//134
f 203//135 199//135 195//135
f 195//52 191//52 187//52
f 187//134 183//134 179//134
f 179//52 175//52 171//52
f 171//52 167//52 163//52
f 163//135 159//135 155//135
f 155//52 147//52 235//52
f 235//52 227//52 219//52
f 219//52 211//52 203//52
f 203//52 195//52 187//52
f 187//52 179//52 171//52
f 171//52 163//52 155//52
f 155//52 235//52 219//52
f 219//52 203//52 187//52
f 187//52 171//52 155//52
f 152//53 156//53 154//53
f 156//143 160//143 158//143
f 160//55 164//55 162//55
f 164//56 168//56 166//56
f 168//57 172//57 170//57
f 172//58 176//58 174//58
f 176//59 180//59 178//59
f 180//60 184//60 182//60
f 184//137 188//137 186//137
f 188//62 192//62 190//62
f 192//63 196//63 194//63
f 196//64 200//64 198//64
f 200//65 204//65 202//65
f 204//144 208//144 206//144
f 208//67 212//67 210//67
f 212//68 216//68 214//68
f 216//69 220//69 218//69
f 220//70 224//70 222//70
f 224//71 228//71 226//71
f 228//72 232//72 230//72
f 232//139 236//139 234//139
f 236//74 240//74 238//74
f 246//75 245//75 241//75
f 244//76 243//76 247//76
f 246//77 250//77 249//77
f 248//78 247//78 251//78
f 254//79 253//79 249//79
f 256//80 252//80 251//80
f 254//81 258//81 257//81
f 260//82 256//82 255//82
f 262//83 261//83 257//83
f 264//84 260//84 259//84
f 266//85 265//85 261//85
f 268//86 264//86 263//86
f 266//87 270//87 269//87
f 268//88 267//88 271//88
f 270//89 274//89 273//89
f 276//90 272//90 271//90
f 274//91 278//91 277//91
f 280//92 276//92 275//92
f 278//93 282//93 281//93
f 284//94 280//94 279//94
f 286//95 285//95 281//95
f 288//96 284//96 283//96
f 242//97 241//97 285//97
f 244//98 288//98 287//98
f 285//49 241//49 245//49
f 245//49 249//49 253//49
f 253//49 257//49 261//49
f 261//49 265//49 269//49
f 269//49 273//49 277//49
f 277//49 281//49 285//49
f 285//49 245//49 253//49
f 253//49 261//49 269//49
f 269//49 277//49 285//49
f 244//99 248//99 246//99
f 288//100 244//100 242//100
f 251//52 247//52 243//52
f 243//52 287//52 283//52
f 283//52 279//52 275//52
f 275//52 271//52 267//52
f 267//52 263//52 259//52
f 259//52 255//52 251//52
f 251//52 243//52 283//52
f 283//52 275//52 267//52
f 267//52 259//52 251//52
f 248//101 252//101 250//101
f 252//102 256//102 254//102
f 256//103 260//103 258//103
f 260//104 264//104 262//104
f 264//105 268//105 266//105
f 268//106 272//106 270//106
f 272//107 276//107 274//107
f 276//108 280//108 278//108
f 280//109 284//109 282//109
f 284//110 288//110 286//110
