# Blender 5.2.2 LTS
# www.blender.org
o export_frame
v 0.293500 -0.413500 0.035000
v 0.293500 -0.415000 0.036500
v 0.292000 -0.413500 0.036500
v 0.293500 -0.414561 0.035439
v 0.292634 -0.414366 0.035634
v 0.292439 -0.414561 0.036500
v 0.292439 -0.413500 0.035439
v 0.293500 -0.415000 0.068500
v 0.293500 -0.413500 0.070000
v 0.292000 -0.413500 0.068500
v 0.293500 -0.414561 0.069561
v 0.292634 -0.414366 0.069366
v 0.292439 -0.413500 0.069561
v 0.292439 -0.414561 0.068500
v 0.293500 0.413500 0.035000
v 0.292000 0.413500 0.036500
v 0.293500 0.415000 0.036500
v 0.292439 0.413500 0.035439
v 0.292634 0.414366 0.035634
v 0.292439 0.414561 0.036500
v 0.293500 0.414561 0.035439
v 0.293500 0.413500 0.070000
v 0.293500 0.415000 0.068500
v 0.292000 0.413500 0.068500
v 0.293500 0.414561 0.069561
v 0.292634 0.414366 0.069366
v 0.292439 0.414561 0.068500
v 0.292439 0.413500 0.069561
v 0.302500 -0.413500 0.035000
v 0.304000 -0.413500 0.036500
v 0.302500 -0.415000 0.036500
v 0.303561 -0.413500 0.035439
v 0.303366 -0.414366 0.035634
v 0.303561 -0.414561 0.036500
v 0.302500 -0.414561 0.035439
v 0.302500 -0.413500 0.070000
v 0.302500 -0.415000 0.068500
v 0.304000 -0.413500 0.068500
v 0.302500 -0.414561 0.069561
v 0.303366 -0.414366 0.069366
v 0.303561 -0.414561 0.068500
v 0.303561 -0.413500 0.069561
v 0.302500 0.413500 0.035000
v 0.302500 0.415000 0.036500
v 0.304000 0.413500 0.036500
v 0.302500 0.414561 0.035439
v 0.303366 0.414366 0.035634
v 0.303561 0.414561 0.036500
v 0.303561 0.413500 0.035439
v 0.302500 0.413500 0.070000
v 0.304000 0.413500 0.068500
v 0.302500 0.415000 0.068500
v 0.303561 0.413500 0.069561
v 0.303366 0.414366 0.069366
v 0.303561 0.414561 0.068500
v 0.302500 0.414561 0.069561
v 0.293500 -0.368500 0.000000
v 0.293500 -0.370000 0.001500
v 0.292000 -0.368500 0.001500
v 0.293500 -0.369561 0.000439
v 0.292634 -0.369366 0.000634
v 0.292439 -0.369561 0.001500
v 0.292439 -0.368500 0.000439
v 0.293500 -0.370000 0.033500
v 0.293500 -0.368500 0.035000
v 0.292000 -0.368500 0.033500
v 0.293500 -0.369561 0.034561
v 0.292634 -0.369366 0.034366
v 0.292439 -0.368500 0.034561
v 0.292439 -0.369561 0.033500
v 0.293500 -0.351500 0.000000
v 0.292000 -0.351500 0.001500
v 0.293500 -0.350000 0.001500
v 0.292439 -0.351500 0.000439
v 0.292634 -0.350634 0.000634
v 0.292439 -0.350439 0.001500
v 0.293500 -0.350439 0.000439
v 0.293500 -0.351500 0.035000
v 0.293500 -0.350000 0.033500
v 0.292000 -0.351500 0.033500
v 0.293500 -0.350439 0.034561
v 0.292634 -0.350634 0.034366
v 0.292439 -0.350439 0.033500
v 0.292439 -0.351500 0.034561
v 0.302500 -0.368500 0.000000
v 0.304000 -0.368500 0.001500
v 0.302500 -0.370000 0.001500
v 0.303561 -0.368500 0.000439
v 0.303366 -0.369366 0.000634
v 0.303561 -0.369561 0.001500
v 0.302500 -0.369561 0.000439
v 0.302500 -0.368500 0.035000
v 0.302500 -0.370000 0.033500
v 0.304000 -0.368500 0.033500
v 0.302500 -0.369561 0.034561
v 0.303366 -0.369366 0.034366
v 0.303561 -0.369561 0.033500
v 0.303561 -0.368500 0.034561
v 0.302500 -0.351500 0.000000
v 0.302500 -0.350000 0.001500
v 0.304000 -0.351500 0.001500
v 0.302500 -0.350439 0.000439
v 0.303366 -0.350634 0.000634
v 0.303561 -0.350439 0.001500
v 0.303561 -0.351500 0.000439
v 0.302500 -0.351500 0.035000
v 0.304000 -0.351500 0.033500
v 0.302500 -0.350000 0.033500
v 0.303561 -0.351500 0.034561
v 0.303366 -0.350634 0.034366
v 0.303561 -0.350439 0.033500
v 0.302500 -0.350439 0.034561
v 0.284500 -0.373500 0.000000
v 0.284500 -0.375000 0.001500
v 0.283000 -0.373500 0.001500
v 0.284500 -0.374561 0.000439
v 0.283634 -0.374366 0.000634
v 0.283439 -0.374561 0.001500
v 0.283439 -0.373500 0.000439
v 0.284500 -0.375000 0.002500
v 0.284500 -0.373500 0.004000
v 0.283000 -0.373500 0.002500
v 0.284500 -0.374561 0.003561
v 0.283634 -0.374366 0.003366
v 0.283439 -0.373500 0.003561
v 0.283439 -0.374561 0.002500
v 0.284500 -0.346500 0.000000
v 0.283000 -0.346500 0.001500
v 0.284500 -0.345000 0.001500
v 0.283439 -0.346500 0.000439
v 0.283634 -0.345634 0.000634
v 0.283439 -0.345439 0.001500
v 0.284500 -0.345439 0.000439
v 0.284500 -0.346500 0.004000
v 0.284500 -0.345000 0.002500
v 0.283000 -0.346500 0.002500
v 0.284500 -0.345439 0.003561
v 0.283634 -0.345634 0.003366
v 0.283439 -0.345439 0.002500
v 0.283439 -0.346500 0.003561
v 0.311500 -0.373500 0.000000
v 0.313000 -0.373500 0.001500
v 0.311500 -0.375000 0.001500
v 0.312561 -0.373500 0.000439
v 0.312366 -0.374366 0.000634
v 0.312561 -0.374561 0.001500
v 0.311500 -0.374561 0.000439
v 0.311500 -0.373500 0.004000
v 0.311500 -0.375000 0.002500
v 0.313000 -0.373500 0.002500
v 0.311500 -0.374561 0.003561
v 0.312366 -0.374366 0.003366
v 0.312561 -0.374561 0.002500
v 0.312561 -0.373500 0.003561
v 0.311500 -0.346500 0.000000
v 0.311500 -0.345000 0.001500
v 0.313000 -0.346500 0.001500
v 0.311500 -0.345439 0.000439
v 0.312366 -0.345634 0.000634
v 0.312561 -0.345439 0.001500
v 0.312561 -0.346500 0.000439
v 0.311500 -0.346500 0.004000
v 0.313000 -0.346500 0.002500
v 0.311500 -0.345000 0.002500
v 0.312561 -0.346500 0.003561
v 0.312366 -0.345634 0.003366
v 0.312561 -0.345439 0.002500
v 0.311500 -0.345439 0.003561
v 0.293500 -0.008500 0.000000
v 0.293500 -0.010000 0.001500
v 0.292000 -0.008500 0.001500
v 0.293500 -0.009561 0.000439
v 0.292634 -0.009366 0.000634
v 0.292439 -0.009561 0.001500
v 0.292439 -0.008500 0.000439
v 0.293500 -0.010000 0.033500
v 0.293500 -0.008500 0.035000
v 0.292000 -0.008500 0.033500
v 0.293500 -0.009561 0.034561
v 0.292634 -0.009366 0.034366
v 0.292439 -0.008500 0.034561
v 0.292439 -0.009561 0.033500
v 0.293500 0.008500 0.000000
v 0.292000 0.008500 0.001500
v 0.293500 0.010000 0.001500
v 0.292439 0.008500 0.000439
v 0.292634 0.009366 0.000634
v 0.292439 0.009561 0.001500
v 0.293500 0.009561 0.000439
v 0.293500 0.008500 0.035000
v 0.293500 0.010000 0.033500
v 0.292000 0.008500 0.033500
v 0.293500 0.009561 0.034561
v 0.292634 0.009366 0.034366
v 0.292439 0.009561 0.033500
v 0.292439 0.008500 0.034561
v 0.302500 -0.008500 0.000000
v 0.304000 -0.008500 0.001500
v 0.302500 -0.010000 0.001500
v 0.303561 -0.008500 0.000439
v 0.303366 -0.009366 0.000634
v 0.303561 -0.009561 0.001500
v 0.302500 -0.009561 0.000439
v 0.302500 -0.008500 0.035000
v 0.302500 -0.010000 0.033500
v 0.304000 -0.008500 0.033500
v 0.302500 -0.009561 0.034561
v 0.303366 -0.009366 0.034366
v 0.303561 -0.009561 0.033500
v 0.303561 -0.008500 0.034561
v 0.302500 0.008500 0.000000
v 0.302500 0.010000 0.001500
v 0.304000 0.008500 0.001500
v 0.302500 0.009561 0.000439
v 0.303366 0.009366 0.000634
v 0.303561 0.009561 0.001500
v 0.303561 0.008500 0.000439
v 0.302500 0.008500 0.035000
v 0.304000 0.008500 0.033500
v 0.302500 0.010000 0.033500
v 0.303561 0.008500 0.034561
v 0.303366 0.009366 0.034366
v 0.303561 0.009561 0.033500
v 0.302500 0.009561 0.034561
v 0.284500 -0.013500 0.000000
v 0.284500 -0.015000 0.001500
v 0.283000 -0.013500 0.001500
v 0.284500 -0.014561 0.000439
v 0.283634 -0.014366 0.000634
v 0.283439 -0.014561 0.001500
v 0.283439 -0.013500 0.000439
v 0.284500 -0.015000 0.002500
v 0.284500 -0.013500 0.004000
v 0.283000 -0.013500 0.002500
v 0.284500 -0.014561 0.003561
v 0.283634 -0.014366 0.003366
v 0.283439 -0.013500 0.003561
v 0.283439 -0.014561 0.002500
v 0.284500 0.013500 0.000000
v 0.283000 0.013500 0.001500
v 0.284500 0.015000 0.001500
v 0.283439 0.013500 0.000439
v 0.283634 0.014366 0.000634
v 0.283439 0.014561 0.001500
v 0.284500 0.014561 0.000439
v 0.284500 0.013500 0.004000
v 0.284500 0.015000 0.002500
v 0.283000 0.013500 0.002500
v 0.284500 0.014561 0.003561
v 0.283634 0.014366 0.003366
v 0.283439 0.014561 0.002500
v 0.283439 0.013500 0.003561
v 0.311500 -0.013500 0.000000
v 0.313000 -0.013500 0.001500
v 0.311500 -0.015000 0.001500
v 0.312561 -0.013500 0.000439
v 0.312366 -0.014366 0.000634
v 0.312561 -0.014561 0.001500
v 0.311500 -0.014561 0.000439
v 0.311500 -0.013500 0.004000
v 0.311500 -0.015000 0.002500
v 0.313000 -0.013500 0.002500
v 0.311500 -0.014561 0.003561
v 0.312366 -0.014366 0.003366
v 0.312561 -0.014561 0.002500
v 0.312561 -0.013500 0.003561
v 0.311500 0.013500 0.000000
v 0.311500 0.015000 0.001500
v 0.313000 0.013500 0.001500
v 0.311500 0.014561 0.000439
v 0.312366 0.014366 0.000634
v 0.312561 0.014561 0.001500
v 0.312561 0.013500 0.000439
v 0.311500 0.013500 0.004000
v 0.313000 0.013500 0.002500
v 0.311500 0.015000 0.002500
v 0.312561 0.013500 0.003561
v 0.312366 0.014366 0.003366
v 0.312561 0.014561 0.002500
v 0.311500 0.014561 0.003561
v 0.293500 0.351500 0.000000
v 0.293500 0.350000 0.001500
v 0.292000 0.351500 0.001500
v 0.293500 0.350439 0.000439
v 0.292634 0.350634 0.000634
v 0.292439 0.350439 0.001500
v 0.292439 0.351500 0.000439
v 0.293500 0.350000 0.033500
v 0.293500 0.351500 0.035000
v 0.292000 0.351500 0.033500
v 0.293500 0.350439 0.034561
v 0.292634 0.350634 0.034366
v 0.292439 0.351500 0.034561
v 0.292439 0.350439 0.033500
v 0.293500 0.368500 0.000000
v 0.292000 0.368500 0.001500
v 0.293500 0.370000 0.001500
v 0.292439 0.368500 0.000439
v 0.292634 0.369366 0.000634
v 0.292439 0.369561 0.001500
v 0.293500 0.369561 0.000439
v 0.293500 0.368500 0.035000
v 0.293500 0.370000 0.033500
v 0.292000 0.368500 0.033500
v 0.293500 0.369561 0.034561
v 0.292634 0.369366 0.034366
v 0.292439 0.369561 0.033500
v 0.292439 0.368500 0.034561
v 0.302500 0.351500 0.000000
v 0.304000 0.351500 0.001500
v 0.302500 0.350000 0.001500
v 0.303561 0.351500 0.000439
v 0.303366 0.350634 0.000634
v 0.303561 0.350439 0.001500
v 0.302500 0.350439 0.000439
v 0.302500 0.351500 0.035000
v 0.302500 0.350000 0.033500
v 0.304000 0.351500 0.033500
v 0.302500 0.350439 0.034561
v 0.303366 0.350634 0.034366
v 0.303561 0.350439 0.033500
v 0.303561 0.351500 0.034561
v 0.302500 0.368500 0.000000
v 0.302500 0.370000 0.001500
v 0.304000 0.368500 0.001500
v 0.302500 0.369561 0.000439
v 0.303366 0.369366 0.000634
v 0.303561 0.369561 0.001500
v 0.303561 0.368500 0.000439
v 0.302500 0.368500 0.035000
v 0.304000 0.368500 0.033500
v 0.302500 0.370000 0.033500
v 0.303561 0.368500 0.034561
v 0.303366 0.369366 0.034366
v 0.303561 0.369561 0.033500
v 0.302500 0.369561 0.034561
v 0.284500 0.346500 0.000000
v 0.284500 0.345000 0.001500
v 0.283000 0.346500 0.001500
v 0.284500 0.345439 0.000439
v 0.283634 0.345634 0.000634
v 0.283439 0.345439 0.001500
v 0.283439 0.346500 0.000439
v 0.284500 0.345000 0.002500
v 0.284500 0.346500 0.004000
v 0.283000 0.346500 0.002500
v 0.284500 0.345439 0.003561
v 0.283634 0.345634 0.003366
v 0.283439 0.346500 0.003561
v 0.283439 0.345439 0.002500
v 0.284500 0.373500 0.000000
v 0.283000 0.373500 0.001500
v 0.284500 0.375000 0.001500
v 0.283439 0.373500 0.000439
v 0.283634 0.374366 0.000634
v 0.283439 0.374561 0.001500
v 0.284500 0.374561 0.000439
v 0.284500 0.373500 0.004000
v 0.284500 0.375000 0.002500
v 0.283000 0.373500 0.002500
v 0.284500 0.374561 0.003561
v 0.283634 0.374366 0.003366
v 0.283439 0.374561 0.002500
v 0.283439 0.373500 0.003561
v 0.311500 0.346500 0.000000
v 0.313000 0.346500 0.001500
v 0.311500 0.345000 0.001500
v 0.312561 0.346500 0.000439
v 0.312366 0.345634 0.000634
v 0.312561 0.345439 0.001500
v 0.311500 0.345439 0.000439
v 0.311500 0.346500 0.004000
v 0.311500 0.345000 0.002500
v 0.313000 0.346500 0.002500
v 0.311500 0.345439 0.003561
v 0.312366 0.345634 0.003366
v 0.312561 0.345439 0.002500
v 0.312561 0.346500 0.003561
v 0.311500 0.373500 0.000000
v 0.311500 0.375000 0.001500
v 0.313000 0.373500 0.001500
v 0.311500 0.374561 0.000439
v 0.312366 0.374366 0.000634
v 0.312561 0.374561 0.001500
v 0.312561 0.373500 0.000439
v 0.311500 0.373500 0.004000
v 0.313000 0.373500 0.002500
v 0.311500 0.375000 0.002500
v 0.312561 0.373500 0.003561
v 0.312366 0.374366 0.003366
v 0.312561 0.374561 0.002500
v 0.311500 0.374561 0.003561
v 0.197500 -0.413500 0.035000
v 0.197500 -0.415000 0.036500
v 0.196000 -0.413500 0.036500
v 0.197500 -0.414561 0.035439
v 0.196634 -0.414366 0.035634
v 0.196439 -0.414561 0.036500
v 0.196439 -0.413500 0.035439
v 0.197500 -0.415000 0.068500
v 0.197500 -0.413500 0.070000
v 0.196000 -0.413500 0.068500
v 0.197500 -0.414561 0.069561
v 0.196634 -0.414366 0.069366
v 0.196439 -0.413500 0.069561
v 0.196439 -0.414561 0.068500
v 0.197500 0.413500 0.035000
v 0.196000 0.413500 0.036500
v 0.197500 0.415000 0.036500
v 0.196439 0.413500 0.035439
v 0.196634 0.414366 0.035634
v 0.196439 0.414561 0.036500
v 0.197500 0.414561 0.035439
v 0.197500 0.413500 0.070000
v 0.197500 0.415000 0.068500
v 0.196000 0.413500 0.068500
v 0.197500 0.414561 0.069561
v 0.196634 0.414366 0.069366
v 0.196439 0.414561 0.068500
v 0.196439 0.413500 0.069561
v 0.206500 -0.413500 0.035000
v 0.208000 -0.413500 0.036500
v 0.206500 -0.415000 0.036500
v 0.207561 -0.413500 0.035439
v 0.207366 -0.414366 0.035634
v 0.207561 -0.414561 0.036500
v 0.206500 -0.414561 0.035439
v 0.206500 -0.413500 0.070000
v 0.206500 -0.415000 0.068500
v 0.208000 -0.413500 0.068500
v 0.206500 -0.414561 0.069561
v 0.207366 -0.414366 0.069366
v 0.207561 -0.414561 0.068500
v 0.207561 -0.413500 0.069561
v 0.206500 0.413500 0.035000
v 0.206500 0.415000 0.036500
v 0.208000 0.413500 0.036500
v 0.206500 0.414561 0.035439
v 0.207366 0.414366 0.035634
v 0.207561 0.414561 0.036500
v 0.207561 0.413500 0.035439
v 0.206500 0.413500 0.070000
v 0.208000 0.413500 0.068500
v 0.206500 0.415000 0.068500
v 0.207561 0.413500 0.069561
v 0.207366 0.414366 0.069366
v 0.207561 0.414561 0.068500
v 0.206500 0.414561 0.069561
v 0.197500 -0.368500 0.000000
v 0.197500 -0.370000 0.001500
v 0.196000 -0.368500 0.001500
v 0.197500 -0.369561 0.000439
v 0.196634 -0.369366 0.000634
v 0.196439 -0.369561 0.001500
v 0.196439 -0.368500 0.000439
v 0.197500 -0.370000 0.033500
v 0.197500 -0.368500 0.035000
v 0.196000 -0.368500 0.033500
v 0.197500 -0.369561 0.034561
v 0.196634 -0.369366 0.034366
v 0.196439 -0.368500 0.034561
v 0.196439 -0.369561 0.033500
v 0.197500 -0.351500 0.000000
v 0.196000 -0.351500 0.001500
v 0.197500 -0.350000 0.001500
v 0.196439 -0.351500 0.000439
v 0.196634 -0.350634 0.000634
v 0.196439 -0.350439 0.001500
v 0.197500 -0.350439 0.000439
v 0.197500 -0.351500 0.035000
v 0.197500 -0.350000 0.033500
v 0.196000 -0.351500 0.033500
v 0.197500 -0.350439 0.034561
v 0.196634 -0.350634 0.034366
v 0.196439 -0.350439 0.033500
v 0.196439 -0.351500 0.034561
v 0.206500 -0.368500 0.000000
v 0.208000 -0.368500 0.001500
v 0.206500 -0.370000 0.001500
v 0.207561 -0.368500 0.000439
v 0.207366 -0.369366 0.000634
v 0.207561 -0.369561 0.001500
v 0.206500 -0.369561 0.000439
v 0.206500 -0.368500 0.035000
v 0.206500 -0.370000 0.033500
v 0.208000 -0.368500 0.033500
v 0.206500 -0.369561 0.034561
v 0.207366 -0.369366 0.034366
v 0.207561 -0.369561 0.033500
v 0.207561 -0.368500 0.034561
v 0.206500 -0.351500 0.000000
v 0.206500 -0.350000 0.001500
v 0.208000 -0.351500 0.001500
v 0.206500 -0.350439 0.000439
v 0.207366 -0.350634 0.000634
v 0.207561 -0.350439 0.001500
v 0.207561 -0.351500 0.000439
v 0.206500 -0.351500 0.035000
v 0.208000 -0.351500 0.033500
v 0.206500 -0.350000 0.033500
v 0.207561 -0.351500 0.034561
v 0.207366 -0.350634 0.034366
v 0.207561 -0.350439 0.033500
v 0.206500 -0.350439 0.034561
v 0.188500 -0.373500 0.000000
v 0.188500 -0.375000 0.001500
v 0.187000 -0.373500 0.001500
v 0.188500 -0.374561 0.000439
v 0.187634 -0.374366 0.000634
v 0.187439 -0.374561 0.001500
v 0.187439 -0.373500 0.000439
v 0.188500 -0.375000 0.002500
v 0.188500 -0.373500 0.004000
v 0.187000 -0.373500 0.002500
v 0.188500 -0.374561 0.003561
v 0.187634 -0.374366 0.003366
v 0.187439 -0.373500 0.003561
v 0.187439 -0.374561 0.002500
v 0.188500 -0.346500 0.000000
v 0.187000 -0.346500 0.001500
v 0.188500 -0.345000 0.001500
v 0.187439 -0.346500 0.000439
v 0.187634 -0.345634 0.000634
v 0.187439 -0.345439 0.001500
v 0.188500 -0.345439 0.000439
v 0.188500 -0.346500 0.004000
v 0.188500 -0.345000 0.002500
v 0.187000 -0.346500 0.002500
v 0.188500 -0.345439 0.003561
v 0.187634 -0.345634 0.003366
v 0.187439 -0.345439 0.002500
v 0.187439 -0.346500 0.003561
v 0.215500 -0.373500 0.000000
v 0.217000 -0.373500 0.001500
v 0.215500 -0.375000 0.001500
v 0.216561 -0.373500 0.000439
v 0.216366 -0.374366 0.000634
v 0.216561 -0.374561 0.001500
v 0.215500 -0.374561 0.000439
v 0.215500 -0.373500 0.004000
v 0.215500 -0.375000 0.002500
v 0.217000 -0.373500 0.002500
v 0.215500 -0.374561 0.003561
v 0.216366 -0.374366 0.003366
v 0.216561 -0.374561 0.002500
v 0.216561 -0.373500 0.003561
v 0.215500 -0.346500 0.000000
v 0.215500 -0.345000 0.001500
v 0.217000 -0.346500 0.001500
v 0.215500 -0.345439 0.000439
v 0.216366 -0.345634 0.000634
v 0.216561 -0.345439 0.001500
v 0.216561 -0.346500 0.000439
v 0.215500 -0.346500 0.004000
v 0.217000 -0.346500 0.002500
v 0.215500 -0.345000 0.002500
v 0.216561 -0.346500 0.003561
v 0.216366 -0.345634 0.003366
v 0.216561 -0.345439 0.002500
v 0.215500 -0.345439 0.003561
v 0.197500 -0.008500 0.000000
v 0.197500 -0.010000 0.001500
v 0.196000 -0.008500 0.001500
v 0.197500 -0.009561 0.000439
v 0.196634 -0.009366 0.000634
v 0.196439 -0.009561 0.001500
v 0.196439 -0.008500 0.000439
v 0.197500 -0.010000 0.033500
v 0.197500 -0.008500 0.035000
v 0.196000 -0.008500 0.033500
v 0.197500 -0.009561 0.034561
v 0.196634 -0.009366 0.034366
v 0.196439 -0.008500 0.034561
v 0.196439 -0.009561 0.033500
v 0.197500 0.008500 0.000000
v 0.196000 0.008500 0.001500
v 0.197500 0.010000 0.001500
v 0.196439 0.008500 0.000439
v 0.196634 0.009366 0.000634
v 0.196439 0.009561 0.001500
v 0.197500 0.009561 0.000439
v 0.197500 0.008500 0.035000
v 0.197500 0.010000 0.033500
v 0.196000 0.008500 0.033500
v 0.197500 0.009561 0.034561
v 0.196634 0.009366 0.034366
v 0.196439 0.009561 0.033500
v 0.196439 0.008500 0.034561
v 0.206500 -0.008500 0.000000
v 0.208000 -0.008500 0.001500
v 0.206500 -0.010000 0.001500
v 0.207561 -0.008500 0.000439
v 0.207366 -0.009366 0.000634
v 0.207561 -0.009561 0.001500
v 0.206500 -0.009561 0.000439
v 0.206500 -0.008500 0.035000
v 0.206500 -0.010000 0.033500
v 0.208000 -0.008500 0.033500
v 0.206500 -0.009561 0.034561
v 0.207366 -0.009366 0.034366
v 0.207561 -0.009561 0.033500
v 0.207561 -0.008500 0.034561
v 0.206500 0.008500 0.000000
v 0.206500 0.010000 0.001500
v 0.208000 0.008500 0.001500
v 0.206500 0.009561 0.000439
v 0.207366 0.009366 0.000634
v 0.207561 0.009561 0.001500
v 0.207561 0.008500 0.000439
v 0.206500 0.008500 0.035000
v 0.208000 0.008500 0.033500
v 0.206500 0.010000 0.033500
v 0.207561 0.008500 0.034561
v 0.207366 0.009366 0.034366
v 0.207561 0.009561 0.033500
v 0.206500 0.009561 0.034561
v 0.188500 -0.013500 0.000000
v 0.188500 -0.015000 0.001500
v 0.187000 -0.013500 0.001500
v 0.188500 -0.014561 0.000439
v 0.187634 -0.014366 0.000634
v 0.187439 -0.014561 0.001500
v 0.187439 -0.013500 0.000439
v 0.188500 -0.015000 0.002500
v 0.188500 -0.013500 0.004000
v 0.187000 -0.013500 0.002500
v 0.188500 -0.014561 0.003561
v 0.187634 -0.014366 0.003366
v 0.187439 -0.013500 0.003561
v 0.187439 -0.014561 0.002500
v 0.188500 0.013500 0.000000
v 0.187000 0.013500 0.001500
v 0.188500 0.015000 0.001500
v 0.187439 0.013500 0.000439
v 0.187634 0.014366 0.000634
v 0.187439 0.014561 0.001500
v 0.188500 0.014561 0.000439
v 0.188500 0.013500 0.004000
v 0.188500 0.015000 0.002500
v 0.187000 0.013500 0.002500
v 0.188500 0.014561 0.003561
v 0.187634 0.014366 0.003366
v 0.187439 0.014561 0.002500
v 0.187439 0.013500 0.003561
v 0.215500 -0.013500 0.000000
v 0.217000 -0.013500 0.001500
v 0.215500 -0.015000 0.001500
v 0.216561 -0.013500 0.000439
v 0.216366 -0.014366 0.000634
v 0.216561 -0.014561 0.001500
v 0.215500 -0.014561 0.000439
v 0.215500 -0.013500 0.004000
v 0.215500 -0.015000 0.002500
v 0.217000 -0.013500 0.002500
v 0.215500 -0.014561 0.003561
v 0.216366 -0.014366 0.003366
v 0.216561 -0.014561 0.002500
v 0.216561 -0.013500 0.003561
v 0.215500 0.013500 0.000000
v 0.215500 0.015000 0.001500
v 0.217000 0.013500 0.001500
v 0.215500 0.014561 0.000439
v 0.216366 0.014366 0.000634
v 0.216561 0.014561 0.001500
v 0.216561 0.013500 0.000439
v 0.215500 0.013500 0.004000
v 0.217000 0.013500 0.002500
v 0.215500 0.015000 0.002500
v 0.216561 0.013500 0.003561
v 0.216366 0.014366 0.003366
v 0.216561 0.014561 0.002500
v 0.215500 0.014561 0.003561
v 0.197500 0.351500 0.000000
v 0.197500 0.350000 0.001500
v 0.196000 0.351500 0.001500
v 0.197500 0.350439 0.000439
v 0.196634 0.350634 0.000634
v 0.196439 0.350439 0.001500
v 0.196439 0.351500 0.000439
v 0.197500 0.350000 0.033500
v 0.197500 0.351500 0.035000
v 0.196000 0.351500 0.033500
v 0.197500 0.350439 0.034561
v 0.196634 0.350634 0.034366
v 0.196439 0.351500 0.034561
v 0.196439 0.350439 0.033500
v 0.197500 0.368500 0.000000
v 0.196000 0.368500 0.001500
v 0.197500 0.370000 0.001500
v 0.196439 0.368500 0.000439
v 0.196634 0.369366 0.000634
v 0.196439 0.369561 0.001500
v 0.197500 0.369561 0.000439
v 0.197500 0.368500 0.035000
v 0.197500 0.370000 0.033500
v 0.196000 0.368500 0.033500
v 0.197500 0.369561 0.034561
v 0.196634 0.369366 0.034366
v 0.196439 0.369561 0.033500
v 0.196439 0.368500 0.034561
v 0.206500 0.351500 0.000000
v 0.208000 0.351500 0.001500
v 0.206500 0.350000 0.001500
v 0.207561 0.351500 0.000439
v 0.207366 0.350634 0.000634
v 0.207561 0.350439 0.001500
v 0.206500 0.350439 0.000439
v 0.206500 0.351500 0.035000
v 0.206500 0.350000 0.033500
v 0.208000 0.351500 0.033500
v 0.206500 0.350439 0.034561
v 0.207366 0.350634 0.034366
v 0.207561 0.350439 0.033500
v 0.207561 0.351500 0.034561
v 0.206500 0.368500 0.000000
v 0.206500 0.370000 0.001500
v 0.208000 0.368500 0.001500
v 0.206500 0.369561 0.000439
v 0.207366 0.369366 0.000634
v 0.207561 0.369561 0.001500
v 0.207561 0.368500 0.000439
v 0.206500 0.368500 0.035000
v 0.208000 0.368500 0.033500
v 0.206500 0.370000 0.033500
v 0.207561 0.368500 0.034561
v 0.207366 0.369366 0.034366
v 0.207561 0.369561 0.033500
v 0.206500 0.369561 0.034561
v 0.188500 0.346500 0.000000
v 0.188500 0.345000 0.001500
v 0.187000 0.346500 0.001500
v 0.188500 0.345439 0.000439
v 0.187634 0.345634 0.000634
v 0.187439 0.345439 0.001500
v 0.187439 0.346500 0.000439
v 0.188500 0.345000 0.002500
v 0.188500 0.346500 0.004000
v 0.187000 0.346500 0.002500
v 0.188500 0.345439 0.003561
v 0.187634 0.345634 0.003366
v 0.187439 0.346500 0.003561
v 0.187439 0.345439 0.002500
v 0.188500 0.373500 0.000000
v 0.187000 0.373500 0.001500
v 0.188500 0.375000 0.001500
v 0.187439 0.373500 0.000439
v 0.187634 0.374366 0.000634
v 0.187439 0.374561 0.001500
v 0.188500 0.374561 0.000439
v 0.188500 0.373500 0.004000
v 0.188500 0.375000 0.002500
v 0.187000 0.373500 0.002500
v 0.188500 0.374561 0.003561
v 0.187634 0.374366 0.003366
v 0.187439 0.374561 0.002500
v 0.187439 0.373500 0.003561
v 0.215500 0.346500 0.000000
v 0.217000 0.346500 0.001500
v 0.215500 0.345000 0.001500
v 0.216561 0.346500 0.000439
v 0.216366 0.345634 0.000634
v 0.216561 0.345439 0.001500
v 0.215500 0.345439 0.000439
v 0.215500 0.346500 0.004000
v 0.215500 0.345000 0.002500
v 0.217000 0.346500 0.002500
v 0.215500 0.345439 0.003561
v 0.216366 0.345634 0.003366
v 0.216561 0.345439 0.002500
v 0.216561 0.346500 0.003561
v 0.215500 0.373500 0.000000
v 0.215500 0.375000 0.001500
v 0.217000 0.373500 0.001500
v 0.215500 0.374561 0.000439
v 0.216366 0.374366 0.000634
v 0.216561 0.374561 0.001500
v 0.216561 0.373500 0.000439
v 0.215500 0.373500 0.004000
v 0.217000 0.373500 0.002500
v 0.215500 0.375000 0.002500
v 0.216561 0.373500 0.003561
v 0.216366 0.374366 0.003366
v 0.216561 0.374561 0.002500
v 0.215500 0.374561 0.003561
v 0.209500 -0.368500 0.035000
v 0.209500 -0.370000 0.036500
v 0.208000 -0.368500 0.036500
v 0.209500 -0.369561 0.035439
v 0.208634 -0.369366 0.035634
v 0.208439 -0.369561 0.036500
v 0.208439 -0.368500 0.035439
v 0.209500 -0.370000 0.041500
v 0.209500 -0.368500 0.043000
v 0.208000 -0.368500 0.041500
v 0.209500 -0.369561 0.042561
v 0.208634 -0.369366 0.042366
v 0.208439 -0.368500 0.042561
v 0.208439 -0.369561 0.041500
v 0.209500 -0.351500 0.035000
v 0.208000 -0.351500 0.036500
v 0.209500 -0.350000 0.036500
v 0.208439 -0.351500 0.035439
v 0.208634 -0.350634 0.035634
v 0.208439 -0.350439 0.036500
v 0.209500 -0.350439 0.035439
v 0.209500 -0.351500 0.043000
v 0.209500 -0.350000 0.041500
v 0.208000 -0.351500 0.041500
v 0.209500 -0.350439 0.042561
v 0.208634 -0.350634 0.042366
v 0.208439 -0.350439 0.041500
v 0.208439 -0.351500 0.042561
v 0.290500 -0.368500 0.035000
v 0.292000 -0.368500 0.036500
v 0.290500 -0.370000 0.036500
v 0.291561 -0.368500 0.035439
v 0.291366 -0.369366 0.035634
v 0.291561 -0.369561 0.036500
v 0.290500 -0.369561 0.035439
v 0.290500 -0.368500 0.043000
v 0.290500 -0.370000 0.041500
v 0.292000 -0.368500 0.041500
v 0.290500 -0.369561 0.042561
v 0.291366 -0.369366 0.042366
v 0.291561 -0.369561 0.041500
v 0.291561 -0.368500 0.042561
v 0.290500 -0.351500 0.035000
v 0.290500 -0.350000 0.036500
v 0.292000 -0.351500 0.036500
v 0.290500 -0.350439 0.035439
v 0.291366 -0.350634 0.035634
v 0.291561 -0.350439 0.036500
v 0.291561 -0.351500 0.035439
v 0.290500 -0.351500 0.043000
v 0.292000 -0.351500 0.041500
v 0.290500 -0.350000 0.041500
v 0.291561 -0.351500 0.042561
v 0.291366 -0.350634 0.042366
v 0.291561 -0.350439 0.041500
v 0.290500 -0.350439 0.042561
v 0.209500 -0.008500 0.035000
v 0.209500 -0.010000 0.036500
v 0.208000 -0.008500 0.036500
v 0.209500 -0.009561 0.035439
v 0.208634 -0.009366 0.035634
v 0.208439 -0.009561 0.036500
v 0.208439 -0.008500 0.035439
v 0.209500 -0.010000 0.041500
v 0.209500 -0.008500 0.043000
v 0.208000 -0.008500 0.041500
v 0.209500 -0.009561 0.042561
v 0.208634 -0.009366 0.042366
v 0.208439 -0.008500 0.042561
v 0.208439 -0.009561 0.041500
v 0.209500 0.008500 0.035000
v 0.208000 0.008500 0.036500
v 0.209500 0.010000 0.036500
v 0.208439 0.008500 0.035439
v 0.208634 0.009366 0.035634
v 0.208439 0.009561 0.036500
v 0.209500 0.009561 0.035439
v 0.209500 0.008500 0.043000
v 0.209500 0.010000 0.041500
v 0.208000 0.008500 0.041500
v 0.209500 0.009561 0.042561
v 0.208634 0.009366 0.042366
v 0.208439 0.009561 0.041500
v 0.208439 0.008500 0.042561
v 0.290500 -0.008500 0.035000
v 0.292000 -0.008500 0.036500
v 0.290500 -0.010000 0.036500
v 0.291561 -0.008500 0.035439
v 0.291366 -0.009366 0.035634
v 0.291561 -0.009561 0.036500
v 0.290500 -0.009561 0.035439
v 0.290500 -0.008500 0.043000
v 0.290500 -0.010000 0.041500
v 0.292000 -0.008500 0.041500
v 0.290500 -0.009561 0.042561
v 0.291366 -0.009366 0.042366
v 0.291561 -0.009561 0.041500
v 0.291561 -0.008500 0.042561
v 0.290500 0.008500 0.035000
v 0.290500 0.010000 0.036500
v 0.292000 0.008500 0.036500
v 0.290500 0.009561 0.035439
v 0.291366 0.009366 0.035634
v 0.291561 0.009561 0.036500
v 0.291561 0.008500 0.035439
v 0.290500 0.008500 0.043000
v 0.292000 0.008500 0.041500
v 0.290500 0.010000 0.041500
v 0.291561 0.008500 0.042561
v 0.291366 0.009366 0.042366
v 0.291561 0.009561 0.041500
v 0.290500 0.009561 0.042561
v 0.209500 0.351500 0.035000
v 0.209500 0.350000 0.036500
v 0.208000 0.351500 0.036500
v 0.209500 0.350439 0.035439
v 0.208634 0.350634 0.035634
v 0.208439 0.350439 0.036500
v 0.208439 0.351500 0.035439
v 0.209500 0.350000 0.041500
v 0.209500 0.351500 0.043000
v 0.208000 0.351500 0.041500
v 0.209500 0.350439 0.042561
v 0.208634 0.350634 0.042366
v 0.208439 0.351500 0.042561
v 0.208439 0.350439 0.041500
v 0.209500 0.368500 0.035000
v 0.208000 0.368500 0.036500
v 0.209500 0.370000 0.036500
v 0.208439 0.368500 0.035439
v 0.208634 0.369366 0.035634
v 0.208439 0.369561 0.036500
v 0.209500 0.369561 0.035439
v 0.209500 0.368500 0.043000
v 0.209500 0.370000 0.041500
v 0.208000 0.368500 0.041500
v 0.209500 0.369561 0.042561
v 0.208634 0.369366 0.042366
v 0.208439 0.369561 0.041500
v 0.208439 0.368500 0.042561
v 0.290500 0.351500 0.035000
v 0.292000 0.351500 0.036500
v 0.290500 0.350000 0.036500
v 0.291561 0.351500 0.035439
v 0.291366 0.350634 0.035634
v 0.291561 0.350439 0.036500
v 0.290500 0.350439 0.035439
v 0.290500 0.351500 0.043000
v 0.290500 0.350000 0.041500
v 0.292000 0.351500 0.041500
v 0.290500 0.350439 0.042561
v 0.291366 0.350634 0.042366
v 0.291561 0.350439 0.041500
v 0.291561 0.351500 0.042561
v 0.290500 0.368500 0.035000
v 0.290500 0.370000 0.036500
v 0.292000 0.368500 0.036500
v 0.290500 0.369561 0.035439
v 0.291366 0.369366 0.035634
v 0.291561 0.369561 0.036500
v 0.291561 0.368500 0.035439
v 0.290500 0.368500 0.043000
v 0.292000 0.368500 0.041500
v 0.290500 0.370000 0.041500
v 0.291561 0.368500 0.042561
v 0.291366 0.369366 0.042366
v 0.291561 0.369561 0.041500
v 0.290500 0.369561 0.042561
vn -0.3672 -0.2817 -0.8865
vn -0.2817 -0.8865 -0.3671
vn -0.8865 -0.3672 -0.2817
vn -0.3672 -0.8865 0.2817
vn -0.2818 -0.3672 0.8864
vn -0.8865 -0.2817 0.3671
vn -0.2817 0.3672 -0.8864
vn -0.8865 0.2818 -0.3671
vn -0.3672 0.8864 -0.2818
vn -0.3672 0.2817 0.8865
vn -0.2817 0.8865 0.3671
vn -0.8864 0.3672 0.2817
vn 0.2817 -0.3672 -0.8865
vn 0.8865 -0.2818 -0.3671
vn 0.3672 -0.8865 -0.2817
vn 0.3672 -0.2818 0.8864
vn 0.2818 -0.8865 0.3672
vn 0.8864 -0.3672 0.2817
vn 0.3672 0.2818 -0.8864
vn 0.2817 0.8865 -0.3671
vn 0.8864 0.3672 -0.2817
vn 0.2818 0.3672 0.8864
vn 0.8865 0.2818 0.3671
vn 0.3672 0.8865 0.2817
vn -0.3827 -0.0000 -0.9239
vn -0.9239 -0.0000 -0.3827
vn -0.3827 -0.9239 -0.0000
vn -0.9239 -0.3827 -0.0000
vn -0.3827 -0.0000 0.9239
vn -0.9239 -0.0000 0.3827
vn -0.3827 0.9239 -0.0000
vn -0.9239 0.3827 -0.0000
vn -0.0000 0.3827 -0.9239
vn -0.0000 0.9239 -0.3826
vn -0.0000 0.3827 0.9239
vn -0.0000 0.9239 0.3826
vn 0.9239 0.3826 -0.0000
vn 0.3827 0.9239 -0.0000
vn 0.3827 -0.0000 -0.9239
vn 0.9239 -0.0000 -0.3827
vn 0.3827 -0.0000 0.9239
vn 0.9239 -0.0000 0.3827
vn 0.3826 -0.9239 -0.0000
vn 0.9239 -0.3827 -0.0000
vn -0.0000 -0.3827 -0.9239
vn -0.0000 -0.9239 -0.3826
vn -0.0000 -0.3827 0.9239
vn -0.0000 -0.9239 0.3826
vn -0.0000 -0.0000 -1.0000
vn -1.0000 -0.0000 -0.0000
vn -0.0000 -1.0000 -0.0000
vn -0.0000 -0.0000 1.0000
vn -0.0000 1.0000 -0.0000
vn 1.0000 -0.0000 -0.0000
vn -0.3672 -0.2817 -0.8864
vn -0.2817 -0.8865 -0.3672
vn -0.8864 -0.3673 -0.2818
vn -0.3672 -0.8864 0.2818
vn -0.2817 -0.3672 0.8865
vn -0.8865 -0.2817 0.3672
vn -0.2817 0.3672 -0.8865
vn -0.8865 0.2817 -0.3672
vn -0.3672 0.8865 -0.2817
vn -0.2817 0.8865 0.3672
vn -0.8864 0.3673 0.2818
vn 0.8864 -0.2818 -0.3672
vn 0.3672 -0.8864 -0.2818
vn 0.2817 -0.8865 0.3672
vn 0.8864 -0.3673 0.2818
vn 0.3672 0.2817 -0.8864
vn 0.2817 0.8865 -0.3672
vn 0.8864 0.3673 -0.2818
vn 0.2817 0.3672 0.8865
vn 0.8865 0.2818 0.3672
vn -0.0000 0.9239 -0.3827
vn -0.0000 0.9239 0.3827
vn 0.9239 0.3827 -0.0000
vn 0.3827 -0.9239 -0.0000
vn -0.0000 -0.9239 -0.3827
vn -0.0000 -0.9239 0.3827
vn -0.2818 -0.8865 -0.3672
vn -0.8864 -0.3672 -0.2818
vn -0.2818 0.8865 0.3672
vn -0.8864 0.3672 0.2818
vn 0.8865 -0.2818 -0.3672
vn 0.3672 -0.2817 0.8865
vn 0.2817 -0.8865 0.3671
vn 0.8865 -0.3671 0.2818
vn 0.3672 0.2817 -0.8865
vn 0.8865 0.3671 -0.2818
vn 0.3672 0.8864 0.2818
vn -0.9239 -0.3826 -0.0000
vn -0.9239 0.3826 -0.0000
vn 0.9239 -0.3826 -0.0000
vn -0.8864 -0.3672 -0.2817
vn -0.2817 -0.3672 0.8864
vn 0.2817 -0.3672 -0.8864
vn 0.8865 0.2817 0.3672
vn 0.8865 -0.3672 0.2818
vn 0.8865 0.3672 -0.2818
vn 0.2817 0.3672 0.8864
vn -0.3672 0.2817 0.8864
vn 0.3672 -0.8864 -0.2817
vn -0.3672 -0.2818 -0.8864
vn -0.8865 0.2817 -0.3671
vn -0.3672 0.2818 0.8864
vn -0.2818 0.8865 0.3671
vn -0.8865 0.3672 0.2817
vn 0.8865 -0.2817 -0.3671
vn 0.8865 -0.3672 0.2817
vn 0.2818 0.8865 -0.3672
vn 0.8865 0.3672 -0.2817
vn 0.8865 0.2817 0.3671
vn -0.2817 0.8864 0.3672
vn 0.8865 -0.2817 -0.3672
vn 0.2817 -0.8864 0.3672
vn 0.8864 -0.3672 0.2818
vn 0.8864 0.3672 -0.2818
vn -0.8865 0.2818 -0.3672
vn 0.3672 -0.8865 -0.2818
vn 0.3672 -0.2817 0.8864
vn 0.8864 0.2818 0.3672
vn -0.3672 -0.2818 -0.8865
vn -0.2818 -0.3672 0.8865
vn -0.2818 0.8864 0.3672
vn 0.2818 -0.8864 0.3672
vn -0.8864 0.2817 -0.3672
vn -0.3672 -0.8865 0.2818
vn -0.3672 0.8865 -0.2818
vn 0.3672 0.8865 0.2818
vn -0.2818 0.3672 -0.8865
vn -0.2817 -0.3672 -0.8864
vn -0.3672 -0.8864 -0.2818
vn -0.8865 -0.2818 -0.3671
vn -0.2817 -0.8865 0.3671
vn -0.3672 -0.2817 0.8865
vn -0.8864 -0.3672 0.2817
vn -0.3672 0.2817 -0.8865
vn -0.8865 0.3672 -0.2817
vn -0.2817 0.8865 -0.3671
vn -0.2818 0.3672 0.8864
vn -0.3672 0.8865 0.2817
vn -0.8865 0.2817 0.3671
vn 0.3672 -0.2818 -0.8864
vn 0.8864 -0.3672 -0.2817
vn 0.2817 -0.8865 -0.3671
vn 0.2818 -0.3672 0.8864
vn 0.3672 -0.8865 0.2817
vn 0.8865 -0.2818 0.3671
vn 0.2817 0.3672 -0.8865
vn 0.3672 0.8865 -0.2817
vn 0.8865 0.2818 -0.3671
vn 0.3672 0.2818 0.8864
vn 0.8864 0.3672 0.2817
vn 0.2818 0.8865 0.3672
vn 0.3826 0.9239 -0.0000
vn -0.2817 -0.3672 -0.8865
vn -0.8865 -0.2817 -0.3672
vn -0.2817 -0.8865 0.3672
vn -0.3672 -0.2817 0.8864
vn -0.8864 -0.3673 0.2818
vn -0.3672 0.2817 -0.8864
vn -0.8864 0.3673 -0.2818
vn -0.2817 0.8865 -0.3672
vn -0.2817 0.3672 0.8865
vn -0.8865 0.2817 0.3672
vn 0.3672 -0.2817 -0.8864
vn 0.8864 -0.3673 -0.2818
vn 0.2817 -0.8865 -0.3672
vn 0.2817 -0.3672 0.8865
vn 0.3672 -0.8864 0.2818
vn 0.8865 -0.2817 0.3672
vn 0.3672 0.8864 -0.2817
vn 0.8865 0.2818 -0.3672
vn 0.8864 0.3673 0.2818
vn 0.2817 0.8865 0.3672
vn -0.2818 -0.8865 0.3672
vn -0.8864 -0.3672 0.2818
vn -0.8864 0.3672 -0.2818
vn -0.2818 0.8865 -0.3672
vn -0.3672 0.8864 0.2818
vn 0.3672 -0.2817 -0.8865
vn 0.8865 -0.3671 -0.2818
vn 0.8865 -0.2818 0.3672
vn 0.3672 0.8864 -0.2818
vn 0.3672 0.2817 0.8865
vn 0.8865 0.3671 0.2818
vn 0.2817 0.8865 0.3671
vn -0.8864 0.3672 -0.2817
vn -0.2817 0.3672 0.8864
vn 0.2817 0.3672 -0.8864
vn 0.8864 0.2818 -0.3672
vn 0.8865 -0.3672 -0.2818
vn 0.2817 -0.3672 0.8864
vn 0.8865 0.3672 0.2818
vn -0.3672 -0.8865 -0.2817
vn -0.8865 -0.2817 -0.3671
vn -0.2818 -0.8865 0.3671
vn -0.3672 -0.2818 0.8864
vn -0.8865 -0.3672 0.2817
vn -0.3672 0.2818 -0.8864
vn 0.8865 -0.3672 -0.2817
vn 0.2818 -0.8865 -0.3672
vn 0.8865 -0.2817 0.3671
vn 0.8865 0.2817 -0.3671
vn 0.8865 0.3672 0.2817
vn -0.2817 -0.8864 0.3672
vn 0.8864 -0.3672 -0.2818
vn 0.8865 0.2817 -0.3672
vn 0.8864 0.3672 0.2818
vn 0.2817 0.8864 0.3672
vn -0.2818 0.8865 -0.3671
vn -0.3672 0.8865 0.2818
vn 0.3672 0.2817 0.8864
vn 0.2818 0.8865 0.3671
vn -0.2818 -0.8864 0.3672
vn -0.3672 0.2818 -0.8865
vn -0.2818 0.3672 0.8865
vn 0.2818 0.8864 0.3672
vn -0.8865 0.3672 -0.2818
vn -0.3672 -0.8865 -0.2818
vn 0.2818 -0.8865 -0.3671
vn 0.8864 0.2817 -0.3672
vn -0.2818 -0.3672 -0.8865
s 0
f 1//1 5//1 7//1
f 2//2 5//2 4//2
f 3//3 5//3 6//3
f 8//4 12//4 14//4
f 9//5 12//5 11//5
f 10//6 12//6 13//6
f 15//7 19//7 21//7
f 16//8 19//8 18//8
f 17//9 19//9 20//9
f 22//10 26//10 28//10
f 23//11 26//11 25//11
f 24//12 26//12 27//12
f 29//13 33//13 35//13
f 30//14 33//14 32//14
f 31//15 33//15 34//15
f 36//16 40//16 42//16
f 37//17 40//17 39//17
f 38//18 40//18 41//18
f 43//19 47//19 49//19
f 44//20 47//20 46//20
f 45//21 47//21 48//21
f 50//22 54//22 56//22
f 51//23 54//23 53//23
f 52//24 54//24 55//24
f 1//25 18//25 15//25
f 7//26 16//26 18//26
f 8//27 6//27 2//27
f 14//28 3//28 6//28
f 22//29 13//29 9//29
f 28//30 10//30 13//30
f 17//31 27//31 23//31
f 20//32 24//32 27//32
f 15//33 46//33 43//33
f 21//34 44//34 46//34
f 50//35 25//35 22//35
f 56//36 23//36 25//36
f 45//37 55//37 51//37
f 48//38 52//38 55//38
f 43//39 32//39 29//39
f 49//40 30//40 32//40
f 36//41 53//41 50//41
f 42//42 51//42 53//42
f 31//43 41//43 37//43
f 34//44 38//44 41//44
f 29//45 4//45 1//45
f 35//46 2//46 4//46
f 9//47 39//47 36//47
f 11//48 37//48 39//48
f 43//49 1//49 15//49
f 10//50 16//50 3//50
f 37//51 2//51 31//51
f 22//52 36//52 50//52
f 23//53 44//53 17//53
f 51//54 30//54 45//54
f 57//55 61//55 63//55
f 58//56 61//56 60//56
f 59//57 61//57 62//57
f 64//58 68//58 70//58
f 65//59 68//59 67//59
f 66//60 68//60 69//60
f 71//61 75//61 77//61
f 72//62 75//62 74//62
f 73//63 75//63 76//63
f 78//10 82//10 84//10
f 79//64 82//64 81//64
f 80//65 82//65 83//65
f 85//13 89//13 91//13
f 86//66 89//66 88//66
f 87//67 89//67 90//67
f 92//16 96//16 98//16
f 93//68 96//68 95//68
f 94//69 96//69 97//69
f 99//70 103//70 105//70
f 100//71 103//71 102//71
f 101//72 103//72 104//72
f 106//73 110//73 112//73
f 107//74 110//74 109//74
f 108//24 110//24 111//24
f 57//25 74//25 71//25
f 63//26 72//26 74//26
f 58//27 70//27 62//27
f 70//28 59//28 62//28
f 78//29 69//29 65//29
f 84//30 66//30 69//30
f 73//31 83//31 79//31
f 83//32 72//32 80//32
f 71//33 102//33 99//33
f 77//75 100//75 102//75
f 106//35 81//35 78//35
f 112//76 79//76 81//76
f 101//77 111//77 107//77
f 111//38 100//38 108//38
f 99//39 88//39 85//39
f 105//40 86//40 88//40
f 92//41 109//41 106//41
f 98//42 107//42 109//42
f 87//78 97//78 93//78
f 97//44 86//44 94//44
f 85//45 60//45 57//45
f 91//79 58//79 60//79
f 65//47 95//47 92//47
f 67//80 93//80 95//80
f 99//49 57//49 71//49
f 66//50 72//50 59//50
f 93//51 58//51 87//51
f 78//52 92//52 106//52
f 79//53 100//53 73//53
f 107//54 86//54 101//54
f 113//1 117//1 119//1
f 114//81 117//81 116//81
f 115//82 117//82 118//82
f 120//58 124//58 126//58
f 121//59 124//59 123//59
f 122//60 124//60 125//60
f 127//61 131//61 133//61
f 128//62 131//62 130//62
f 129//9 131//9 132//9
f 134//10 138//10 140//10
f 135//83 138//83 137//83
f 136//84 138//84 139//84
f 141//13 145//13 147//13
f 142//85 145//85 144//85
f 143//67 145//67 146//67
f 148//86 152//86 154//86
f 149//87 152//87 151//87
f 150//88 152//88 153//88
f 155//89 159//89 161//89
f 156//20 159//20 158//20
f 157//90 159//90 160//90
f 162//73 166//73 168//73
f 163//23 166//23 165//23
f 164//91 166//91 167//91
f 113//25 130//25 127//25
f 119//26 128//26 130//26
f 120//27 118//27 114//27
f 126//92 115//92 118//92
f 134//29 125//29 121//29
f 140//30 122//30 125//30
f 129//31 139//31 135//31
f 132//93 136//93 139//93
f 127//33 158//33 155//33
f 133//75 156//75 158//75
f 162//35 137//35 134//35
f 168//76 135//76 137//76
f 157//77 167//77 163//77
f 160//38 164//38 167//38
f 155//39 144//39 141//39
f 161//40 142//40 144//40
f 148//41 165//41 162//41
f 154//42 163//42 165//42
f 143//78 153//78 149//78
f 146//94 150//94 153//94
f 141//45 116//45 113//45
f 147//79 114//79 116//79
f 121//47 151//47 148//47
f 123//80 149//80 151//80
f 155//49 113//49 127//49
f 122//50 128//50 115//50
f 149//51 114//51 143//51
f 134//52 148//52 162//52
f 135//53 156//53 129//53
f 163//54 142//54 157//54
f 169//1 173//1 175//1
f 170//56 173//56 172//56
f 171//95 173//95 174//95
f 176//58 180//58 182//58
f 177//96 180//96 179//96
f 178//60 180//60 181//60
f 183//61 187//61 189//61
f 184//62 187//62 186//62
f 185//9 187//9 188//9
f 190//10 194//10 196//10
f 191//64 194//64 193//64
f 192//12 194//12 195//12
f 197//97 201//97 203//97
f 198//66 201//66 200//66
f 199//67 201//67 202//67
f 204//86 208//86 210//86
f 205//68 208//68 207//68
f 206//18 208//18 209//18
f 211//89 215//89 217//89
f 212//71 215//71 214//71
f 213//21 215//21 216//21
f 218//73 222//73 224//73
f 219//98 222//98 221//98
f 220//91 222//91 223//91
f 169//25 186//25 183//25
f 175//26 184//26 186//26
f 170//27 182//27 174//27
f 182//28 171//28 174//28
f 190//29 181//29 177//29
f 196//30 178//30 181//30
f 185//31 195//31 191//31
f 188//32 192//32 195//32
f 183//33 214//33 211//33
f 189//75 212//75 214//75
f 218//35 193//35 190//35
f 224//76 191//76 193//76
f 213//77 223//77 219//77
f 223//38 212//38 220//38
f 211//39 200//39 197//39
f 217//40 198//40 200//40
f 204//41 221//41 218//41
f 210//42 219//42 221//42
f 199//78 209//78 205//78
f 202//44 206//44 209//44
f 197//45 172//45 169//45
f 203//79 170//79 172//79
f 177//47 207//47 204//47
f 179//80 205//80 207//80
f 211//49 169//49 183//49
f 178//50 184//50 171//50
f 205//51 170//51 199//51
f 190//52 204//52 218//52
f 191//53 212//53 185//53
f 219//54 198//54 213//54
f 225//1 229//1 231//1
f 226//56 229//56 228//56
f 227//95 229//95 230//95
f 232//58 236//58 238//58
f 233//96 236//96 235//96
f 234//60 236//60 237//60
f 239//7 243//7 245//7
f 240//62 243//62 242//62
f 241//9 243//9 244//9
f 246//10 250//10 252//10
f 247//64 250//64 249//64
f 248//12 250//12 251//12
f 253//97 257//97 259//97
f 254//85 257//85 256//85
f 255//67 257//67 258//67
f 260//86 264//86 266//86
f 261//68 264//68 263//68
f 262//99 264//99 265//99
f 267//89 271//89 273//89
f 268//71 271//71 270//71
f 269//100 271//100 272//100
f 274//101 278//101 280//101
f 275//74 278//74 277//74
f 276//91 278//91 279//91
f 225//25 242//25 239//25
f 231//26 240//26 242//26
f 232//27 230//27 226//27
f 238//92 227//92 230//92
f 246//29 237//29 233//29
f 237//30 248//30 234//30
f 241//31 251//31 247//31
f 244//93 248//93 251//93
f 239//33 270//33 267//33
f 245//75 268//75 270//75
f 274//35 249//35 246//35
f 280//76 247//76 249//76
f 269//77 279//77 275//77
f 272//38 276//38 279//38
f 267//39 256//39 253//39
f 273//40 254//40 256//40
f 274//41 266//41 277//41
f 266//42 275//42 277//42
f 255//78 265//78 261//78
f 258//94 262//94 265//94
f 253//45 228//45 225//45
f 259//79 226//79 228//79
f 233//47 263//47 260//47
f 235//80 261//80 263//80
f 267//49 225//49 239//49
f 234//50 240//50 227//50
f 261//51 226//51 255//51
f 246//52 260//52 274//52
f 247//53 268//53 241//53
f 275//54 254//54 269//54
f 281//55 285//55 287//55
f 282//56 285//56 284//56
f 283//57 285//57 286//57
f 288//4 292//4 294//4
f 289//59 292//59 291//59
f 290//60 292//60 293//60
f 295//61 299//61 301//61
f 296//62 299//62 298//62
f 297//9 299//9 300//9
f 302//102 306//102 308//102
f 303//64 306//64 305//64
f 304//65 306//65 307//65
f 309//13 313//13 315//13
f 310//85 313//85 312//85
f 311//103 313//103 314//103
f 316//16 320//16 322//16
f 317//68 320//68 319//68
f 318//69 320//69 321//69
f 323//70 327//70 329//70
f 324//71 327//71 326//71
f 325//72 327//72 328//72
f 330//73 334//73 336//73
f 331//98 334//98 333//98
f 332//91 334//91 335//91
f 281//25 298//25 295//25
f 287//26 296//26 298//26
f 282//27 294//27 286//27
f 294//28 283//28 286//28
f 302//29 293//29 289//29
f 308//30 290//30 293//30
f 297//31 307//31 303//31
f 307//32 296//32 304//32
f 295//33 326//33 323//33
f 301//75 324//75 326//75
f 330//35 305//35 302//35
f 336//76 303//76 305//76
f 325//77 335//77 331//77
f 335//38 324//38 332//38
f 323//39 312//39 309//39
f 329//40 310//40 312//40
f 316//41 333//41 330//41
f 322//42 331//42 333//42
f 311//78 321//78 317//78
f 321//44 310//44 318//44
f 309//45 284//45 281//45
f 315//79 282//79 284//79
f 289//47 319//47 316//47
f 291//80 317//80 319//80
f 323//49 281//49 295//49
f 290//50 296//50 283//50
f 317//51 282//51 311//51
f 302//52 316//52 330//52
f 303//53 324//53 297//53
f 331//54 310//54 325//54
f 337//1 341//1 343//1
f 338//81 341//81 340//81
f 339//82 341//82 342//82
f 344//58 348//58 350//58
f 345//59 348//59 347//59
f 346//60 348//60 349//60
f 351//61 355//61 357//61
f 352//62 355//62 354//62
f 353//9 355//9 356//9
f 358//10 362//10 364//10
f 359//83 362//83 361//83
f 360//84 362//84 363//84
f 365//13 369//13 371//13
f 366//14 369//14 368//14
f 367//67 369//67 370//67
f 372//86 376//86 378//86
f 373//87 376//87 375//87
f 374//88 376//88 377//88
f 379//89 383//89 385//89
f 380//20 383//20 382//20
f 381//90 383//90 384//90
f 386//73 390//73 392//73
f 387//74 390//74 389//74
f 388//91 390//91 391//91
f 337//25 354//25 351//25
f 343//26 352//26 354//26
f 344//27 342//27 338//27
f 350//92 339//92 342//92
f 358//29 349//29 345//29
f 364//30 346//30 349//30
f 353//31 363//31 359//31
f 356//93 360//93 363//93
f 351//33 382//33 379//33
f 357//75 380//75 382//75
f 386//35 361//35 358//35
f 392//76 359//76 361//76
f 381//77 391//77 387//77
f 384//38 388//38 391//38
f 379//39 368//39 365//39
f 385//40 366//40 368//40
f 372//41 389//41 386//41
f 378//42 387//42 389//42
f 367//78 377//78 373//78
f 370//94 374//94 377//94
f 365//45 340//45 337//45
f 371//79 338//79 340//79
f 345//47 375//47 372//47
f 347//80 373//80 375//80
f 379//49 337//49 351//49
f 346//50 352//50 339//50
f 373//51 338//51 367//51
f 358//52 372//52 386//52
f 359//53 380//53 353//53
f 387//54 366//54 381//54
f 393//104 397//104 399//104
f 394//2 397//2 396//2
f 395//3 397//3 398//3
f 400//4 404//4 406//4
f 401//5 404//5 403//5
f 402//6 404//6 405//6
f 407//61 411//61 413//61
f 408//105 411//105 410//105
f 409//63 411//63 412//63
f 414//106 418//106 420//106
f 415//107 418//107 417//107
f 416//108 418//108 419//108
f 421//97 425//97 427//97
f 422//109 425//109 424//109
f 423//15 425//15 426//15
f 428//86 432//86 434//86
f 429//17 432//17 431//17
f 430//110 432//110 433//110
f 435//70 439//70 441//70
f 436//111 439//111 438//111
f 437//112 439//112 440//112
f 442//22 446//22 448//22
f 443//113 446//113 445//113
f 444//24 446//24 447//24
f 393//25 410//25 407//25
f 399//26 408//26 410//26
f 400//27 398//27 394//27
f 406//92 395//92 398//92
f 414//29 405//29 401//29
f 420//30 402//30 405//30
f 409//31 419//31 415//31
f 412//93 416//93 419//93
f 407//33 438//33 435//33
f 413//34 436//34 438//34
f 442//35 417//35 414//35
f 448//36 415//36 417//36
f 437//77 447//77 443//77
f 440//38 444//38 447//38
f 435//39 424//39 421//39
f 441//40 422//40 424//40
f 428//41 445//41 442//41
f 434//42 443//42 445//42
f 423//78 433//78 429//78
f 426//94 430//94 433//94
f 421//45 396//45 393//45
f 427//46 394//46 396//46
f 401//47 431//47 428//47
f 403//48 429//48 431//48
f 435//49 393//49 407//49
f 402//50 408//50 395//50
f 429//51 394//51 423//51
f 414//52 428//52 442//52
f 415//53 436//53 409//53
f 443//54 422//54 437//54
f 449//104 453//104 455//104
f 450//56 453//56 452//56
f 451//82 453//82 454//82
f 456//4 460//4 462//4
f 457//59 460//59 459//59
f 458//60 460//60 461//60
f 463//61 467//61 469//61
f 464//62 467//62 466//62
f 465//63 467//63 468//63
f 470//106 474//106 476//106
f 471//114 474//114 473//114
f 472//84 474//84 475//84
f 477//13 481//13 483//13
f 478//115 481//115 480//115
f 479//67 481//67 482//67
f 484//16 488//16 490//16
f 485//116 488//116 487//116
f 486//117 488//117 489//117
f 491//19 495//19 497//19
f 492//71 495//71 494//71
f 493//118 495//118 496//118
f 498//73 502//73 504//73
f 499//98 502//98 501//98
f 500//24 502//24 503//24
f 449//25 466//25 463//25
f 455//26 464//26 466//26
f 450//27 462//27 454//27
f 462//28 451//28 454//28
f 470//29 461//29 457//29
f 476//30 458//30 461//30
f 465//31 475//31 471//31
f 468//32 472//32 475//32
f 463//33 494//33 491//33
f 469//75 492//75 494//75
f 498//35 473//35 470//35
f 504//76 471//76 473//76
f 493//77 503//77 499//77
f 503//38 492//38 500//38
f 491//39 480//39 477//39
f 497//40 478//40 480//40
f 484//41 501//41 498//41
f 490//42 499//42 501//42
f 479//78 489//78 485//78
f 489//44 478//44 486//44
f 477//45 452//45 449//45
f 483//79 450//79 452//79
f 457//47 487//47 484//47
f 459//80 485//80 487//80
f 491//49 449//49 463//49
f 458//50 464//50 451//50
f 485//51 450//51 479//51
f 470//52 484//52 498//52
f 471//53 492//53 465//53
f 499//54 478//54 493//54
f 505//55 509//55 511//55
f 506//81 509//81 508//81
f 507//82 509//82 510//82
f 512//4 516//4 518//4
f 513//59 516//59 515//59
f 514//60 516//60 517//60
f 519//61 523//61 525//61
f 520//119 523//119 522//119
f 521//9 523//9 524//9
f 526//102 530//102 532//102
f 527//83 530//83 529//83
f 528//12 530//12 531//12
f 533//97 537//97 539//97
f 534//66 537//66 536//66
f 535//120 537//120 538//120
f 540//121 544//121 546//121
f 541//17 544//17 543//17
f 542//117 544//117 545//117
f 547//70 551//70 553//70
f 548//111 551//111 550//111
f 549//112 551//112 552//112
f 554//73 558//73 560//73
f 555//122 558//122 557//122
f 556//91 558//91 559//91
f 505//25 522//25 519//25
f 511//26 520//26 522//26
f 512//27 510//27 506//27
f 518//28 507//28 510//28
f 526//29 517//29 513//29
f 532//30 514//30 517//30
f 521//31 531//31 527//31
f 524//32 528//32 531//32
f 547//33 525//33 550//33
f 525//75 548//75 550//75
f 526//35 560//35 529//35
f 560//76 527//76 529//76
f 549//77 559//77 555//77
f 552//38 556//38 559//38
f 547//39 536//39 533//39
f 553//40 534//40 536//40
f 540//41 557//41 554//41
f 546//42 555//42 557//42
f 535//78 545//78 541//78
f 538//44 542//44 545//44
f 505//45 539//45 508//45
f 539//79 506//79 508//79
f 513//47 543//47 540//47
f 515//80 541//80 543//80
f 547//49 505//49 519//49
f 514//50 520//50 507//50
f 541//51 506//51 535//51
f 526//52 540//52 554//52
f 527//53 548//53 521//53
f 555//54 534//54 549//54
f 561//123 565//123 567//123
f 562//56 565//56 564//56
f 563//3 565//3 566//3
f 568//4 572//4 574//4
f 569//124 572//124 571//124
f 570//60 572//60 573//60
f 575//61 579//61 581//61
f 576//62 579//62 578//62
f 577//63 579//63 580//63
f 582//10 586//10 588//10
f 583//125 586//125 585//125
f 584//108 586//108 587//108
f 589//13 593//13 595//13
f 590//115 593//115 592//115
f 591//67 593//67 594//67
f 596//86 600//86 602//86
f 597//126 600//126 599//126
f 598//110 600//110 601//110
f 603//89 607//89 609//89
f 604//71 607//71 606//71
f 605//112 607//112 608//112
f 610//101 614//101 616//101
f 611//98 614//98 613//98
f 612//24 614//24 615//24
f 561//25 578//25 575//25
f 567//26 576//26 578//26
f 562//27 574//27 566//27
f 574//28 563//28 566//28
f 582//29 573//29 569//29
f 588//30 570//30 573//30
f 577//31 587//31 583//31
f 587//32 576//32 584//32
f 575//33 606//33 603//33
f 581//75 604//75 606//75
f 610//35 585//35 582//35
f 616//76 583//76 585//76
f 605//77 615//77 611//77
f 615//38 604//38 612//38
f 603//39 592//39 589//39
f 609//40 590//40 592//40
f 596//41 613//41 610//41
f 602//42 611//42 613//42
f 591//78 601//78 597//78
f 601//44 590//44 598//44
f 589//45 564//45 561//45
f 595//79 562//79 564//79
f 569//47 599//47 596//47
f 571//80 597//80 599//80
f 603//49 561//49 575//49
f 570//50 576//50 563//50
f 597//51 562//51 591//51
f 582//52 596//52 610//52
f 583//53 604//53 577//53
f 611//54 590//54 605//54
f 617//1 621//1 623//1
f 618//56 621//56 620//56
f 619//95 621//95 622//95
f 624//4 628//4 630//4
f 625//96 628//96 627//96
f 626//60 628//60 629//60
f 631//7 635//7 637//7
f 632//127 635//127 634//127
f 633//9 635//9 636//9
f 638//10 642//10 644//10
f 639//64 642//64 641//64
f 640//12 642//12 643//12
f 645//97 649//97 651//97
f 646//66 649//66 648//66
f 647//67 649//67 650//67
f 652//86 656//86 658//86
f 653//68 656//68 655//68
f 654//110 656//110 657//110
f 659//89 663//89 665//89
f 660//71 663//71 662//71
f 661//112 663//112 664//112
f 666//101 670//101 672//101
f 667//122 670//122 669//122
f 668//91 670//91 671//91
f 617//25 634//25 631//25
f 623//26 632//26 634//26
f 624//27 622//27 618//27
f 630//28 619//28 622//28
f 638//29 629//29 625//29
f 644//30 626//30 629//30
f 633//31 643//31 639//31
f 636//32 640//32 643//32
f 659//33 637//33 662//33
f 637//75 660//75 662//75
f 638//35 672//35 641//35
f 672//76 639//76 641//76
f 661//77 671//77 667//77
f 664//38 668//38 671//38
f 659//39 648//39 645//39
f 665//40 646//40 648//40
f 652//41 669//41 666//41
f 658//42 667//42 669//42
f 647//78 657//78 653//78
f 650//44 654//44 657//44
f 617//45 651//45 620//45
f 651//79 618//79 620//79
f 625//47 655//47 652//47
f 627//80 653//80 655//80
f 659//49 617//49 631//49
f 626//50 632//50 619//50
f 653//51 618//51 647//51
f 638//52 652//52 666//52
f 639//53 660//53 633//53
f 667//54 646//54 661//54
f 673//104 677//104 679//104
f 674//56 677//56 676//56
f 675//82 677//82 678//82
f 680//4 684//4 686//4
f 681//59 684//59 683//59
f 682//60 684//60 685//60
f 687//61 691//61 693//61
f 688//62 691//62 690//62
f 689//63 691//63 692//63
f 694//106 698//106 700//106
f 695//114 698//114 697//114
f 696//84 698//84 699//84
f 701//13 705//13 707//13
f 702//115 705//115 704//115
f 703//15 705//15 706//15
f 708//16 712//16 714//16
f 709//116 712//116 711//116
f 710//117 712//117 713//117
f 715//19 719//19 721//19
f 716//71 719//71 718//71
f 717//118 719//118 720//118
f 722//73 726//73 728//73
f 723//98 726//98 725//98
f 724//24 726//24 727//24
f 673//25 690//25 687//25
f 679//26 688//26 690//26
f 674//27 686//27 678//27
f 686//28 675//28 678//28
f 694//29 685//29 681//29
f 700//30 682//30 685//30
f 689//31 699//31 695//31
f 699//32 688//32 696//32
f 687//33 718//33 715//33
f 693//75 716//75 718//75
f 722//35 697//35 694//35
f 728//76 695//76 697//76
f 717//77 727//77 723//77
f 727//38 716//38 724//38
f 715//39 704//39 701//39
f 721//40 702//40 704//40
f 708//41 725//41 722//41
f 714//42 723//42 725//42
f 703//78 713//78 709//78
f 713//44 702//44 710//44
f 701//45 676//45 673//45
f 707//79 674//79 676//79
f 681//47 711//47 708//47
f 683//80 709//80 711//80
f 715//49 673//49 687//49
f 682//50 688//50 675//50
f 709//51 674//51 703//51
f 694//52 708//52 722//52
f 695//53 716//53 689//53
f 723//54 702//54 717//54
f 729//55 733//55 735//55
f 730//81 733//81 732//81
f 731//95 733//95 734//95
f 736//128 740//128 742//128
f 737//59 740//59 739//59
f 738//60 740//60 741//60
f 743//7 747//7 749//7
f 744//127 747//127 746//127
f 745//129 747//129 748//129
f 750//102 754//102 756//102
f 751//83 754//83 753//83
f 752//84 754//84 755//84
f 757//13 761//13 763//13
f 758//66 761//66 760//66
f 759//67 761//67 762//67
f 764//121 768//121 770//121
f 765//17 768//17 767//17
f 766//110 768//110 769//110
f 771//70 775//70 777//70
f 772//111 775//111 774//111
f 773//100 775//100 776//100
f 778//101 782//101 784//101
f 779//122 782//122 781//122
f 780//130 782//130 783//130
f 729//25 746//25 743//25
f 735//26 744//26 746//26
f 736//27 734//27 730//27
f 742//28 731//28 734//28
f 750//29 741//29 737//29
f 756//30 738//30 741//30
f 745//31 755//31 751//31
f 748//32 752//32 755//32
f 771//33 749//33 774//33
f 749//75 772//75 774//75
f 750//35 784//35 753//35
f 784//76 751//76 753//76
f 773//77 783//77 779//77
f 776//38 780//38 783//38
f 771//39 760//39 757//39
f 777//40 758//40 760//40
f 764//41 781//41 778//41
f 770//42 779//42 781//42
f 759//78 769//78 765//78
f 762//44 766//44 769//44
f 729//45 763//45 732//45
f 763//79 730//79 732//79
f 737//47 767//47 764//47
f 739//80 765//80 767//80
f 771//49 729//49 743//49
f 738//50 744//50 731//50
f 765//51 730//51 759//51
f 750//52 764//52 778//52
f 751//53 772//53 745//53
f 779//54 758//54 773//54
f 785//104 789//104 791//104
f 786//56 789//56 788//56
f 787//82 789//82 790//82
f 792//58 796//58 798//58
f 793//59 796//59 795//59
f 794//60 796//60 797//60
f 799//61 803//61 805//61
f 800//62 803//62 802//62
f 801//63 803//63 804//63
f 806//106 810//106 812//106
f 807//64 810//64 809//64
f 808//84 810//84 811//84
f 813//13 817//13 819//13
f 814//115 817//115 816//115
f 815//15 817//15 818//15
f 820//16 824//16 826//16
f 821//68 824//68 823//68
f 822//110 824//110 825//110
f 827//70 831//70 833//70
f 828//71 831//71 830//71
f 829//112 831//112 832//112
f 834//73 838//73 840//73
f 835//98 838//98 837//98
f 836//24 838//24 839//24
f 785//25 802//25 799//25
f 791//26 800//26 802//26
f 792//27 790//27 786//27
f 798//28 787//28 790//28
f 806//29 797//29 793//29
f 812//30 794//30 797//30
f 801//31 811//31 807//31
f 804//32 808//32 811//32
f 799//33 830//33 827//33
f 805//75 828//75 830//75
f 834//35 809//35 806//35
f 840//76 807//76 809//76
f 829//77 839//77 835//77
f 832//38 836//38 839//38
f 827//39 816//39 813//39
f 833//40 814//40 816//40
f 820//41 837//41 834//41
f 826//42 835//42 837//42
f 815//78 825//78 821//78
f 818//44 822//44 825//44
f 813//45 788//45 785//45
f 819//79 786//79 788//79
f 793//47 823//47 820//47
f 795//80 821//80 823//80
f 827//49 785//49 799//49
f 794//50 800//50 787//50
f 821//51 786//51 815//51
f 806//52 820//52 834//52
f 807//53 828//53 801//53
f 835//54 814//54 829//54
f 841//104 845//104 847//104
f 842//56 845//56 844//56
f 843//3 845//3 846//3
f 848//58 852//58 854//58
f 849//59 852//59 851//59
f 850//60 852//60 853//60
f 855//131 859//131 861//131
f 856//62 859//62 858//62
f 857//9 859//9 860//9
f 862//106 866//106 868//106
f 863//64 866//64 865//64
f 864//108 866//108 867//108
f 869//13 873//13 875//13
f 870//115 873//115 872//115
f 871//15 873//15 874//15
f 876//86 880//86 882//86
f 877//68 880//68 879//68
f 878//110 880//110 881//110
f 883//89 887//89 889//89
f 884//71 887//71 886//71
f 885//112 887//112 888//112
f 890//73 894//73 896//73
f 891//98 894//98 893//98
f 892//24 894//24 895//24
f 841//25 858//25 855//25
f 847//26 856//26 858//26
f 848//27 846//27 842//27
f 854//28 843//28 846//28
f 862//29 853//29 849//29
f 868//30 850//30 853//30
f 857//31 867//31 863//31
f 860//32 864//32 867//32
f 855//33 886//33 883//33
f 861//75 884//75 886//75
f 890//35 865//35 862//35
f 896//76 863//76 865//76
f 885//77 895//77 891//77
f 888//38 892//38 895//38
f 883//39 872//39 869//39
f 889//40 870//40 872//40
f 876//41 893//41 890//41
f 882//42 891//42 893//42
f 871//78 881//78 877//78
f 874//44 878//44 881//44
f 869//45 844//45 841//45
f 875//79 842//79 844//79
f 849//47 879//47 876//47
f 851//80 877//80 879//80
f 883//49 841//49 855//49
f 850//50 856//50 843//50
f 877//51 842//51 871//51
f 862//52 876//52 890//52
f 863//53 884//53 857//53
f 891//54 870//54 885//54
f 897//104 901//104 903//104
f 898//56 901//56 900//56
f 899//82 901//82 902//82
f 904//4 908//4 910//4
f 905//59 908//59 907//59
f 906//60 908//60 909//60
f 911//61 915//61 917//61
f 912//62 915//62 914//62
f 913//9 915//9 916//9
f 918//106 922//106 924//106
f 919//64 922//64 921//64
f 920//84 922//84 923//84
f 925//13 929//13 931//13
f 926//115 929//115 928//115
f 927//15 929//15 930//15
f 932//121 936//121 938//121
f 933//68 936//68 935//68
f 934//110 936//110 937//110
f 939//19 943//19 945//19
f 940//71 943//71 942//71
f 941//112 943//112 944//112
f 946//73 950//73 952//73
f 947//98 950//98 949//98
f 948//24 950//24 951//24
f 897//25 914//25 911//25
f 903//26 912//26 914//26
f 904//27 902//27 898//27
f 910//28 899//28 902//28
f 918//29 909//29 905//29
f 924//30 906//30 909//30
f 913//31 923//31 919//31
f 916//32 920//32 923//32
f 911//33 942//33 939//33
f 917//75 940//75 942//75
f 946//35 921//35 918//35
f 952//76 919//76 921//76
f 941//77 951//77 947//77
f 944//38 948//38 951//38
f 939//39 928//39 925//39
f 945//40 926//40 928//40
f 932//41 949//41 946//41
f 938//42 947//42 949//42
f 927//78 937//78 933//78
f 930//44 934//44 937//44
f 925//45 900//45 897//45
f 931//79 898//79 900//79
f 905//47 935//47 932//47
f 907//80 933//80 935//80
f 939//49 897//49 911//49
f 906//50 912//50 899//50
f 933//51 898//51 927//51
f 918//52 932//52 946//52
f 919//53 940//53 913//53
f 947//54 926//54 941//54
f 1//132 4//132 5//132
f 2//133 6//133 5//133
f 3//134 7//134 5//134
f 8//135 11//135 12//135
f 9//136 13//136 12//136
f 10//137 14//137 12//137
f 15//138 18//138 19//138
f 16//139 20//139 19//139
f 17//140 21//140 19//140
f 22//141 25//141 26//141
f 23//142 27//142 26//142
f 24//143 28//143 26//143
f 29//144 32//144 33//144
f 30//145 34//145 33//145
f 31//146 35//146 33//146
f 36//147 39//147 40//147
f 37//148 41//148 40//148
f 38//149 42//149 40//149
f 43//150 46//150 47//150
f 44//151 48//151 47//151
f 45//152 49//152 47//152
f 50//153 53//153 54//153
f 51//154 55//154 54//154
f 52//155 56//155 54//155
f 1//25 7//25 18//25
f 7//26 3//26 16//26
f 8//27 14//27 6//27
f 14//28 10//28 3//28
f 22//29 28//29 13//29
f 28//30 24//30 10//30
f 17//31 20//31 27//31
f 20//32 16//32 24//32
f 15//33 21//33 46//33
f 21//75 17//75 44//75
f 50//35 56//35 25//35
f 56//76 52//76 23//76
f 45//77 48//77 55//77
f 48//156 44//156 52//156
f 43//39 49//39 32//39
f 49//40 45//40 30//40
f 36//41 42//41 53//41
f 42//42 38//42 51//42
f 31//78 34//78 41//78
f 34//94 30//94 38//94
f 29//45 35//45 4//45
f 35//79 31//79 2//79
f 9//47 11//47 39//47
f 11//80 8//80 37//80
f 43//49 29//49 1//49
f 10//50 24//50 16//50
f 37//51 8//51 2//51
f 22//52 9//52 36//52
f 23//53 52//53 44//53
f 51//54 38//54 30//54
f 57//157 60//157 61//157
f 58//133 62//133 61//133
f 59//158 63//158 61//158
f 64//159 67//159 68//159
f 65//160 69//160 68//160
f 66//161 70//161 68//161
f 71//162 74//162 75//162
f 72//163 76//163 75//163
f 73//164 77//164 75//164
f 78//165 81//165 82//165
f 79//142 83//142 82//142
f 80//166 84//166 82//166
f 85//167 88//167 89//167
f 86//168 90//168 89//168
f 87//169 91//169 89//169
f 92//170 95//170 96//170
f 93//171 97//171 96//171
f 94//172 98//172 96//172
f 99//150 102//150 103//150
f 100//173 104//173 103//173
f 101//174 105//174 103//174
f 106//153 109//153 110//153
f 107//175 111//175 110//175
f 108//176 112//176 110//176
f 57//25 63//25 74//25
f 63//26 59//26 72//26
f 58//27 64//27 70//27
f 70//28 66//28 59//28
f 78//29 84//29 69//29
f 84//30 80//30 66//30
f 73//31 76//31 83//31
f 83//32 76//32 72//32
f 71//33 77//33 102//33
f 77//75 73//75 100//75
f 106//35 112//35 81//35
f 112//76 108//76 79//76
f 101//77 104//77 111//77
f 111//38 104//38 100//38
f 99//39 105//39 88//39
f 105//40 101//40 86//40
f 92//41 98//41 109//41
f 98//42 94//42 107//42
f 87//78 90//78 97//78
f 97//44 90//44 86//44
f 85//45 91//45 60//45
f 91//79 87//79 58//79
f 65//47 67//47 95//47
f 67//80 64//80 93//80
f 99//49 85//49 57//49
f 66//50 80//50 72//50
f 93//51 64//51 58//51
f 78//52 65//52 92//52
f 79//53 108//53 100//53
f 107//54 94//54 86//54
f 113//157 116//157 117//157
f 114//133 118//133 117//133
f 115//158 119//158 117//158
f 120//177 123//177 124//177
f 121//136 125//136 124//136
f 122//178 126//178 124//178
f 127//138 130//138 131//138
f 128//179 132//179 131//179
f 129//180 133//180 131//180
f 134//165 137//165 138//165
f 135//181 139//181 138//181
f 136//166 140//166 138//166
f 141//182 144//182 145//182
f 142//183 146//183 145//183
f 143//146 147//146 145//146
f 148//170 151//170 152//170
f 149//171 153//171 152//171
f 150//184 154//184 152//184
f 155//150 158//150 159//150
f 156//185 160//185 159//185
f 157//152 161//152 159//152
f 162//186 165//186 166//186
f 163//187 167//187 166//187
f 164//188 168//188 166//188
f 113//25 119//25 130//25
f 119//26 115//26 128//26
f 120//27 126//27 118//27
f 126//28 122//28 115//28
f 134//29 140//29 125//29
f 140//30 136//30 122//30
f 129//31 132//31 139//31
f 132//32 128//32 136//32
f 127//33 133//33 158//33
f 133//34 129//34 156//34
f 162//35 168//35 137//35
f 168//36 164//36 135//36
f 157//37 160//37 167//37
f 160//38 156//38 164//38
f 155//39 161//39 144//39
f 161//40 157//40 142//40
f 148//41 154//41 165//41
f 154//42 150//42 163//42
f 143//78 146//78 153//78
f 146//44 142//44 150//44
f 141//45 147//45 116//45
f 147//79 143//79 114//79
f 121//47 123//47 151//47
f 123//80 120//80 149//80
f 155//49 141//49 113//49
f 122//50 136//50 128//50
f 149//51 120//51 114//51
f 134//52 121//52 148//52
f 135//53 164//53 156//53
f 163//54 150//54 142//54
f 169//157 172//157 173//157
f 170//133 174//133 173//133
f 171//158 175//158 173//158
f 176//159 179//159 180//159
f 177//136 181//136 180//136
f 178//137 182//137 180//137
f 183//138 186//138 187//138
f 184//189 188//189 187//189
f 185//164 189//164 187//164
f 190//190 193//190 194//190
f 191//181 195//181 194//181
f 192//166 196//166 194//166
f 197//182 200//182 201//182
f 198//145 202//145 201//145
f 199//169 203//169 201//169
f 204//170 207//170 208//170
f 205//171 209//171 208//171
f 206//172 210//172 208//172
f 211//191 214//191 215//191
f 212//185 216//185 215//185
f 213//192 217//192 215//192
f 218//186 221//186 222//186
f 219//154 223//154 222//154
f 220//176 224//176 222//176
f 169//25 175//25 186//25
f 175//26 171//26 184//26
f 170//27 176//27 182//27
f 182//28 178//28 171//28
f 190//29 196//29 181//29
f 196//30 192//30 178//30
f 185//31 188//31 195//31
f 188//32 184//32 192//32
f 183//33 189//33 214//33
f 189//75 185//75 212//75
f 218//35 224//35 193//35
f 224//76 220//76 191//76
f 213//77 216//77 223//77
f 223//38 216//38 212//38
f 211//39 217//39 200//39
f 217//40 213//40 198//40
f 204//41 210//41 221//41
f 210//42 206//42 219//42
f 199//78 202//78 209//78
f 202//44 198//44 206//44
f 197//45 203//45 172//45
f 203//79 199//79 170//79
f 177//47 179//47 207//47
f 179//80 176//80 205//80
f 211//49 197//49 169//49
f 178//50 192//50 184//50
f 205//51 176//51 170//51
f 190//52 177//52 204//52
f 191//53 220//53 212//53
f 219//54 206//54 198//54
f 225//132 228//132 229//132
f 226//133 230//133 229//133
f 227//158 231//158 229//158
f 232//159 235//159 236//159
f 233//136 237//136 236//136
f 234//137 238//137 236//137
f 239//138 242//138 243//138
f 240//189 244//189 243//189
f 241//164 245//164 243//164
f 246//190 249//190 250//190
f 247//181 251//181 250//181
f 248//166 252//166 250//166
f 253//182 256//182 257//182
f 254//193 258//193 257//193
f 255//169 259//169 257//169
f 260//194 263//194 264//194
f 261//171 265//171 264//171
f 262//184 266//184 264//184
f 267//191 270//191 271//191
f 268//185 272//185 271//185
f 269//174 273//174 271//174
f 274//186 277//186 278//186
f 275//195 279//195 278//195
f 276//176 280//176 278//176
f 225//25 231//25 242//25
f 231//26 227//26 240//26
f 232//27 238//27 230//27
f 238//28 234//28 227//28
f 246//29 252//29 237//29
f 237//30 252//30 248//30
f 241//31 244//31 251//31
f 244//32 240//32 248//32
f 239//33 245//33 270//33
f 245//75 241//75 268//75
f 274//35 280//35 249//35
f 280//76 276//76 247//76
f 269//37 272//37 279//37
f 272//38 268//38 276//38
f 267//39 273//39 256//39
f 273//40 269//40 254//40
f 274//41 260//41 266//41
f 266//42 262//42 275//42
f 255//78 258//78 265//78
f 258//44 254//44 262//44
f 253//45 259//45 228//45
f 259//79 255//79 226//79
f 233//47 235//47 263//47
f 235//80 232//80 261//80
f 267//49 253//49 225//49
f 234//50 248//50 240//50
f 261//51 232//51 226//51
f 246//52 233//52 260//52
f 247//53 276//53 268//53
f 275//54 262//54 254//54
f 281//157 284//157 285//157
f 282//196 286//196 285//196
f 283//158 287//158 285//158
f 288//159 291//159 292//159
f 289//136 293//136 292//136
f 290//161 294//161 292//161
f 295//162 298//162 299//162
f 296//163 300//163 299//163
f 297//164 301//164 299//164
f 302//165 305//165 306//165
f 303//181 307//181 306//181
f 304//166 308//166 306//166
f 309//167 312//167 313//167
f 310//168 314//168 313//168
f 311//169 315//169 313//169
f 316//170 319//170 320//170
f 317//148 321//148 320//148
f 318//184 322//184 320//184
f 323//150 326//150 327//150
f 324//185 328//185 327//185
f 325//192 329//192 327//192
f 330//153 333//153 334//153
f 331//175 335//175 334//175
f 332//176 336//176 334//176
f 281//25 287//25 298//25
f 287//26 283//26 296//26
f 282//27 288//27 294//27
f 294//28 290//28 283//28
f 302//29 308//29 293//29
f 308//30 304//30 290//30
f 297//31 300//31 307//31
f 307//32 300//32 296//32
f 295//33 301//33 326//33
f 301//75 297//75 324//75
f 330//35 336//35 305//35
f 336//76 332//76 303//76
f 325//77 328//77 335//77
f 335//38 328//38 324//38
f 323//39 329//39 312//39
f 329//40 325//40 310//40
f 316//41 322//41 333//41
f 322//42 318//42 331//42
f 311//78 314//78 321//78
f 321//44 314//44 310//44
f 309//45 315//45 284//45
f 315//79 311//79 282//79
f 289//47 291//47 319//47
f 291//80 288//80 317//80
f 323//49 309//49 281//49
f 290//50 304//50 296//50
f 317//51 288//51 282//51
f 302//52 289//52 316//52
f 303//53 332//53 324//53
f 331//54 318//54 310//54
f 337//157 340//157 341//157
f 338//133 342//133 341//133
f 339//158 343//158 341//158
f 344//177 347//177 348//177
f 345//136 349//136 348//136
f 346//178 350//178 348//178
f 351//138 354//138 355//138
f 352//179 356//179 355//179
f 353//180 357//180 355//180
f 358//165 361//165 362//165
f 359//181 363//181 362//181
f 360//166 364//166 362//166
f 365//182 368//182 369//182
f 366//183 370//183 369//183
f 367//146 371//146 369//146
f 372//170 375//170 376//170
f 373//171 377//171 376//171
f 374//149 378//149 376//149
f 379//150 382//150 383//150
f 380//185 384//185 383//185
f 381//174 385//174 383//174
f 386//186 389//186 390//186
f 387//187 391//187 390//187
f 388//188 392//188 390//188
f 337//25 343//25 354//25
f 343//26 339//26 352//26
f 344//27 350//27 342//27
f 350//28 346//28 339//28
f 358//29 364//29 349//29
f 364//30 360//30 346//30
f 353//31 356//31 363//31
f 356//32 352//32 360//32
f 351//33 357//33 382//33
f 357//75 353//75 380//75
f 386//35 392//35 361//35
f 392//76 388//76 359//76
f 381//37 384//37 391//37
f 384//38 380//38 388//38
f 379//39 385//39 368//39
f 385//40 381//40 366//40
f 372//41 378//41 389//41
f 378//42 374//42 387//42
f 367//78 370//78 377//78
f 370//44 366//44 374//44
f 365//45 371//45 340//45
f 371//46 367//46 338//46
f 345//47 347//47 375//47
f 347//48 344//48 373//48
f 379//49 365//49 337//49
f 346//50 360//50 352//50
f 373//51 344//51 338//51
f 358//52 345//52 372//52
f 359//53 388//53 380//53
f 387//54 374//54 366//54
f 393//157 396//157 397//157
f 394//196 398//196 397//196
f 395//197 399//197 397//197
f 400//198 403//198 404//198
f 401//199 405//199 404//199
f 402//200 406//200 404//200
f 407//201 410//201 411//201
f 408//139 412//139 411//139
f 409//140 413//140 411//140
f 414//141 417//141 418//141
f 415//142 419//142 418//142
f 416//143 420//143 418//143
f 421//167 424//167 425//167
f 422//202 426//202 425//202
f 423//203 427//203 425//203
f 428//147 431//147 432//147
f 429//148 433//148 432//148
f 430//204 434//204 432//204
f 435//191 438//191 439//191
f 436//151 440//151 439//151
f 437//205 441//205 439//205
f 442//186 445//186 446//186
f 443//206 447//206 446//206
f 444//155 448//155 446//155
f 393//25 399//25 410//25
f 399//26 395//26 408//26
f 400//27 406//27 398//27
f 406//28 402//28 395//28
f 414//29 420//29 405//29
f 420//30 416//30 402//30
f 409//31 412//31 419//31
f 412//32 408//32 416//32
f 407//33 413//33 438//33
f 413//75 409//75 436//75
f 442//35 448//35 417//35
f 448//76 444//76 415//76
f 437//77 440//77 447//77
f 440//38 436//38 444//38
f 435//39 441//39 424//39
f 441//40 437//40 422//40
f 428//41 434//41 445//41
f 434//42 430//42 443//42
f 423//78 426//78 433//78
f 426//44 422//44 430//44
f 421//45 427//45 396//45
f 427//79 423//79 394//79
f 401//47 403//47 431//47
f 403//80 400//80 429//80
f 435//49 421//49 393//49
f 402//50 416//50 408//50
f 429//51 400//51 394//51
f 414//52 401//52 428//52
f 415//53 444//53 436//53
f 443//54 430//54 422//54
f 449//157 452//157 453//157
f 450//196 454//196 453//196
f 451//158 455//158 453//158
f 456//207 459//207 460//207
f 457//199 461//199 460//199
f 458//178 462//178 460//178
f 463//201 466//201 467//201
f 464//179 468//179 467//179
f 465//164 469//164 467//164
f 470//165 473//165 474//165
f 471//142 475//142 474//142
f 472//166 476//166 474//166
f 477//144 480//144 481//144
f 478//208 482//208 481//208
f 479//169 483//169 481//169
f 484//170 487//170 488//170
f 485//148 489//148 488//148
f 486//172 490//172 488//172
f 491//150 494//150 495//150
f 492//151 496//151 495//151
f 493//209 497//209 495//209
f 498//153 501//153 502//153
f 499//210 503//210 502//210
f 500//211 504//211 502//211
f 449//25 455//25 466//25
f 455//26 451//26 464//26
f 450//27 456//27 462//27
f 462//28 458//28 451//28
f 470//29 476//29 461//29
f 476//30 472//30 458//30
f 465//31 468//31 475//31
f 468//32 464//32 472//32
f 463//33 469//33 494//33
f 469//75 465//75 492//75
f 498//35 504//35 473//35
f 504//76 500//76 471//76
f 493//77 496//77 503//77
f 503//38 496//38 492//38
f 491//39 497//39 480//39
f 497//40 493//40 478//40
f 484//41 490//41 501//41
f 490//42 486//42 499//42
f 479//78 482//78 489//78
f 489//44 482//44 478//44
f 477//45 483//45 452//45
f 483//79 479//79 450//79
f 457//47 459//47 487//47
f 459//80 456//80 485//80
f 491//49 477//49 449//49
f 458//50 472//50 464//50
f 485//51 456//51 450//51
f 470//52 457//52 484//52
f 471//53 500//53 492//53
f 499//54 486//54 478//54
f 505//157 508//157 509//157
f 506//196 510//196 509//196
f 507//158 511//158 509//158
f 512//177 515//177 516//177
f 513//160 517//160 516//160
f 514//178 518//178 516//178
f 519//162 522//162 523//162
f 520//139 524//139 523//139
f 521//212 525//212 523//212
f 526//165 529//165 530//165
f 527//213 531//213 530//213
f 528//166 532//166 530//166
f 533//182 536//182 537//182
f 534//208 538//208 537//208
f 535//146 539//146 537//146
f 540//170 543//170 544//170
f 541//148 545//148 544//148
f 542//172 546//172 544//172
f 547//150 550//150 551//150
f 548//151 552//151 551//151
f 549//209 553//209 551//209
f 554//214 557//214 558//214
f 555//206 559//206 558//206
f 556//215 560//215 558//215
f 505//25 511//25 522//25
f 511//26 507//26 520//26
f 512//27 518//27 510//27
f 518//28 514//28 507//28
f 526//29 532//29 517//29
f 532//30 528//30 514//30
f 521//31 524//31 531//31
f 524//32 520//32 528//32
f 547//33 519//33 525//33
f 525//75 521//75 548//75
f 526//35 554//35 560//35
f 560//76 556//76 527//76
f 549//77 552//77 559//77
f 552//38 548//38 556//38
f 547//39 553//39 536//39
f 553//40 549//40 534//40
f 540//41 546//41 557//41
f 546//42 542//42 555//42
f 535//78 538//78 545//78
f 538//44 534//44 542//44
f 505//45 533//45 539//45
f 539//79 535//79 506//79
f 513//47 515//47 543//47
f 515//80 512//80 541//80
f 547//49 533//49 505//49
f 514//50 528//50 520//50
f 541//51 512//51 506//51
f 526//52 513//52 540//52
f 527//53 556//53 548//53
f 555//54 542//54 534//54
f 561//157 564//157 565//157
f 562//196 566//196 565//196
f 563//158 567//158 565//158
f 568//216 571//216 572//216
f 569//136 573//136 572//136
f 570//200 574//200 572//200
f 575//217 578//217 579//217
f 576//139 580//139 579//139
f 577//164 581//164 579//164
f 582//218 585//218 586//218
f 583//142 587//142 586//142
f 584//166 588//166 586//166
f 589//182 592//182 593//182
f 590//202 594//202 593//202
f 591//169 595//169 593//169
f 596//194 599//194 600//194
f 597//148 601//148 600//148
f 598//172 602//172 600//172
f 603//150 606//150 607//150
f 604//185 608//185 607//185
f 605//209 609//209 607//209
f 610//186 613//186 614//186
f 611//206 615//206 614//206
f 612//219 616//219 614//219
f 561//25 567//25 578//25
f 567//26 563//26 576//26
f 562//27 568//27 574//27
f 574//28 570//28 563//28
f 582//29 588//29 573//29
f 588//30 584//30 570//30
f 577//31 580//31 587//31
f 587//32 580//32 576//32
f 575//33 581//33 606//33
f 581//75 577//75 604//75
f 610//35 616//35 585//35
f 616//76 612//76 583//76
f 605//37 608//37 615//37
f 615//38 608//38 604//38
f 603//39 609//39 592//39
f 609//40 605//40 590//40
f 596//41 602//41 613//41
f 602//42 598//42 611//42
f 591//78 594//78 601//78
f 601//94 594//94 590//94
f 589//45 595//45 564//45
f 595//79 591//79 562//79
f 569//47 571//47 599//47
f 571//80 568//80 597//80
f 603//49 589//49 561//49
f 570//50 584//50 576//50
f 597//51 568//51 562//51
f 582//52 569//52 596//52
f 583//53 612//53 604//53
f 611//54 598//54 590//54
f 617//132 620//132 621//132
f 618//196 622//196 621//196
f 619//158 623//158 621//158
f 624//159 627//159 628//159
f 625//136 629//136 628//136
f 626//137 630//137 628//137
f 631//138 634//138 635//138
f 632//220 636//220 635//220
f 633//164 637//164 635//164
f 638//190 641//190 642//190
f 639//142 643//142 642//142
f 640//166 644//166 642//166
f 645//182 648//182 649//182
f 646//193 650//193 649//193
f 647//169 651//169 649//169
f 652//194 655//194 656//194
f 653//148 657//148 656//148
f 654//172 658//172 656//172
f 659//191 662//191 663//191
f 660//151 664//151 663//151
f 661//209 665//209 663//209
f 666//186 669//186 670//186
f 667//195 671//195 670//195
f 668//176 672//176 670//176
f 617//25 623//25 634//25
f 623//26 619//26 632//26
f 624//27 630//27 622//27
f 630//28 626//28 619//28
f 638//29 644//29 629//29
f 644//30 640//30 626//30
f 633//31 636//31 643//31
f 636//32 632//32 640//32
f 659//33 631//33 637//33
f 637//75 633//75 660//75
f 638//35 666//35 672//35
f 672//76 668//76 639//76
f 661//77 664//77 671//77
f 664//38 660//38 668//38
f 659//39 665//39 648//39
f 665//40 661//40 646//40
f 652//41 658//41 669//41
f 658//42 654//42 667//42
f 647//78 650//78 657//78
f 650//44 646//44 654//44
f 617//45 645//45 651//45
f 651//79 647//79 618//79
f 625//47 627//47 655//47
f 627//80 624//80 653//80
f 659//49 645//49 617//49
f 626//50 640//50 632//50
f 653//51 624//51 618//51
f 638//52 625//52 652//52
f 639//53 668//53 660//53
f 667//54 654//54 646//54
f 673//157 676//157 677//157
f 674//196 678//196 677//196
f 675//158 679//158 677//158
f 680//207 683//207 684//207
f 681//199 685//199 684//199
f 682//178 686//178 684//178
f 687//201 690//201 691//201
f 688//179 692//179 691//179
f 689//164 693//164 691//164
f 694//165 697//165 698//165
f 695//142 699//142 698//142
f 696//166 700//166 698//166
f 701//144 704//144 705//144
f 702//208 706//208 705//208
f 703//169 707//169 705//169
f 708//170 711//170 712//170
f 709//148 713//148 712//148
f 710//172 714//172 712//172
f 715//150 718//150 719//150
f 716//185 720//185 719//185
f 717//209 721//209 719//209
f 722//153 725//153 726//153
f 723//210 727//210 726//210
f 724//211 728//211 726//211
f 673//25 679//25 690//25
f 679//26 675//26 688//26
f 674//27 680//27 686//27
f 686//28 682//28 675//28
f 694//29 700//29 685//29
f 700//30 696//30 682//30
f 689//31 692//31 699//31
f 699//32 692//32 688//32
f 687//33 693//33 718//33
f 693//75 689//75 716//75
f 722//35 728//35 697//35
f 728//76 724//76 695//76
f 717//77 720//77 727//77
f 727//38 720//38 716//38
f 715//39 721//39 704//39
f 721//40 717//40 702//40
f 708//41 714//41 725//41
f 714//42 710//42 723//42
f 703//78 706//78 713//78
f 713//44 706//44 702//44
f 701//45 707//45 676//45
f 707//79 703//79 674//79
f 681//47 683//47 711//47
f 683//80 680//80 709//80
f 715//49 701//49 673//49
f 682//50 696//50 688//50
f 709//51 680//51 674//51
f 694//52 681//52 708//52
f 695//53 724//53 716//53
f 723//54 710//54 702//54
f 729//157 732//157 733//157
f 730//221 734//221 733//221
f 731//158 735//158 733//158
f 736//177 739//177 740//177
f 737//160 741//160 740//160
f 738//137 742//137 740//137
f 743//138 746//138 747//138
f 744//179 748//179 747//179
f 745//140 749//140 747//140
f 750//165 753//165 754//165
f 751//142 755//142 754//142
f 752//166 756//166 754//166
f 757//167 760//167 761//167
f 758//202 762//202 761//202
f 759//222 763//222 761//222
f 764//170 767//170 768//170
f 765//148 769//148 768//148
f 766//172 770//172 768//172
f 771//150 774//150 775//150
f 772//151 776//151 775//151
f 773//223 777//223 775//223
f 778//186 781//186 782//186
f 779//210 783//210 782//210
f 780//188 784//188 782//188
f 729//25 735//25 746//25
f 735//26 731//26 744//26
f 736//27 742//27 734//27
f 742//28 738//28 731//28
f 750//29 756//29 741//29
f 756//30 752//30 738//30
f 745//31 748//31 755//31
f 748//32 744//32 752//32
f 771//33 743//33 749//33
f 749//75 745//75 772//75
f 750//35 778//35 784//35
f 784//76 780//76 751//76
f 773//77 776//77 783//77
f 776//38 772//38 780//38
f 771//39 777//39 760//39
f 777//40 773//40 758//40
f 764//41 770//41 781//41
f 770//42 766//42 779//42
f 759//78 762//78 769//78
f 762//44 758//44 766//44
f 729//45 757//45 763//45
f 763//79 759//79 730//79
f 737//47 739//47 767//47
f 739//48 736//48 765//48
f 771//49 757//49 729//49
f 738//50 752//50 744//50
f 765//51 736//51 730//51
f 750//52 737//52 764//52
f 751//53 780//53 772//53
f 779//54 766//54 758//54
f 785//157 788//157 789//157
f 786//133 790//133 789//133
f 787//158 791//158 789//158
f 792//159 795//159 796//159
f 793//199 797//199 796//199
f 794//178 798//178 796//178
f 799//201 802//201 803//201
f 800//179 804//179 803//179
f 801//164 805//164 803//164
f 806//165 809//165 810//165
f 807//142 811//142 810//142
f 808//166 812//166 810//166
f 813//144 816//144 817//144
f 814//202 818//202 817//202
f 815//169 819//169 817//169
f 820//170 823//170 824//170
f 821//148 825//148 824//148
f 822//172 826//172 824//172
f 827//150 830//150 831//150
f 828//151 832//151 831//151
f 829//209 833//209 831//209
f 834//214 837//214 838//214
f 835//206 839//206 838//206
f 836//176 840//176 838//176
f 785//25 791//25 802//25
f 791//26 787//26 800//26
f 792//27 798//27 790//27
f 798//28 794//28 787//28
f 806//29 812//29 797//29
f 812//30 808//30 794//30
f 801//31 804//31 811//31
f 804//32 800//32 808//32
f 799//33 805//33 830//33
f 805//75 801//75 828//75
f 834//35 840//35 809//35
f 840//76 836//76 807//76
f 829//77 832//77 839//77
f 832//38 828//38 836//38
f 827//39 833//39 816//39
f 833//40 829//40 814//40
f 820//41 826//41 837//41
f 826//42 822//42 835//42
f 815//78 818//78 825//78
f 818//44 814//44 822//44
f 813//45 819//45 788//45
f 819//79 815//79 786//79
f 793//47 795//47 823//47
f 795//80 792//80 821//80
f 827//49 813//49 785//49
f 794//50 808//50 800//50
f 821//51 792//51 786//51
f 806//52 793//52 820//52
f 807//53 836//53 828//53
f 835//54 822//54 814//54
f 841//224 844//224 845//224
f 842//133 846//133 845//133
f 843//158 847//158 845//158
f 848//159 851//159 852//159
f 849//199 853//199 852//199
f 850//200 854//200 852//200
f 855//201 858//201 859//201
f 856//139 860//139 859//139
f 857//164 861//164 859//164
f 862//165 865//165 866//165
f 863//181 867//181 866//181
f 864//166 868//166 866//166
f 869//182 872//182 873//182
f 870//202 874//202 873//202
f 871//169 875//169 873//169
f 876//170 879//170 880//170
f 877//148 881//148 880//148
f 878//172 882//172 880//172
f 883//150 886//150 887//150
f 884//151 888//151 887//151
f 885//209 889//209 887//209
f 890//186 893//186 894//186
f 891//206 895//206 894//206
f 892//176 896//176 894//176
f 841//25 847//25 858//25
f 847//26 843//26 856//26
f 848//27 854//27 846//27
f 854//28 850//28 843//28
f 862//29 868//29 853//29
f 868//30 864//30 850//30
f 857//31 860//31 867//31
f 860//32 856//32 864//32
f 855//33 861//33 886//33
f 861//75 857//75 884//75
f 890//35 896//35 865//35
f 896//76 892//76 863//76
f 885//77 888//77 895//77
f 888//38 884//38 892//38
f 883//39 889//39 872//39
f 889//40 885//40 870//40
f 876//41 882//41 893//41
f 882//42 878//42 891//42
f 871//78 874//78 881//78
f 874//44 870//44 878//44
f 869//45 875//45 844//45
f 875//79 871//79 842//79
f 849//47 851//47 879//47
f 851//80 848//80 877//80
f 883//49 869//49 841//49
f 850//50 864//50 856//50
f 877//51 848//51 842//51
f 862//52 849//52 876//52
f 863//53 892//53 884//53
f 891//54 878//54 870//54
f 897//157 900//157 901//157
f 898//196 902//196 901//196
f 899//158 903//158 901//158
f 904//159 907//159 908//159
f 905//199 909//199 908//199
f 906//178 910//178 908//178
f 911//201 914//201 915//201
f 912//179 916//179 915//179
f 913//164 917//164 915//164
f 918//165 921//165 922//165
f 919//181 923//181 922//181
f 920//166 924//166 922//166
f 925//167 928//167 929//167
f 926//202 930//202 929//202
f 927//169 931//169 929//169
f 932//170 935//170 936//170
f 933//148 937//148 936//148
f 934//172 938//172 936//172
f 939//150 942//150 943//150
f 940//151 944//151 943//151
f 941//209 945//209 943//209
f 946//153 949//153 950//153
f 947//206 951//206 950//206
f 948//176 952//176 950//176
f 897//25 903//25 914//25
f 903//26 899//26 912//26
f 904//27 910//27 902//27
f 910//28 906//28 899//28
f 918//29 924//29 909//29
f 924//30 920//30 906//30
f 913//31 916//31 923//31
f 916//32 912//32 920//32
f 911//33 917//33 942//33
f 917//75 913//75 940//75
f 946//35 952//35 921//35
f 952//76 948//76 919//76
f 941//77 944//77 951//77
f 944//38 940//38 948//38
f 939//39 945//39 928//39
f 945//40 941//40 926//40
f 932//41 938//41 949//41
f 938//42 934//42 947//42
f 927//78 930//78 937//78
f 930//44 926//44 934//44
f 925//45 931//45 900//45
f 931//79 927//79 898//79
f 905//47 907//47 935//47
f 907//80 904//80 933//80
f 939//49 925//49 897//49
f 906//50 920//50 912//50
f 933//51 904//51 898//51
f 918//52 905//52 932//52
f 919//53 948//53 940//53
f 947//54 934//54 926//54
