# Generated by scripts/generate_conveyor_assets.py
v 0.015000 0.000000 -0.015000
v 0.014712 0.002926 -0.015000
v 0.014712 0.002926 0.015000
v 0.015000 0.000000 0.015000
v 0.014712 0.002926 -0.015000
v 0.013858 0.005740 -0.015000
v 0.013858 0.005740 0.015000
v 0.014712 0.002926 0.015000
v 0.013858 0.005740 -0.015000
v 0.012472 0.008334 -0.015000
v 0.012472 0.008334 0.015000
v 0.013858 0.005740 0.015000
v 0.012472 0.008334 -0.015000
v 0.010607 0.010607 -0.015000
v 0.010607 0.010607 0.015000
v 0.012472 0.008334 0.015000
v 0.010607 0.010607 -0.015000
v 0.008334 0.012472 -0.015000
v 0.008334 0.012472 0.015000
v 0.010607 0.010607 0.015000
v 0.008334 0.012472 -0.015000
v 0.005740 0.013858 -0.015000
v 0.005740 0.013858 0.015000
v 0.008334 0.012472 0.015000
v 0.005740 0.013858 -0.015000
v 0.002926 0.014712 -0.015000
v 0.002926 0.014712 0.015000
v 0.005740 0.013858 0.015000
v 0.002926 0.014712 -0.015000
v 0.000000 0.015000 -0.015000
v 0.000000 0.015000 0.015000
v 0.002926 0.014712 0.015000
v 0.000000 0.015000 -0.015000
v -0.002926 0.014712 -0.015000
v -0.002926 0.014712 0.015000
v 0.000000 0.015000 0.015000
v -0.002926 0.014712 -0.015000
v -0.005740 0.013858 -0.015000
v -0.005740 0.013858 0.015000
v -0.002926 0.014712 0.015000
v -0.005740 0.013858 -0.015000
v -0.008334 0.012472 -0.015000
v -0.008334 0.012472 0.015000
v -0.005740 0.013858 0.015000
v -0.008334 0.012472 -0.015000
v -0.010607 0.010607 -0.015000
v -0.010607 0.010607 0.015000
v -0.008334 0.012472 0.015000
v -0.010607 0.010607 -0.015000
v -0.012472 0.008334 -0.015000
v -0.012472 0.008334 0.015000
v -0.010607 0.010607 0.015000
v -0.012472 0.008334 -0.015000
v -0.013858 0.005740 -0.015000
v -0.013858 0.005740 0.015000
v -0.012472 0.008334 0.015000
v -0.013858 0.005740 -0.015000
v -0.014712 0.002926 -0.015000
v -0.014712 0.002926 0.015000
v -0.013858 0.005740 0.015000
v -0.014712 0.002926 -0.015000
v -0.015000 0.000000 -0.015000
v -0.015000 0.000000 0.015000
v -0.014712 0.002926 0.015000
v -0.015000 0.000000 -0.015000
v -0.014712 -0.002926 -0.015000
v -0.014712 -0.002926 0.015000
v -0.015000 0.000000 0.015000
v -0.014712 -0.002926 -0.015000
v -0.013858 -0.005740 -0.015000
v -0.013858 -0.005740 0.015000
v -0.014712 -0.002926 0.015000
v -0.013858 -0.005740 -0.015000
v -0.012472 -0.008334 -0.015000
v -0.012472 -0.008334 0.015000
v -0.013858 -0.005740 0.015000
v -0.012472 -0.008334 -0.015000
v -0.010607 -0.010607 -0.015000
v -0.010607 -0.010607 0.015000
v -0.012472 -0.008334 0.015000
v -0.010607 -0.010607 -0.015000
v -0.008334 -0.012472 -0.015000
v -0.008334 -0.012472 0.015000
v -0.010607 -0.010607 0.015000
v -0.008334 -0.012472 -0.015000
v -0.005740 -0.013858 -0.015000
v -0.005740 -0.013858 0.015000
v -0.008334 -0.012472 0.015000
v -0.005740 -0.013858 -0.015000
v -0.002926 -0.014712 -0.015000
v -0.002926 -0.014712 0.015000
v -0.005740 -0.013858 0.015000
v -0.002926 -0.014712 -0.015000
v -0.000000 -0.015000 -0.015000
v -0.000000 -0.015000 0.015000
v -0.002926 -0.014712 0.015000
v -0.000000 -0.015000 -0.015000
v 0.002926 -0.014712 -0.015000
v 0.002926 -0.014712 0.015000
v -0.000000 -0.015000 0.015000
v 0.002926 -0.014712 -0.015000
v 0.005740 -0.013858 -0.015000
v 0.005740 -0.013858 0.015000
v 0.002926 -0.014712 0.015000
v 0.005740 -0.013858 -0.015000
v 0.008334 -0.012472 -0.015000
v 0.008334 -0.012472 0.015000
v 0.005740 -0.013858 0.015000
v 0.008334 -0.012472 -0.015000
v 0.010607 -0.010607 -0.015000
v 0.010607 -0.010607 0.015000
v 0.008334 -0.012472 0.015000
v 0.010607 -0.010607 -0.015000
v 0.012472 -0.008334 -0.015000
v 0.012472 -0.008334 0.015000
v 0.010607 -0.010607 0.015000
v 0.012472 -0.008334 -0.015000
v 0.013858 -0.005740 -0.015000
v 0.013858 -0.005740 0.015000
v 0.012472 -0.008334 0.015000
v 0.013858 -0.005740 -0.015000
v 0.014712 -0.002926 -0.015000
v 0.014712 -0.002926 0.015000
v 0.013858 -0.005740 0.015000
v 0.014712 -0.002926 -0.015000
v 0.015000 -0.000000 -0.015000
v 0.015000 -0.000000 0.015000
v 0.014712 -0.002926 0.015000
v 0.000000 0.000000 0.015000
v 0.015000 0.000000 0.015000
v 0.014712 0.002926 0.015000
v 0.014712 0.002926 0.015000
v 0.013858 0.005740 0.015000
v 0.013858 0.005740 0.015000
v 0.012472 0.008334 0.015000
v 0.012472 0.008334 0.015000
v 0.010607 0.010607 0.015000
v 0.010607 0.010607 0.015000
v 0.008334 0.012472 0.015000
v 0.008334 0.012472 0.015000
v 0.005740 0.013858 0.015000
v 0.005740 0.013858 0.015000
v 0.002926 0.014712 0.015000
v 0.002926 0.014712 0.015000
v 0.000000 0.015000 0.015000
v 0.000000 0.015000 0.015000
v -0.002926 0.014712 0.015000
v -0.002926 0.014712 0.015000
v -0.005740 0.013858 0.015000
v -0.005740 0.013858 0.015000
v -0.008334 0.012472 0.015000
v -0.008334 0.012472 0.015000
v -0.010607 0.010607 0.015000
v -0.010607 0.010607 0.015000
v -0.012472 0.008334 0.015000
v -0.012472 0.008334 0.015000
v -0.013858 0.005740 0.015000
v -0.013858 0.005740 0.015000
v -0.014712 0.002926 0.015000
v -0.014712 0.002926 0.015000
v -0.015000 0.000000 0.015000
v -0.015000 0.000000 0.015000
v -0.014712 -0.002926 0.015000
v -0.014712 -0.002926 0.015000
v -0.013858 -0.005740 0.015000
v -0.013858 -0.005740 0.015000
v -0.012472 -0.008334 0.015000
v -0.012472 -0.008334 0.015000
v -0.010607 -0.010607 0.015000
v -0.010607 -0.010607 0.015000
v -0.008334 -0.012472 0.015000
v -0.008334 -0.012472 0.015000
v -0.005740 -0.013858 0.015000
v -0.005740 -0.013858 0.015000
v -0.002926 -0.014712 0.015000
v -0.002926 -0.014712 0.015000
v -0.000000 -0.015000 0.015000
v -0.000000 -0.015000 0.015000
v 0.002926 -0.014712 0.015000
v 0.002926 -0.014712 0.015000
v 0.005740 -0.013858 0.015000
v 0.005740 -0.013858 0.015000
v 0.008334 -0.012472 0.015000
v 0.008334 -0.012472 0.015000
v 0.010607 -0.010607 0.015000
v 0.010607 -0.010607 0.015000
v 0.012472 -0.008334 0.015000
v 0.012472 -0.008334 0.015000
v 0.013858 -0.005740 0.015000
v 0.013858 -0.005740 0.015000
v 0.014712 -0.002926 0.015000
v 0.014712 -0.002926 0.015000
v 0.015000 -0.000000 0.015000
v -0.000000 -0.000000 -0.015000
v 0.015000 0.000000 -0.015000
v 0.014712 0.002926 -0.015000
v 0.014712 0.002926 -0.015000
v 0.013858 0.005740 -0.015000
v 0.013858 0.005740 -0.015000
v 0.012472 0.008334 -0.015000
v 0.012472 0.008334 -0.015000
v 0.010607 0.010607 -0.015000
v 0.010607 0.010607 -0.015000
v 0.008334 0.012472 -0.015000
v 0.008334 0.012472 -0.015000
v 0.005740 0.013858 -0.015000
v 0.005740 0.013858 -0.015000
v 0.002926 0.014712 -0.015000
v 0.002926 0.014712 -0.015000
v 0.000000 0.015000 -0.015000
v 0.000000 0.015000 -0.015000
v -0.002926 0.014712 -0.015000
v -0.002926 0.014712 -0.015000
v -0.005740 0.013858 -0.015000
v -0.005740 0.013858 -0.015000
v -0.008334 0.012472 -0.015000
v -0.008334 0.012472 -0.015000
v -0.010607 0.010607 -0.015000
v -0.010607 0.010607 -0.015000
v -0.012472 0.008334 -0.015000
v -0.012472 0.008334 -0.015000
v -0.013858 0.005740 -0.015000
v -0.013858 0.005740 -0.015000
v -0.014712 0.002926 -0.015000
v -0.014712 0.002926 -0.015000
v -0.015000 0.000000 -0.015000
v -0.015000 0.000000 -0.015000
v -0.014712 -0.002926 -0.015000
v -0.014712 -0.002926 -0.015000
v -0.013858 -0.005740 -0.015000
v -0.013858 -0.005740 -0.015000
v -0.012472 -0.008334 -0.015000
v -0.012472 -0.008334 -0.015000
v -0.010607 -0.010607 -0.015000
v -0.010607 -0.010607 -0.015000
v -0.008334 -0.012472 -0.015000
v -0.008334 -0.012472 -0.015000
v -0.005740 -0.013858 -0.015000
v -0.005740 -0.013858 -0.015000
v -0.002926 -0.014712 -0.015000
v -0.002926 -0.014712 -0.015000
v -0.000000 -0.015000 -0.015000
v -0.000000 -0.015000 -0.015000
v 0.002926 -0.014712 -0.015000
v 0.002926 -0.014712 -0.015000
v 0.005740 -0.013858 -0.015000
v 0.005740 -0.013858 -0.015000
v 0.008334 -0.012472 -0.015000
v 0.008334 -0.012472 -0.015000
v 0.010607 -0.010607 -0.015000
v 0.010607 -0.010607 -0.015000
v 0.012472 -0.008334 -0.015000
v 0.012472 -0.008334 -0.015000
v 0.013858 -0.005740 -0.015000
v 0.013858 -0.005740 -0.015000
v 0.014712 -0.002926 -0.015000
v 0.014712 -0.002926 -0.015000
v 0.015000 -0.000000 -0.015000
vt 0.000000 0.000000
vt 0.093750 0.000000
vt 0.093750 1.000000
vt 0.000000 1.000000
vt 0.093750 0.000000
vt 0.187500 0.000000
vt 0.187500 1.000000
vt 0.093750 1.000000
vt 0.187500 0.000000
vt 0.281250 0.000000
vt 0.281250 1.000000
vt 0.187500 1.000000
vt 0.281250 0.000000
vt 0.375000 0.000000
vt 0.375000 1.000000
vt 0.281250 1.000000
vt 0.375000 0.000000
vt 0.468750 0.000000
vt 0.468750 1.000000
vt 0.375000 1.000000
vt 0.468750 0.000000
vt 0.562500 0.000000
vt 0.562500 1.000000
vt 0.468750 1.000000
vt 0.562500 0.000000
vt 0.656250 0.000000
vt 0.656250 1.000000
vt 0.562500 1.000000
vt 0.656250 0.000000
vt 0.750000 0.000000
vt 0.750000 1.000000
vt 0.656250 1.000000
vt 0.750000 0.000000
vt 0.843750 0.000000
vt 0.843750 1.000000
vt 0.750000 1.000000
vt 0.843750 0.000000
vt 0.937500 0.000000
vt 0.937500 1.000000
vt 0.843750 1.000000
vt 0.937500 0.000000
vt 1.031250 0.000000
vt 1.031250 1.000000
vt 0.937500 1.000000
vt 1.031250 0.000000
vt 1.125000 0.000000
vt 1.125000 1.000000
vt 1.031250 1.000000
vt 1.125000 0.000000
vt 1.218750 0.000000
vt 1.218750 1.000000
vt 1.125000 1.000000
vt 1.218750 0.000000
vt 1.312500 0.000000
vt 1.312500 1.000000
vt 1.218750 1.000000
vt 1.312500 0.000000
vt 1.406250 0.000000
vt 1.406250 1.000000
vt 1.312500 1.000000
vt 1.406250 0.000000
vt 1.500000 0.000000
vt 1.500000 1.000000
vt 1.406250 1.000000
vt 1.500000 0.000000
vt 1.593750 0.000000
vt 1.593750 1.000000
vt 1.500000 1.000000
vt 1.593750 0.000000
vt 1.687500 0.000000
vt 1.687500 1.000000
vt 1.593750 1.000000
vt 1.687500 0.000000
vt 1.781250 0.000000
vt 1.781250 1.000000
vt 1.687500 1.000000
vt 1.781250 0.000000
vt 1.875000 0.000000
vt 1.875000 1.000000
vt 1.781250 1.000000
vt 1.875000 0.000000
vt 1.968750 0.000000
vt 1.968750 1.000000
vt 1.875000 1.000000
vt 1.968750 0.000000
vt 2.062500 0.000000
vt 2.062500 1.000000
vt 1.968750 1.000000
vt 2.062500 0.000000
vt 2.156250 0.000000
vt 2.156250 1.000000
vt 2.062500 1.000000
vt 2.156250 0.000000
vt 2.250000 0.000000
vt 2.250000 1.000000
vt 2.156250 1.000000
vt 2.250000 0.000000
vt 2.343750 0.000000
vt 2.343750 1.000000
vt 2.250000 1.000000
vt 2.343750 0.000000
vt 2.437500 0.000000
vt 2.437500 1.000000
vt 2.343750 1.000000
vt 2.437500 0.000000
vt 2.531250 0.000000
vt 2.531250 1.000000
vt 2.437500 1.000000
vt 2.531250 0.000000
vt 2.625000 0.000000
vt 2.625000 1.000000
vt 2.531250 1.000000
vt 2.625000 0.000000
vt 2.718750 0.000000
vt 2.718750 1.000000
vt 2.625000 1.000000
vt 2.718750 0.000000
vt 2.812500 0.000000
vt 2.812500 1.000000
vt 2.718750 1.000000
vt 2.812500 0.000000
vt 2.906250 0.000000
vt 2.906250 1.000000
vt 2.812500 1.000000
vt 2.906250 0.000000
vt 3.000000 0.000000
vt 3.000000 1.000000
vt 2.906250 1.000000
vt 0.500000 0.500000
vt 1.000000 0.500000
vt 0.990393 0.597545
vt 0.990393 0.597545
vt 0.961940 0.691342
vt 0.961940 0.691342
vt 0.915735 0.777785
vt 0.915735 0.777785
vt 0.853553 0.853553
vt 0.853553 0.853553
vt 0.777785 0.915735
vt 0.777785 0.915735
vt 0.691342 0.961940
vt 0.691342 0.961940
vt 0.597545 0.990393
vt 0.597545 0.990393
vt 0.500000 1.000000
vt 0.500000 1.000000
vt 0.402455 0.990393
vt 0.402455 0.990393
vt 0.308658 0.961940
vt 0.308658 0.961940
vt 0.222215 0.915735
vt 0.222215 0.915735
vt 0.146447 0.853553
vt 0.146447 0.853553
vt 0.084265 0.777785
vt 0.084265 0.777785
vt 0.038060 0.691342
vt 0.038060 0.691342
vt 0.009607 0.597545
vt 0.009607 0.597545
vt 0.000000 0.500000
vt 0.000000 0.500000
vt 0.009607 0.402455
vt 0.009607 0.402455
vt 0.038060 0.308658
vt 0.038060 0.308658
vt 0.084265 0.222215
vt 0.084265 0.222215
vt 0.146447 0.146447
vt 0.146447 0.146447
vt 0.222215 0.084265
vt 0.222215 0.084265
vt 0.308658 0.038060
vt 0.308658 0.038060
vt 0.402455 0.009607
vt 0.402455 0.009607
vt 0.500000 0.000000
vt 0.500000 0.000000
vt 0.597545 0.009607
vt 0.597545 0.009607
vt 0.691342 0.038060
vt 0.691342 0.038060
vt 0.777785 0.084265
vt 0.777785 0.084265
vt 0.853553 0.146447
vt 0.853553 0.146447
vt 0.915735 0.222215
vt 0.915735 0.222215
vt 0.961940 0.308658
vt 0.961940 0.308658
vt 0.990393 0.402455
vt 0.990393 0.402455
vt 1.000000 0.500000
vt 0.500000 0.500000
vt 1.000000 0.500000
vt 0.990393 0.597545
vt 0.990393 0.597545
vt 0.961940 0.691342
vt 0.961940 0.691342
vt 0.915735 0.777785
vt 0.915735 0.777785
vt 0.853553 0.853553
vt 0.853553 0.853553
vt 0.777785 0.915735
vt 0.777785 0.915735
vt 0.691342 0.961940
vt 0.691342 0.961940
vt 0.597545 0.990393
vt 0.597545 0.990393
vt 0.500000 1.000000
vt 0.500000 1.000000
vt 0.402455 0.990393
vt 0.402455 0.990393
vt 0.308658 0.961940
vt 0.308658 0.961940
vt 0.222215 0.915735
vt 0.222215 0.915735
vt 0.146447 0.853553
vt 0.146447 0.853553
vt 0.084265 0.777785
vt 0.084265 0.777785
vt 0.038060 0.691342
vt 0.038060 0.691342
vt 0.009607 0.597545
vt 0.009607 0.597545
vt 0.000000 0.500000
vt 0.000000 0.500000
vt 0.009607 0.402455
vt 0.009607 0.402455
vt 0.038060 0.308658
vt 0.038060 0.308658
vt 0.084265 0.222215
vt 0.084265 0.222215
vt 0.146447 0.146447
vt 0.146447 0.146447
vt 0.222215 0.084265
vt 0.222215 0.084265
vt 0.308658 0.038060
vt 0.308658 0.038060
vt 0.402455 0.009607
vt 0.402455 0.009607
vt 0.500000 0.000000
vt 0.500000 0.000000
vt 0.597545 0.009607
vt 0.597545 0.009607
vt 0.691342 0.038060
vt 0.691342 0.038060
vt 0.777785 0.084265
vt 0.777785 0.084265
vt 0.853553 0.146447
vt 0.853553 0.146447
vt 0.915735 0.222215
vt 0.915735 0.222215
vt 0.961940 0.308658
vt 0.961940 0.308658
vt 0.990393 0.402455
vt 0.990393 0.402455
vt 1.000000 0.500000
f 1/1 2/2 3/3
f 1/1 3/3 4/4
f 5/5 6/6 7/7
f 5/5 7/7 8/8
f 9/9 10/10 11/11
f 9/9 11/11 12/12
f 13/13 14/14 15/15
f 13/13 15/15 16/16
f 17/17 18/18 19/19
f 17/17 19/19 20/20
f 21/21 22/22 23/23
f 21/21 23/23 24/24
f 25/25 26/26 27/27
f 25/25 27/27 28/28
f 29/29 30/30 31/31
f 29/29 31/31 32/32
f 33/33 34/34 35/35
f 33/33 35/35 36/36
f 37/37 38/38 39/39
f 37/37 39/39 40/40
f 41/41 42/42 43/43
f 41/41 43/43 44/44
f 45/45 46/46 47/47
f 45/45 47/47 48/48
f 49/49 50/50 51/51
f 49/49 51/51 52/52
f 53/53 54/54 55/55
f 53/53 55/55 56/56
f 57/57 58/58 59/59
f 57/57 59/59 60/60
f 61/61 62/62 63/63
f 61/61 63/63 64/64
f 65/65 66/66 67/67
f 65/65 67/67 68/68
f 69/69 70/70 71/71
f 69/69 71/71 72/72
f 73/73 74/74 75/75
f 73/73 75/75 76/76
f 77/77 78/78 79/79
f 77/77 79/79 80/80
f 81/81 82/82 83/83
f 81/81 83/83 84/84
f 85/85 86/86 87/87
f 85/85 87/87 88/88
f 89/89 90/90 91/91
f 89/89 91/91 92/92
f 93/93 94/94 95/95
f 93/93 95/95 96/96
f 97/97 98/98 99/99
f 97/97 99/99 100/100
f 101/101 102/102 103/103
f 101/101 103/103 104/104
f 105/105 106/106 107/107
f 105/105 107/107 108/108
f 109/109 110/110 111/111
f 109/109 111/111 112/112
f 113/113 114/114 115/115
f 113/113 115/115 116/116
f 117/117 118/118 119/119
f 117/117 119/119 120/120
f 121/121 122/122 123/123
f 121/121 123/123 124/124
f 125/125 126/126 127/127
f 125/125 127/127 128/128
f 129/129 130/130 131/131
f 129/129 132/132 133/133
f 129/129 134/134 135/135
f 129/129 136/136 137/137
f 129/129 138/138 139/139
f 129/129 140/140 141/141
f 129/129 142/142 143/143
f 129/129 144/144 145/145
f 129/129 146/146 147/147
f 129/129 148/148 149/149
f 129/129 150/150 151/151
f 129/129 152/152 153/153
f 129/129 154/154 155/155
f 129/129 156/156 157/157
f 129/129 158/158 159/159
f 129/129 160/160 161/161
f 129/129 162/162 163/163
f 129/129 164/164 165/165
f 129/129 166/166 167/167
f 129/129 168/168 169/169
f 129/129 170/170 171/171
f 129/129 172/172 173/173
f 129/129 174/174 175/175
f 129/129 176/176 177/177
f 129/129 178/178 179/179
f 129/129 180/180 181/181
f 129/129 182/182 183/183
f 129/129 184/184 185/185
f 129/129 186/186 187/187
f 129/129 188/188 189/189
f 129/129 190/190 191/191
f 129/129 192/192 193/193
f 194/194 196/196 195/195
f 194/194 198/198 197/197
f 194/194 200/200 199/199
f 194/194 202/202 201/201
f 194/194 204/204 203/203
f 194/194 206/206 205/205
f 194/194 208/208 207/207
f 194/194 210/210 209/209
f 194/194 212/212 211/211
f 194/194 214/214 213/213
f 194/194 216/216 215/215
f 194/194 218/218 217/217
f 194/194 220/220 219/219
f 194/194 222/222 221/221
f 194/194 224/224 223/223
f 194/194 226/226 225/225
f 194/194 228/228 227/227
f 194/194 230/230 229/229
f 194/194 232/232 231/231
f 194/194 234/234 233/233
f 194/194 236/236 235/235
f 194/194 238/238 237/237
f 194/194 240/240 239/239
f 194/194 242/242 241/241
f 194/194 244/244 243/243
f 194/194 246/246 245/245
f 194/194 248/248 247/247
f 194/194 250/250 249/249
f 194/194 252/252 251/251
f 194/194 254/254 253/253
f 194/194 256/256 255/255
f 194/194 258/258 257/257
