# Cube mesh — UV mapped to die_atlas.png
o die_cube
v -0.01 -0.01 0.01
vt 0.25 0.6699999999999999
v 0.01 -0.01 0.01
vt 0.5 0.6699999999999999
v 0.01 0.01 0.01
vt 0.5 0.32999999999999996
v 0.01 0.01 0.01
vt 0.5 0.32999999999999996
v -0.01 0.01 0.01
vt 0.25 0.32999999999999996
v -0.01 -0.01 0.01
vt 0.25 0.6699999999999999
v 0.01 0.01 -0.01
vt 0.5 1.0
v -0.01 0.01 -0.01
vt 0.25 1.0
v -0.01 0.01 0.01
vt 0.25 0.6699999999999999
v -0.01 0.01 0.01
vt 0.25 0.6699999999999999
v 0.01 0.01 0.01
vt 0.5 0.6699999999999999
v 0.01 0.01 -0.01
vt 0.5 1.0
v 0.01 -0.01 -0.01
vt 0.5 0.6699999999999999
v 0.01 0.01 -0.01
vt 0.75 0.6699999999999999
v 0.01 0.01 0.01
vt 0.75 0.32999999999999996
v 0.01 0.01 0.01
vt 0.75 0.32999999999999996
v 0.01 -0.01 0.01
vt 0.5 0.32999999999999996
v 0.01 -0.01 -0.01
vt 0.5 0.6699999999999999
v -0.01 0.01 -0.01
vt 0.25 0.6699999999999999
v -0.01 -0.01 -0.01
vt 0.0 0.6699999999999999
v -0.01 -0.01 0.01
vt 0.0 0.32999999999999996
v -0.01 -0.01 0.01
vt 0.0 0.32999999999999996
v -0.01 0.01 0.01
vt 0.25 0.32999999999999996
v -0.01 0.01 -0.01
vt 0.25 0.6699999999999999
v -0.01 -0.01 -0.01
vt 0.25 0.32999999999999996
v 0.01 -0.01 -0.01
vt 0.5 0.32999999999999996
v 0.01 -0.01 0.01
vt 0.5 0.0
v 0.01 -0.01 0.01
vt 0.5 0.0
v -0.01 -0.01 0.01
vt 0.25 0.0
v -0.01 -0.01 -0.01
vt 0.25 0.32999999999999996
v 0.01 -0.01 -0.01
vt 0.75 0.6699999999999999
v -0.01 -0.01 -0.01
vt 1.0 0.6699999999999999
v -0.01 0.01 -0.01
vt 1.0 0.32999999999999996
v -0.01 0.01 -0.01
vt 1.0 0.32999999999999996
v 0.01 0.01 -0.01
vt 0.75 0.32999999999999996
v 0.01 -0.01 -0.01
vt 0.75 0.6699999999999999
usemtl die_visual
s off
f 1/1 2/2 3/3
f 4/4 5/5 6/6
f 7/7 8/8 9/9
f 10/10 11/11 12/12
f 13/13 14/14 15/15
f 16/16 17/17 18/18
f 19/19 20/20 21/21
f 22/22 23/23 24/24
f 25/25 26/26 27/27
f 28/28 29/29 30/30
f 31/31 32/32 33/33
f 34/34 35/35 36/36
