# https://github.com/mikedh/trimesh
v 0.16229233 0.07380351 0.00000000
v 0.19103047 -0.06682158 0.00000000
v 0.18779197 -0.04650020 0.00000000
v 0.18339752 -0.01716531 0.00000000
v 0.18133694 0.02901719 0.00000000
v 0.18249210 0.06207669 0.00000000
v 0.16826073 -0.06758091 0.00000000
v 0.16798403 0.02189319 0.00000000
v 0.16048719 0.05946690 0.00000000
v 0.18195836 0.07402475 0.00000000
v 0.18252003 0.03846676 0.00000000
v 0.18774065 -0.02332010 0.00000000
v 0.19121965 -0.05500009 0.00000000
v 0.16220212 0.04784293 0.00000000
v 0.17514050 0.03705916 0.00000000
v 0.16259252 -0.01979852 0.00000000
v 0.16754327 -0.03458522 0.00000000
v 0.16794039 -0.06094972 0.00000000
v -0.18551516 0.06792920 0.00000000
v -0.18800936 0.05256768 0.00000000
v -0.16906362 0.05039771 0.00000000
v -0.18096599 0.06665133 0.00000000
v -0.16340296 0.08303877 0.00000000
v -0.15743653 -0.08447826 0.00000000
v -0.16378466 -0.09836817 0.00000000
v -0.17796111 -0.09890849 0.00000000
v -0.17744615 -0.08672847 0.00000000
v -0.18193643 -0.07059793 0.00000000
v -0.16778980 -0.06712815 0.00000000
v -0.16127889 -0.07692525 0.00000000
v -0.18323880 -0.08052124 0.00000000
v -0.14923815 -0.09945681 0.00000000
v -0.16549426 -0.08142354 0.00000000
v -0.18866041 0.07935449 0.00000000
v -0.19105099 0.06507455 0.00000000
v -0.19107803 0.05628770 0.00000000
v -0.17235180 0.07632851 0.00000000
v -0.17810942 0.08053631 0.00000000
v -0.17559174 0.04841801 0.00000000
v 0.10424425 0.07890047 0.00000000
v 0.06551182 0.09437985 0.00000000
v -0.01351643 0.08437373 0.00000000
v 0.13626284 0.00631885 0.00000000
v 0.03287877 0.00945266 0.00000000
v -0.08307064 0.07403995 0.00000000
v 0.07215241 0.07381058 0.00000000
v 0.13460264 0.07231975 0.00000000
v -0.10652486 0.03768236 0.00000000
v -0.15013682 0.08178894 0.00000000
v -0.16499763 0.05029103 0.00000000
v 0.05949491 0.00316538 0.00000000
v -0.13790225 0.04296811 0.00000000
v 0.09814482 0.00311415 0.00000000
v -0.16421903 0.07912031 0.00000000
v -0.12887029 0.08050141 0.00000000
v -0.15973696 0.05907276 0.00000000
v -0.16792952 0.03774744 0.00000000
v -0.15773363 0.04375880 0.00000000
v 0.07210136 0.00064658 0.00000000
v 0.00104546 0.08161997 0.00000000
v -0.08723361 0.02796506 0.00000000
v -0.08234588 0.02962778 0.00000000
v -0.02505020 0.07776231 0.00000000
v -0.02000117 0.07080640 0.00000000
v -0.01085135 0.07394347 0.00000000
v -0.16383100 0.07102210 0.00000000
v -0.13168124 0.09086591 0.00000000
v 0.11763438 0.08285231 0.00000000
v 0.03804554 0.08065157 0.00000000
v 0.01425216 0.08260503 0.00000000
v -0.06533268 0.08062570 0.00000000
v -0.06798223 0.07182830 0.00000000
v -0.07634175 0.08437747 0.00000000
v -0.12113992 0.03455208 0.00000000
v -0.05283094 0.02306026 0.00000000
v -0.02446690 0.01906616 0.00000000
v 0.12724285 0.06407775 0.00000000
v 0.13620360 0.03308263 0.00000000
v 0.13976442 0.05156067 0.00000000
v 0.11257629 0.08033741 0.00000000
v 0.12552130 0.05599122 0.00000000
v 0.10472970 0.00207823 0.00000000
v -0.04751748 0.08316263 0.00000000
v 0.00313967 0.07257267 0.00000000
v 0.02501800 0.08414393 0.00000000
v 0.07884066 0.09063713 0.00000000
v 0.12526577 0.07029226 0.00000000
v 0.01781341 0.02365117 0.00000000
v -0.05608598 0.06929954 0.00000000
v -0.10152215 0.04212473 0.00000000
v -0.07660766 0.05636285 0.00000000
v 0.03447337 0.07813086 0.00000000
v 0.11748514 0.07565130 0.00000000
v -0.12076977 0.03891198 0.00000000
v 0.05882935 0.01538571 0.00000000
v 0.00419519 0.01283429 0.00000000
v 0.01391671 0.06770432 0.00000000
v 0.08961273 0.06806901 0.00000000
v 0.09453543 0.07607310 0.00000000
v 0.03741735 0.03752521 0.00000000
v 0.00302391 0.02126547 0.00000000
v -0.09448408 0.05101849 0.00000000
v -0.07813535 0.04765204 0.00000000
v -0.07050794 0.03348244 0.00000000
v -0.04195370 0.06668596 0.00000000
v -0.06288442 0.05741797 0.00000000
v 0.10895050 0.05991827 0.00000000
v -0.03253907 0.05975422 0.00000000
v -0.06816789 0.04774066 0.00000000
v -0.06717335 0.06371105 0.00000000
v -0.08746768 0.07006396 0.00000000
v -0.08595824 0.05979666 0.00000000
v 0.12784076 0.03208078 0.00000000
v 0.02864277 0.06140982 0.00000000
v -0.06269905 0.02791446 0.00000000
v -0.05349863 0.03417368 0.00000000
v -0.03214890 0.01822078 0.00000000
v 0.12207737 0.05908669 0.00000000
v -0.03796092 0.07852550 0.00000000
v 0.01873004 0.04120148 0.00000000
v -0.01965847 0.05060576 0.00000000
v -0.04084460 0.03545409 0.00000000
v -0.03991238 0.05433153 0.00000000
v -0.01632110 0.05423225 0.00000000
v 0.09807082 0.04334253 0.00000000
v 0.11888386 0.02792315 0.00000000
v 0.08300318 0.00224007 0.00000000
v -0.15261413 0.05494991 0.00000000
v -0.14170749 0.04825184 0.00000000
v -0.13583267 0.06862915 0.00000000
v -0.11939105 0.07712354 0.00000000
v -0.12704349 0.06976730 0.00000000
v -0.10321428 0.08569812 0.00000000
v -0.09427607 0.05553964 0.00000000
v -0.10910586 0.06116642 0.00000000
v 0.01241396 0.01529233 0.00000000
v 0.02890220 0.01937002 0.00000000
v -0.05492502 0.04246340 0.00000000
v 0.06766285 0.07386910 0.00000000
v 0.06941426 0.05725797 0.00000000
v 0.05656340 0.05459620 0.00000000
v 0.03092067 0.05728794 0.00000000
v 0.04802618 0.04435963 0.00000000
v 0.00871845 0.04710468 0.00000000
v 0.02524494 0.03375489 0.00000000
v 0.04483129 0.06863419 0.00000000
v 0.04218743 0.03472827 0.00000000
v -0.15255766 0.07318486 0.00000000
v -0.15296749 0.06222288 0.00000000
v 0.00345714 0.03799784 0.00000000
v 0.05871169 0.03247713 0.00000000
v -0.00557221 0.06884417 0.00000000
v 0.10425137 0.05525509 0.00000000
v 0.09625000 0.05700999 0.00000000
v 0.08982387 0.05211245 0.00000000
v -0.03087753 0.02964621 0.00000000
v -0.00701905 0.02467436 0.00000000
v -0.02101577 0.03686273 0.00000000
v -0.09145133 -0.04088426 0.00000000
v 0.05696401 -0.00516916 0.00000000
v 0.09652820 -0.08799383 0.00000000
v 0.08248121 -0.08337876 0.00000000
v 0.06548627 -0.08764014 0.00000000
v -0.11335156 -0.10098974 0.00000000
v -0.15501594 -0.06833317 0.00000000
v -0.15565613 -0.09660131 0.00000000
v -0.15629686 -0.05658190 0.00000000
v 0.15417022 -0.06884584 0.00000000
v -0.01168800 -0.08928546 0.00000000
v -0.16308380 -0.06338716 0.00000000
v -0.11813446 -0.04719467 0.00000000
v 0.06841368 -0.00827350 0.00000000
v -0.13673995 -0.09700705 0.00000000
v -0.09529362 -0.04910965 0.00000000
v 0.06950945 -0.01320061 0.00000000
v 0.10781867 -0.00264409 0.00000000
v -0.15035109 -0.09515382 0.00000000
v -0.14603755 -0.10593063 0.00000000
v 0.12139589 -0.07581741 0.00000000
v 0.03673074 -0.08990316 0.00000000
v 0.02401445 -0.08531900 0.00000000
v -0.06748980 -0.03455305 0.00000000
v -0.07086134 -0.09737797 0.00000000
v -0.03912444 -0.08972815 0.00000000
v -0.02000322 -0.08614354 0.00000000
v 0.00140245 -0.08726461 0.00000000
v -0.15059220 -0.07727046 0.00000000
v -0.14981385 -0.06249832 0.00000000
v 0.04829909 -0.01199496 0.00000000
v 0.17046842 -0.01862917 0.00000000
v -0.02255947 -0.02731270 0.00000000
v -0.03771406 -0.08526765 0.00000000
v -0.14658720 -0.09639434 0.00000000
v -0.10299073 -0.05736334 0.00000000
v 0.10333815 -0.07815107 0.00000000
v 0.14190942 -0.01711146 0.00000000
v 0.07599008 -0.08606751 0.00000000
v 0.07710015 -0.00597667 0.00000000
v 0.03744326 -0.01390283 0.00000000
v -0.00550091 -0.02307449 0.00000000
v 0.06217891 -0.01498321 0.00000000
v 0.13283710 -0.03031240 0.00000000
v -0.14618379 -0.10114624 0.00000000
v 0.13615439 -0.07348435 0.00000000
v -0.05767488 -0.08986264 0.00000000
v -0.01977292 -0.03335887 0.00000000
v -0.01133491 -0.07141147 0.00000000
v -0.07856729 -0.06372295 0.00000000
v -0.03781097 -0.04202203 0.00000000
v -0.09724602 -0.10073201 0.00000000
v 0.07844306 -0.02575457 0.00000000
v 0.04659264 -0.02157454 0.00000000
v 0.12962110 -0.07288275 0.00000000
v -0.04177621 -0.07872772 0.00000000
v 0.00066220 -0.07489285 0.00000000
v -0.14522426 -0.08469625 0.00000000
v 0.05348711 -0.02438002 0.00000000
v 0.13964316 -0.03106324 0.00000000
v -0.06034542 -0.04055120 0.00000000
v -0.06106459 -0.08525487 0.00000000
v 0.02368286 -0.03975334 0.00000000
v 0.16868111 -0.05945346 0.00000000
v 0.09593562 -0.07383745 0.00000000
v 0.09867854 -0.08443512 0.00000000
v 0.12303094 -0.06911007 0.00000000
v 0.16061448 -0.05739199 0.00000000
v -0.07376022 -0.09343010 0.00000000
v 0.04610364 -0.08511918 0.00000000
v 0.09912185 -0.01869357 0.00000000
v 0.10061844 -0.03909877 0.00000000
v 0.10944114 -0.02605549 0.00000000
v 0.13677830 -0.04796046 0.00000000
v 0.11355768 -0.05818653 0.00000000
v 0.13297689 -0.06228899 0.00000000
v 0.10576492 -0.04999975 0.00000000
v -0.13629571 -0.09100318 0.00000000
v -0.02046582 -0.06855546 0.00000000
v -0.11748434 -0.09289190 0.00000000
v 0.05890409 -0.03701746 0.00000000
v 0.07094058 -0.03771990 0.00000000
v 0.10156778 -0.04892236 0.00000000
v 0.08350741 -0.02493570 0.00000000
v -0.13600681 -0.05035349 0.00000000
v -0.03522093 -0.03157895 0.00000000
v 0.11375631 -0.07311700 0.00000000
v 0.10811065 -0.08231394 0.00000000
v -0.12785324 -0.10313457 0.00000000
v -0.03175761 -0.07865750 0.00000000
v -0.04321899 -0.06593386 0.00000000
v -0.03743855 -0.05835244 0.00000000
v 0.11604633 -0.06922525 0.00000000
v 0.09851907 -0.06675743 0.00000000
v 0.10694561 -0.06699858 0.00000000
v 0.01307759 -0.08314607 0.00000000
v 0.05471296 -0.08075582 0.00000000
v -0.12228943 -0.06096490 0.00000000
v -0.14145088 -0.07205109 0.00000000
v -0.12372173 -0.07705303 0.00000000
v -0.11637130 -0.06317107 0.00000000
v 0.00460093 -0.06059325 0.00000000
v -0.01560730 -0.05243491 0.00000000
v -0.10277941 -0.08776564 0.00000000
v -0.08720716 -0.07227174 0.00000000
v 0.05259278 -0.04291899 0.00000000
v 0.06289666 -0.06206540 0.00000000
v -0.12233559 -0.08306488 0.00000000
v -0.05498423 -0.06378549 0.00000000
v -0.03027436 -0.05394581 0.00000000
v 0.00279444 -0.03503249 0.00000000
v 0.01612224 -0.03001670 0.00000000
v -0.05260744 -0.07044552 0.00000000
v -0.08302094 -0.07644820 0.00000000
v -0.06331215 -0.07049792 0.00000000
v 0.04390444 -0.04631375 0.00000000
v 0.03543076 -0.05925862 0.00000000
v 0.08980430 -0.05184230 0.00000000
v 0.07123571 -0.07776332 0.00000000
v 0.08063471 -0.07288348 0.00000000
v 0.08673734 -0.07725862 0.00000000
v 0.07432995 -0.05431746 0.00000000
v 0.07981572 -0.03696292 0.00000000
v 0.08139912 -0.04971717 0.00000000
v 0.00230257 -0.05297073 0.00000000
v 0.01265345 -0.06965846 0.00000000
v 0.00893852 -0.07650792 0.00000000
v 0.02325209 -0.05867360 0.00000000
v 0.00725627 -0.03977376 0.00000000
v 0.07178913 -0.08219470 0.00000000
v 0.04794654 -0.06768545 0.00000000
v 0.03502404 -0.07905642 0.00000000
v -0.16573052 -0.08913491 0.00000000
v 0.07525137 0.00280987 0.00000000
v 0.12463934 -0.00888933 0.00000000
v 0.02582619 -0.01314857 0.00000000
v 0.00504762 -0.06975414 0.00000000
v 0.07716544 -0.07833352 0.00000000
v 0.15152950 -0.06184263 0.00000000
v -0.16777482 -0.06188171 0.00000000
v 0.06983450 -0.00189989 0.00000000
v 0.07288382 0.00607686 0.00000000
v -0.05324043 -0.03377600 0.00000000
v -0.14053363 -0.05311573 0.00000000
v 0.05204965 -0.08234520 0.00000000
v 0.11598213 -0.07688091 0.00000000
v 0.14846564 -0.06984169 0.00000000
v -0.15992666 -0.05833105 0.00000000
v 0.15486644 -0.03032661 0.00000000
v 0.04668745 -0.00607448 0.00000000
v 0.05788814 -0.01234006 0.00000000
v -0.05236112 -0.08753500 0.00000000
v -0.13722067 -0.05743252 0.00000000
v 0.12385711 -0.01997157 0.00000000
v 0.06853830 0.00333894 0.00000000
v -0.07450001 -0.03872963 0.00000000
v -0.00786514 -0.02020922 0.00000000
v -0.12933445 -0.09395315 0.00000000
v 0.05199548 -0.08653241 0.00000000
v 0.15111592 -0.04325648 0.00000000
v -0.04973339 -0.09476105 0.00000000
v -0.11283899 -0.04493284 0.00000000
v -0.02475907 -0.02579070 0.00000000
v -0.00507071 -0.08945089 0.00000000
v 0.01143180 -0.08906023 0.00000000
v 0.06159495 -0.00971875 0.00000000
v 0.09305092 -0.08012085 0.00000000
v -0.15809595 -0.08899440 0.00000000
v -0.02453593 -0.08637321 0.00000000
v -0.13535575 -0.09820738 0.00000000
v -0.02259316 -0.07739301 0.00000000
v -0.14462384 -0.06582466 0.00000000
v -0.11218376 -0.08743963 0.00000000
v -0.09690658 -0.08928728 0.00000000
v 0.13049806 -0.07172581 0.00000000
v -0.00571586 -0.06251991 0.00000000
v -0.01164976 -0.05806564 0.00000000
v 0.00200223 -0.02073625 0.00000000
v 0.08090608 -0.01518173 0.00000000
v 0.10037037 0.00109456 0.00000000
v 0.07703995 -0.00343327 0.00000000
v 0.07624464 -0.02222947 0.00000000
v 0.06213394 -0.01763596 0.00000000
v 0.10775409 -0.02328627 0.00000000
v -0.00177412 -0.08298946 0.00000000
v -0.00677433 -0.07954817 0.00000000
v 0.04165028 -0.08955998 0.00000000
v -0.13253667 -0.07928673 0.00000000
v -0.07844783 -0.08685587 0.00000000
v -0.09394688 -0.07109824 0.00000000
v -0.04449335 -0.08196777 0.00000000
v -0.05581116 -0.09317210 0.00000000
v -0.03256464 -0.08438876 0.00000000
v -0.05791669 -0.06780940 0.00000000
v 0.12040722 -0.05366153 0.00000000
v 0.14459506 -0.06063680 0.00000000
v -0.11926027 -0.06406581 0.00000000
v 0.00712219 -0.01844456 0.00000000
v 0.01379829 -0.01589975 0.00000000
v 0.03383765 -0.01148524 0.00000000
v 0.03157466 -0.01486449 0.00000000
v 0.02925901 -0.02309835 0.00000000
v -0.07804859 -0.04587251 0.00000000
v -0.08260880 -0.05252319 0.00000000
v 0.06997852 -0.04174560 0.00000000
v 0.06271761 -0.02789605 0.00000000
v 0.05200219 -0.02846306 0.00000000
v 0.03442983 -0.03000775 0.00000000
v 0.03564739 -0.07808860 0.00000000
v 0.02140958 -0.07940623 0.00000000
v -0.03093888 -0.07421272 0.00000000
v -0.03154814 -0.05254416 0.00000000
v 0.08081134 -0.06849915 0.00000000
v 0.08945865 -0.07197282 0.00000000
v 0.10185584 -0.08205556 0.00000000
v 0.10799387 -0.07112293 0.00000000
v 0.10789573 -0.05671291 0.00000000
v -0.11572735 -0.05200948 0.00000000
v -0.13048987 -0.05707824 0.00000000
v -0.06557019 -0.04380709 0.00000000
v 0.07085409 -0.01303061 0.00000000
v 0.10138103 -0.03884607 0.00000000
v 0.10753108 -0.04975640 0.00000000
v 0.08477885 -0.03563281 0.00000000
v 0.08779024 -0.06705779 0.00000000
v 0.07716063 -0.04433881 0.00000000
v 0.07401995 -0.03677104 0.00000000
v 0.06525578 -0.06221061 0.00000000
v 0.01616293 -0.08317291 0.00000000
v -0.00404797 -0.05248526 0.00000000
v -0.01591287 -0.04540427 0.00000000
v -0.02011329 -0.04441674 0.00000000
v -0.02558663 -0.04040296 0.00000000
v 0.06315011 -0.07504854 0.00000000
v 0.06883431 -0.06459255 0.00000000
v 0.06246138 -0.03362434 0.00000000
v -0.03929687 -0.04906044 0.00000000
v -0.05742805 -0.05127329 0.00000000
v -0.04545620 -0.06364054 0.00000000
v -0.01810959 -0.03053479 0.00000000
v -0.01229404 -0.03054025 0.00000000
v 0.00075899 -0.03387205 0.00000000
v 0.00219992 -0.05648236 0.00000000
v 0.00785061 -0.02347780 0.00000000
v 0.01437640 -0.05884116 0.00000000
v 0.02351121 -0.05193032 0.00000000
v 0.05109706 -0.06131873 0.00000000
v 0.04493854 -0.06268190 0.00000000
v -0.01091194 -0.04333552 0.00000000
v 0.01026969 -0.02904926 0.00000000
v 0.04708375 -0.07724320 0.00000000
v 0.03151482 -0.04773729 0.00000000
v -0.11996569 0.05768891 0.00000000
v 0.05549376 0.00480044 0.00000000
v 0.13517142 0.03682335 0.00000000
v 0.14834635 0.00836525 0.00000000
v -0.01569677 0.06415438 0.00000000
v -0.05692415 0.02468346 0.00000000
v -0.02157078 0.08019984 0.00000000
v 0.02691635 0.00963566 0.00000000
v -0.06589356 0.03092568 0.00000000
v -0.04749485 0.07832347 0.00000000
v -0.17048628 0.04667866 0.00000000
v 0.13991267 0.06120105 0.00000000
v -0.14139465 0.08993877 0.00000000
v -0.16836139 0.08164312 0.00000000
v 0.14406502 0.07756940 0.00000000
v 0.15820501 0.06560128 0.00000000
v -0.05861638 0.07994478 0.00000000
v -0.06390634 0.08620773 0.00000000
v -0.15081986 0.04372350 0.00000000
v 0.08194028 0.01784413 0.00000000
v 0.15542716 0.01420460 0.00000000
v -0.14603897 0.08764544 0.00000000
v -0.15776757 0.07960162 0.00000000
v -0.17539110 0.06063725 0.00000000
v -0.04250502 0.02293649 0.00000000
v -0.16108698 0.03985984 0.00000000
v -0.12973784 0.03513565 0.00000000
v -0.10410088 0.03284900 0.00000000
v 0.08416313 0.08996417 0.00000000
v 0.01921493 0.08664413 0.00000000
v 0.07670108 0.01849308 0.00000000
v 0.10381400 0.03404590 0.00000000
v -0.14308680 0.08208738 0.00000000
v -0.10859395 0.08696921 0.00000000
v -0.17143117 0.05368599 0.00000000
v 0.08993083 0.08645968 0.00000000
v -0.01374064 0.07862216 0.00000000
v -0.02080096 0.08260241 0.00000000
v 0.04559640 0.09095322 0.00000000
v 0.03942753 0.08742758 0.00000000
v -0.14664762 0.03970602 0.00000000
v 0.12864275 0.07852181 0.00000000
v 0.06323094 0.01446843 0.00000000
v -0.01814365 0.01695520 0.00000000
v -0.00791062 0.01928512 0.00000000
v -0.04272652 0.08374969 0.00000000
v 0.07910654 0.08405811 0.00000000
v -0.15184921 0.05879984 0.00000000
v 0.04825795 0.00496203 0.00000000
v -0.04070668 0.03392354 0.00000000
v -0.02685161 0.02745153 0.00000000
v -0.00917569 0.07649273 0.00000000
v 0.05506835 0.02042917 0.00000000
v 0.00323512 0.02518644 0.00000000
v 0.14064294 0.03494553 0.00000000
v 0.12141260 0.03675139 0.00000000
v 0.12213837 0.05301239 0.00000000
v 0.11358424 0.06634536 0.00000000
v 0.11014075 0.04929084 0.00000000
v 0.09314630 0.04599784 0.00000000
v 0.13330315 0.04746981 0.00000000
v 0.12222359 0.07242122 0.00000000
v 0.10332748 0.07087540 0.00000000
v 0.12775098 0.07296763 0.00000000
v 0.07948156 0.06944553 0.00000000
v 0.07009587 0.06162476 0.00000000
v 0.08883502 0.07070604 0.00000000
v -0.11587954 0.09123520 0.00000000
v -0.12808041 0.07533548 0.00000000
v -0.03009101 0.07110084 0.00000000
v -0.02886805 0.08690519 0.00000000
v -0.02327475 0.04147212 0.00000000
v -0.00181827 0.05103829 0.00000000
v -0.03810088 0.05572347 0.00000000
v -0.03369465 0.06019521 0.00000000
v -0.03570051 0.07065774 0.00000000
v -0.12476104 0.04318245 0.00000000
v -0.14263915 0.04556240 0.00000000
v -0.08326505 0.03761500 0.00000000
v -0.08657834 0.08925963 0.00000000
v -0.06536418 0.08245868 0.00000000
v -0.08452302 0.08158109 0.00000000
v -0.09005454 0.06872030 0.00000000
v 0.10043086 0.08931597 0.00000000
v 0.10323194 0.08119942 0.00000000
v 0.05161878 0.08244896 0.00000000
v 0.01226743 0.05810754 0.00000000
v 0.00661098 0.07515124 0.00000000
v -0.16685080 0.06445182 0.00000000
v -0.05061422 0.03504148 0.00000000
v 0.06522381 0.08607419 0.00000000
v 0.06136159 0.07788032 0.00000000
v 0.02813434 0.08126480 0.00000000
v 0.02191274 0.06444471 0.00000000
v 0.02163060 0.08437402 0.00000000
v -0.02195595 0.07370630 0.00000000
v -0.03801411 0.04262155 0.00000000
v -0.02082425 0.02971158 0.00000000
v -0.05269147 0.04784782 0.00000000
v -0.06058124 0.06803107 0.00000000
v -0.07437510 0.06052409 0.00000000
v -0.01028820 0.05209053 0.00000000
v -0.01246743 0.03945096 0.00000000
v 0.00514751 0.05361175 0.00000000
v -0.00027308 0.06731618 0.00000000
v -0.01839141 0.04738066 0.00000000
v -0.13203520 0.06107719 0.00000000
v 0.05909837 0.03321090 0.00000000
v 0.07530061 0.03991848 0.00000000
v 0.06905464 0.03342160 0.00000000
v 0.07364989 0.03428911 0.00000000
v 0.05782107 0.04542630 0.00000000
v 0.06505888 0.05335825 0.00000000
v 0.06328634 0.07036504 0.00000000
v -0.09657166 0.03256318 0.00000000
v -0.08719669 0.04622241 0.00000000
v -0.10433475 0.04861711 0.00000000
v 0.00838070 0.04286645 0.00000000
v -0.05205796 0.07121345 0.00000000
v -0.08465188 0.05752343 0.00000000
v -0.10621792 0.07528425 0.00000000
v 0.04656428 0.02595184 0.00000000
v 0.05291986 0.03833289 0.00000000
v 0.03337196 0.01364143 0.00000000
v 0.06387846 0.02465163 0.00000000
v 0.05836945 0.04075639 0.00000000
v 0.06543037 0.04854939 0.00000000
v 0.06977942 0.05339583 0.00000000
v -0.00090808 0.03079548 0.00000000
v 0.01449319 0.01857298 0.00000000
v 0.02257782 0.02995962 0.00000000
v 0.02887055 0.01717197 0.00000000
v 0.02042907 0.03919676 0.00000000
v 0.02606050 0.02173228 0.00000000
v 0.01912148 0.05580454 0.00000000
v 0.03999770 0.06177613 0.00000000
v 0.02931734 0.06888191 0.00000000
v 0.05039647 0.05695090 0.00000000
v 0.04729848 0.04249853 0.00000000
v 0.03281196 0.04350085 0.00000000
v 0.02864881 0.03170575 0.00000000
v 0.03513461 0.03242943 0.00000000
f 6 10 1
f 3 222 2
f 9 1 47
f 4 5 8
f 190 4 8
f 4 190 3
f 1 9 6
f 9 8 5
f 190 222 3
f 7 222 226
f 168 7 226
f 2 222 7
f 9 78 8
f 190 8 43
f 6 9 5
f 12 13 17
f 18 2 7
f 2 18 13
f 15 10 11
f 10 14 1
f 10 15 14
f 11 16 15
f 16 11 12
f 12 17 16
f 13 18 17
f 16 431 15
f 17 18 318
f 426 1 14
f 414 16 307
f 15 431 14
f 414 431 16
f 17 307 16
f 54 23 38
f 19 22 34
f 66 22 56
f 22 66 38
f 19 20 22
f 22 20 21
f 56 22 21
f 38 34 22
f 30 170 29
f 166 24 25
f 28 27 29
f 25 30 27
f 25 24 30
f 26 25 27
f 30 29 27
f 28 29 31
f 26 291 25
f 31 29 291
f 33 291 29
f 31 291 26
f 34 38 35
f 38 424 37
f 434 445 39
f 421 39 445
f 39 36 434
f 21 20 39
f 39 20 36
f 35 37 434
f 37 35 38
f 424 38 23
f 35 434 36
f 9 79 78
f 57 436 58
f 21 39 57
f 65 42 63
f 478 131 133
f 79 9 47
f 87 47 93
f 56 50 58
f 50 57 58
f 21 57 50
f 78 43 8
f 51 59 198
f 198 95 51
f 83 71 89
f 419 104 62
f 60 42 65
f 152 60 65
f 66 54 38
f 23 148 432
f 54 148 23
f 423 432 67
f 478 55 131
f 47 77 79
f 80 93 68
f 40 80 68
f 56 21 50
f 437 129 52
f 113 43 78
f 126 82 43
f 137 44 51
f 92 69 85
f 85 70 84
f 101 76 96
f 117 96 76
f 136 96 44
f 72 71 428
f 72 428 73
f 62 104 103
f 61 62 90
f 419 75 115
f 60 84 70
f 105 63 119
f 494 446 99
f 99 40 494
f 47 87 77
f 125 53 82
f 229 82 53
f 113 126 43
f 418 44 96
f 83 106 119
f 94 437 74
f 76 156 117
f 86 41 139
f 128 52 129
f 95 198 127
f 48 94 74
f 94 48 90
f 103 91 62
f 104 116 109
f 23 432 49
f 432 148 67
f 89 71 72
f 152 84 60
f 114 85 97
f 449 146 41
f 86 139 46
f 99 446 98
f 86 98 446
f 98 86 46
f 95 100 51
f 96 136 101
f 72 106 89
f 90 48 61
f 91 112 62
f 437 94 132
f 100 95 147
f 74 61 48
f 62 112 90
f 134 90 102
f 134 102 112
f 80 40 107
f 90 112 102
f 93 80 107
f 137 88 44
f 110 109 106
f 110 106 72
f 105 108 63
f 119 106 105
f 89 106 83
f 104 109 103
f 105 123 108
f 138 105 106
f 103 109 91
f 45 112 91
f 91 109 45
f 72 45 110
f 111 134 112
f 45 109 110
f 490 45 73
f 490 111 45
f 111 112 45
f 111 133 134
f 128 429 52
f 436 429 58
f 111 490 133
f 58 429 128
f 449 69 92
f 146 139 41
f 92 142 146
f 127 151 95
f 92 146 449
f 142 92 85
f 114 142 85
f 115 117 116
f 104 115 116
f 117 115 75
f 117 156 122
f 419 115 104
f 81 79 77
f 84 97 85
f 120 97 144
f 97 120 142
f 88 101 136
f 101 88 150
f 156 121 123
f 123 122 156
f 150 84 152
f 123 121 108
f 148 130 67
f 82 126 125
f 125 126 153
f 153 126 107
f 81 107 126
f 53 125 127
f 129 149 128
f 129 437 132
f 56 128 149
f 128 56 58
f 130 148 149
f 67 130 55
f 94 131 132
f 55 132 131
f 132 55 130
f 135 94 90
f 90 134 135
f 135 134 133
f 44 88 136
f 63 108 121
f 121 124 63
f 124 64 63
f 106 116 138
f 105 138 123
f 106 109 116
f 40 99 98
f 66 56 149
f 113 78 81
f 81 78 79
f 81 126 113
f 146 46 139
f 146 141 140
f 98 46 146
f 142 120 145
f 143 146 142
f 151 142 147
f 100 142 145
f 144 97 150
f 142 100 147
f 142 151 143
f 88 145 120
f 146 143 141
f 120 150 88
f 120 144 150
f 145 137 100
f 100 137 51
f 147 95 151
f 72 73 45
f 64 65 63
f 124 152 64
f 54 66 148
f 148 66 149
f 149 132 130
f 93 77 87
f 77 93 81
f 107 118 93
f 97 84 150
f 97 142 114
f 116 122 123
f 116 123 138
f 116 117 122
f 141 127 125
f 141 151 127
f 155 141 125
f 125 154 155
f 152 124 150
f 94 135 131
f 133 131 135
f 137 145 88
f 118 107 81
f 155 140 141
f 65 64 152
f 93 118 81
f 151 141 143
f 157 101 150
f 157 150 124
f 154 153 107
f 107 40 154
f 154 125 153
f 155 154 98
f 98 154 40
f 146 140 155
f 155 98 146
f 158 156 157
f 157 76 101
f 76 157 156
f 121 156 158
f 158 157 124
f 121 158 124
f 129 132 149
f 59 299 172
f 168 204 7
f 53 127 229
f 198 242 127
f 24 166 177
f 32 166 25
f 187 165 170
f 190 43 196
f 202 190 196
f 170 167 29
f 172 299 160
f 189 175 160
f 82 176 43
f 203 24 177
f 178 177 166
f 189 160 199
f 167 170 165
f 172 175 59
f 172 160 175
f 59 175 211
f 181 254 323
f 301 182 219
f 302 188 243
f 170 30 187
f 199 217 189
f 201 175 189
f 224 161 195
f 231 82 229
f 43 202 196
f 30 203 193
f 24 203 30
f 187 30 193
f 168 226 213
f 214 310 184
f 323 186 387
f 194 174 171
f 217 199 212
f 201 189 217
f 176 231 43
f 43 231 202
f 82 231 176
f 202 218 190
f 178 166 32
f 199 200 206
f 159 208 182
f 219 182 208
f 301 191 315
f 227 210 183
f 206 200 191
f 185 184 192
f 243 256 171
f 188 165 187
f 325 161 162
f 203 177 178
f 245 179 204
f 168 213 204
f 199 270 212
f 191 301 244
f 207 169 215
f 238 247 164
f 210 238 164
f 264 217 212
f 195 161 373
f 301 219 244
f 214 205 310
f 207 185 169
f 239 217 264
f 206 270 199
f 187 193 216
f 216 193 236
f 264 212 274
f 217 239 175
f 224 162 161
f 222 190 218
f 270 221 212
f 226 222 232
f 219 273 267
f 273 219 208
f 279 224 223
f 204 213 245
f 213 226 234
f 210 227 262
f 159 174 208
f 205 220 183
f 252 223 224
f 165 188 167
f 180 317 228
f 228 317 255
f 197 288 163
f 232 234 226
f 225 213 234
f 59 211 198
f 242 198 211
f 242 229 127
f 229 230 231
f 241 231 230
f 234 232 233
f 235 233 231
f 235 231 241
f 233 251 225
f 169 186 215
f 203 173 247
f 237 248 185
f 207 237 185
f 248 214 184
f 174 194 263
f 262 238 210
f 217 175 201
f 211 175 239
f 211 239 240
f 265 239 264
f 288 197 162
f 235 241 253
f 211 281 242
f 229 241 230
f 243 188 257
f 179 246 304
f 246 179 245
f 195 246 224
f 202 232 218
f 248 237 250
f 250 214 248
f 214 250 249
f 244 219 267
f 244 267 209
f 271 249 267
f 214 249 271
f 209 250 206
f 209 206 244
f 213 251 245
f 251 213 225
f 224 246 252
f 245 253 246
f 233 253 251
f 235 253 233
f 251 253 245
f 253 252 246
f 263 262 227
f 227 272 263
f 227 183 220
f 285 323 254
f 285 186 323
f 181 285 254
f 285 181 284
f 207 215 260
f 317 288 255
f 228 255 290
f 228 181 180
f 232 222 218
f 202 233 232
f 225 234 233
f 241 229 242
f 202 231 233
f 206 191 244
f 256 243 257
f 216 188 187
f 258 256 257
f 259 194 171
f 256 259 171
f 194 259 262
f 188 216 257
f 256 258 259
f 266 259 258
f 194 262 263
f 193 203 236
f 203 178 173
f 247 236 203
f 248 184 185
f 261 237 207
f 260 261 207
f 208 174 263
f 279 162 224
f 262 259 238
f 247 238 266
f 259 266 238
f 236 247 258
f 258 247 266
f 237 268 250
f 250 267 249
f 209 267 250
f 261 268 237
f 268 206 250
f 269 206 261
f 268 261 206
f 269 270 206
f 270 269 287
f 205 214 220
f 220 214 271
f 208 227 273
f 227 208 272
f 274 212 221
f 275 274 221
f 221 270 287
f 181 286 284
f 275 286 181
f 290 275 181
f 253 241 252
f 276 278 223
f 223 252 276
f 252 241 276
f 239 280 240
f 223 278 279
f 280 239 265
f 278 265 277
f 280 265 278
f 280 282 211
f 276 242 282
f 242 276 241
f 278 282 280
f 278 276 282
f 281 282 242
f 280 211 240
f 282 281 211
f 267 273 227
f 227 220 267
f 271 267 220
f 215 186 285
f 317 163 288
f 288 277 255
f 181 228 290
f 236 257 216
f 258 257 236
f 269 261 283
f 285 260 215
f 261 260 283
f 284 286 260
f 285 284 260
f 283 260 269
f 221 260 286
f 221 287 260
f 260 287 269
f 272 208 263
f 286 275 221
f 290 289 275
f 265 264 289
f 255 289 290
f 264 275 289
f 274 275 264
f 288 162 279
f 288 279 277
f 277 265 255
f 265 289 255
f 278 277 279
f 33 326 291
f 247 173 316
f 7 204 305
f 294 199 308
f 356 200 199
f 294 356 199
f 308 199 160
f 318 18 297
f 17 318 307
f 374 195 373
f 305 18 7
f 167 306 29
f 293 414 307
f 160 299 308
f 299 313 308
f 325 373 161
f 304 333 179
f 18 305 297
f 29 298 33
f 313 300 339
f 324 313 339
f 339 300 292
f 200 356 191
f 356 358 357
f 320 171 159
f 182 301 159
f 322 186 169
f 327 169 185
f 322 169 327
f 185 192 327
f 356 315 191
f 321 301 315
f 178 25 326
f 25 178 32
f 178 316 173
f 164 247 316
f 326 25 291
f 377 243 171
f 311 302 243
f 339 292 379
f 195 304 246
f 306 298 29
f 308 313 324
f 310 319 184
f 319 192 184
f 183 350 310
f 332 183 210
f 314 159 301
f 159 171 174
f 361 314 301
f 159 314 361
f 323 367 181
f 326 328 178
f 316 178 328
f 195 333 304
f 204 179 333
f 305 333 354
f 305 204 333
f 307 312 293
f 293 312 338
f 183 310 205
f 350 319 310
f 171 320 376
f 343 322 327
f 295 186 322
f 323 387 368
f 181 367 180
f 180 303 317
f 298 306 33
f 323 368 367
f 180 367 345
f 303 180 392
f 332 164 316
f 346 328 326
f 309 358 324
f 327 344 343
f 325 372 373
f 312 318 380
f 307 318 312
f 358 294 308
f 332 210 164
f 328 346 331
f 330 346 33
f 327 329 344
f 344 329 334
f 295 387 186
f 331 316 328
f 296 162 197
f 162 372 325
f 295 322 343
f 316 331 332
f 354 318 297
f 331 346 355
f 331 355 332
f 334 295 343
f 334 343 344
f 334 329 335
f 332 355 348
f 167 188 306
f 336 356 357
f 336 315 356
f 292 337 379
f 292 338 337
f 340 339 379
f 324 339 340
f 324 340 341
f 354 297 305
f 319 351 192
f 351 327 192
f 197 163 296
f 318 354 380
f 324 341 309
f 382 338 342
f 312 342 338
f 308 324 358
f 180 345 392
f 33 306 330
f 330 306 311
f 311 188 302
f 188 311 306
f 326 33 346
f 358 356 294
f 332 347 183
f 347 352 350
f 351 319 349
f 350 349 319
f 352 349 350
f 183 347 350
f 349 329 351
f 353 380 354
f 342 312 380
f 351 329 327
f 353 354 374
f 374 354 333
f 374 333 195
f 355 311 377
f 330 355 346
f 330 311 355
f 171 376 377
f 355 377 376
f 376 362 355
f 358 360 357
f 341 359 309
f 359 358 309
f 360 358 359
f 360 359 366
f 341 364 359
f 362 376 361
f 377 311 243
f 364 340 363
f 303 163 317
f 365 359 364
f 359 365 366
f 159 376 320
f 361 376 159
f 295 368 387
f 295 334 401
f 352 347 348
f 397 352 348
f 332 348 347
f 329 369 335
f 369 329 349
f 389 335 369
f 352 369 349
f 352 397 369
f 162 296 371
f 371 296 393
f 392 393 296
f 371 383 162
f 372 374 373
f 372 375 374
f 348 362 397
f 361 378 362
f 348 355 362
f 340 379 363
f 363 379 385
f 364 341 340
f 381 380 353
f 375 381 353
f 382 342 380
f 385 382 384
f 384 382 380
f 383 384 380
f 162 383 372
f 386 363 385
f 384 386 385
f 384 383 393
f 386 384 393
f 383 371 393
f 388 334 335
f 389 388 335
f 390 370 391
f 389 398 407
f 389 370 390
f 369 370 389
f 369 397 370
f 392 386 393
f 381 375 372
f 381 372 383
f 380 381 383
f 374 375 353
f 360 408 357
f 402 315 336
f 357 402 336
f 363 386 394
f 337 385 379
f 338 382 337
f 337 382 385
f 363 394 364
f 366 408 360
f 365 405 366
f 409 345 367
f 303 392 163
f 388 401 334
f 397 391 370
f 397 395 391
f 395 396 301
f 397 396 395
f 301 396 378
f 378 396 362
f 397 362 396
f 301 321 395
f 321 398 395
f 395 398 391
f 398 321 315
f 315 399 398
f 391 398 389
f 391 389 390
f 399 315 400
f 295 401 403
f 403 401 400
f 389 407 388
f 402 400 315
f 402 357 400
f 400 401 388
f 408 400 357
f 404 403 400
f 404 400 408
f 366 404 408
f 410 404 366
f 403 368 295
f 405 410 366
f 163 392 296
f 378 361 301
f 400 407 399
f 388 407 400
f 398 399 407
f 405 386 406
f 364 394 405
f 392 409 386
f 345 409 392
f 409 367 406
f 406 410 405
f 409 406 386
f 406 368 410
f 404 410 368
f 406 367 368
f 368 403 404
f 365 364 405
f 386 405 394
f 117 75 435
f 313 299 59
f 51 44 459
f 434 37 499
f 421 57 39
f 427 71 83
f 119 63 481
f 1 452 47
f 419 416 75
f 51 313 59
f 70 85 440
f 436 57 421
f 14 431 471
f 413 414 293
f 452 1 425
f 425 1 452
f 61 489 62
f 466 413 293
f 442 466 293
f 423 49 432
f 452 93 47
f 426 452 1
f 313 51 412
f 427 428 71
f 437 52 429
f 429 436 451
f 441 292 300
f 413 431 414
f 465 431 413
f 465 471 431
f 499 37 433
f 424 23 49
f 96 117 454
f 420 428 427
f 427 83 420
f 448 481 63
f 437 429 451
f 437 487 74
f 74 487 438
f 74 438 61
f 133 444 478
f 441 430 292
f 430 338 292
f 338 442 293
f 426 471 422
f 14 471 426
f 424 433 37
f 421 499 458
f 445 499 421
f 453 535 300
f 44 418 542
f 44 542 459
f 435 454 117
f 489 61 525
f 489 419 62
f 83 456 420
f 462 42 60
f 421 458 436
f 488 451 458
f 525 61 438
f 478 67 55
f 86 439 41
f 41 501 449
f 433 424 49
f 499 445 434
f 436 458 451
f 68 93 452
f 416 419 489
f 447 448 63
f 447 63 42
f 133 478 444
f 446 439 86
f 443 458 433
f 458 499 433
f 416 489 500
f 96 454 455
f 454 508 455
f 69 449 450
f 439 446 457
f 412 300 313
f 412 453 300
f 119 481 456
f 60 440 498
f 450 85 69
f 459 412 51
f 454 435 460
f 417 481 448
f 456 83 119
f 462 447 42
f 447 462 417
f 448 447 417
f 75 460 435
f 455 464 96
f 460 75 500
f 500 75 416
f 508 513 455
f 455 539 464
f 464 540 96
f 452 426 474
f 471 413 467
f 413 466 467
f 466 468 467
f 468 466 469
f 469 473 468
f 467 468 471
f 442 470 469
f 470 477 473
f 468 422 471
f 469 470 473
f 468 40 472
f 468 472 474
f 474 426 422
f 468 474 422
f 474 68 452
f 474 40 68
f 524 475 476
f 538 476 475
f 538 470 519
f 338 430 519
f 501 524 502
f 501 475 524
f 475 501 457
f 501 502 496
f 423 67 479
f 443 423 479
f 67 478 479
f 433 49 443
f 531 479 478
f 517 479 411
f 443 479 458
f 481 486 456
f 485 480 506
f 485 506 482
f 516 506 512
f 480 485 481
f 481 485 486
f 456 529 420
f 491 420 510
f 437 451 487
f 451 488 487
f 492 133 490
f 492 490 73
f 510 73 491
f 428 491 73
f 420 491 428
f 492 73 510
f 70 440 60
f 446 494 457
f 457 494 495
f 40 495 494
f 473 40 468
f 473 495 40
f 449 501 496
f 496 450 449
f 515 462 498
f 415 515 483
f 462 515 415
f 498 462 60
f 498 440 505
f 535 441 300
f 459 534 463
f 453 412 463
f 463 412 459
f 507 482 508
f 534 459 542
f 418 96 540
f 418 540 544
f 415 417 462
f 465 413 471
f 469 466 442
f 40 474 472
f 477 457 473
f 338 470 442
f 338 519 470
f 501 41 457
f 457 41 439
f 524 450 502
f 450 496 502
f 49 423 443
f 478 133 531
f 488 411 487
f 411 488 517
f 506 417 415
f 506 480 481
f 506 481 417
f 460 507 461
f 482 507 485
f 484 485 507
f 508 482 516
f 509 484 460
f 460 484 507
f 500 511 509
f 460 500 509
f 500 489 511
f 530 511 489
f 509 511 510
f 510 511 530
f 420 529 510
f 512 415 483
f 482 506 516
f 512 539 513
f 513 516 512
f 455 513 539
f 516 513 508
f 483 515 514
f 515 498 497
f 515 497 514
f 539 483 528
f 458 479 517
f 458 517 488
f 510 133 492
f 530 493 510
f 133 510 531
f 510 493 531
f 85 503 440
f 85 450 503
f 440 503 505
f 441 521 430
f 519 430 521
f 441 520 521
f 470 538 475
f 537 523 538
f 521 538 519
f 536 533 522
f 523 522 548
f 476 538 523
f 476 523 524
f 504 505 503
f 505 504 498
f 504 497 498
f 487 525 438
f 527 525 487
f 411 527 487
f 411 526 527
f 525 527 526
f 530 526 411
f 506 415 512
f 507 508 461
f 526 530 489
f 525 526 489
f 512 483 539
f 483 514 528
f 456 486 529
f 484 486 485
f 509 510 529
f 486 509 529
f 484 509 486
f 479 530 411
f 531 530 479
f 530 531 493
f 532 518 463
f 533 536 518
f 534 532 463
f 532 533 518
f 523 537 522
f 535 453 518
f 453 463 518
f 536 535 518
f 542 418 544
f 533 548 522
f 548 546 524
f 536 522 537
f 535 536 537
f 535 537 538
f 535 538 520
f 520 538 521
f 523 548 524
f 441 535 520
f 540 464 539
f 528 540 539
f 541 540 528
f 544 540 541
f 543 542 541
f 551 534 542
f 528 543 541
f 544 541 542
f 545 528 514
f 545 543 528
f 514 497 545
f 545 497 504
f 504 547 545
f 503 450 547
f 547 450 546
f 450 524 546
f 503 547 504
f 545 546 550
f 545 547 546
f 533 549 548
f 549 533 532
f 551 543 545
f 551 542 543
f 552 534 551
f 534 552 549
f 549 551 550
f 550 546 549
f 550 551 545
f 534 549 532
f 551 549 552
f 548 549 546
f 454 460 461
f 508 454 461
f 475 477 470
f 477 475 457
f 495 473 457
